<svg viewBox="0 0 16 16" fill="none" xmlns="http://www.w3.org/2000/svg">
<path d="M14.7185 11.1967L9.81831 2.71527C9.63647 2.39408 9.37242 2.12707 9.05328 1.94165C8.73414 1.75622 8.3714 1.65907 8.00231 1.66017C7.63322 1.65907 7.27048 1.75622 6.95134 1.94165C6.6322 2.12707 6.36815 2.39408 6.18631 2.71527L1.28615 11.1967C1.0988 11.5149 1 11.8775 1 12.2467C1 12.616 1.0988 12.9786 1.28615 13.2968C1.4693 13.6161 1.7339 13.881 2.05295 14.0646C2.372 14.2482 2.73406 14.3438 3.10215 14.3417H12.9025C13.6634 14.3417 14.3431 13.9461 14.7185 13.2968C15.0938 12.6373 15.0938 11.8561 14.7185 11.1967ZM7.32258 5.76899C7.32258 5.58872 7.39419 5.41583 7.52167 5.28835C7.64914 5.16088 7.82203 5.08926 8.00231 5.08926C8.18259 5.08926 8.35548 5.16088 8.48295 5.28835C8.61043 5.41583 8.68204 5.58872 8.68204 5.76899V8.92417C8.68204 9.10444 8.61043 9.27734 8.48295 9.40481C8.35548 9.53229 8.18259 9.6039 8.00231 9.6039C7.82203 9.6039 7.64914 9.53229 7.52167 9.40481C7.39419 9.27734 7.32258 9.10444 7.32258 8.92417V5.76899ZM8.00231 12.1504C7.76284 12.1504 7.53317 12.0552 7.36384 11.8859C7.19451 11.7166 7.09938 11.4869 7.09938 11.2474C7.09938 11.008 7.19451 10.7783 7.36384 10.609C7.53317 10.4396 7.76284 10.3445 8.00231 10.3445C8.24178 10.3445 8.47144 10.4396 8.64078 10.609C8.81011 10.7783 8.90524 11.008 8.90524 11.2474C8.90524 11.4869 8.81011 11.7166 8.64078 11.8859C8.47144 12.0552 8.24178 12.1504 8.00231 12.1504Z" fill="#DE6313"/>
</svg>
