<svg xmlns="http://www.w3.org/2000/svg" fill="none" viewBox="0 0 16 16">
  <path fill="currentColor" fill-rule="evenodd" d="M2.136 3.026c-.021.022-.076.094-.076.314v1.33c0 .22.055.292.076.314.022.021.094.076.314.076h11.12c.22 0 .293-.055.314-.076.021-.022.076-.094.076-.314V3.34c0-.22-.055-.292-.076-.314-.021-.021-.094-.076-.314-.076H2.45c-.22 0-.292.055-.314.076ZM1.43 2.32c.275-.275.647-.369 1.021-.369h11.12c.374 0 .746.094 1.021.369.275.275.37.647.37 1.021v1.33c0 .374-.095.746-.37 1.021-.26.26-.608.358-.961.368v5.731a2.28 2.28 0 0 1-2.28 2.28H4.67a2.28 2.28 0 0 1-2.28-2.28V6.06c-.353-.01-.7-.109-.961-.369-.275-.275-.369-.647-.369-1.021V3.34c0-.374.094-.746.369-1.021ZM3.39 6.06h9.24v5.73a1.28 1.28 0 0 1-1.28 1.28H4.67a1.28 1.28 0 0 1-1.28-1.28V6.06Zm2.84 1.67a.5.5 0 1 0 0 1h3.56a.5.5 0 0 0 0-1H6.23Z" clip-rule="evenodd"/>
</svg>