<svg xmlns="http://www.w3.org/2000/svg" fill="none" viewBox="0 0 16 16">
  <path fill="currentColor" d="M12.524 6.995a2.5 2.5 0 0 1 2.5 2.5v3a2.5 2.5 0 0 1-2.5 2.5h-9a2.5 2.5 0 0 1-2.487-2.244l-.013-.256v-3a2.5 2.5 0 0 1 2.5-2.5zm-9 1a1.5 1.5 0 0 0-1.5 1.5v3l.008.153a1.5 1.5 0 0 0 1.492 1.347h9a1.5 1.5 0 0 0 1.5-1.5v-3a1.5 1.5 0 0 0-1.5-1.5zm9-4a1.5 1.5 0 0 1 1.5 1.5.5.5 0 0 1-.99.1l-.02-.2a.5.5 0 0 0-.49-.4h-9a.5.5 0 0 0-.49.4l-.02.2a.5.5 0 0 1-.99-.1 1.5 1.5 0 0 1 1.5-1.5zm-1-3a1.5 1.5 0 0 1 1.5 1.5.5.5 0 0 1-.99.1l-.02-.2a.5.5 0 0 0-.49-.4h-7a.5.5 0 0 0-.49.4l-.02.2a.5.5 0 0 1-.99-.1 1.5 1.5 0 0 1 1.5-1.5z"/>
</svg>