<svg xmlns="http://www.w3.org/2000/svg" fill="none" viewBox="0 0 16 16">  <path fill="currentColor" d="M8.898 13.475C9.037 13.237 9.342 13.155 9.581 13.293C9.819 13.431 9.901 13.737 9.763 13.975C9.412 14.583 8.753 14.995 7.998 14.995C7.243 14.995 6.584 14.583 6.232 13.975C6.094 13.737 6.176 13.431 6.415 13.293C6.654 13.155 6.959 13.237 7.097 13.475C7.278 13.787 7.614 13.995 7.998 13.995C8.381 13.995 8.718 13.787 8.898 13.475ZM8.014 0.995C10.621 0.995 12.735 3.109 12.735 5.716L12.733 9.718C12.733 10.423 13.305 10.995 14.011 10.995C14.287 10.995 14.511 11.219 14.511 11.495C14.511 11.771 14.287 11.995 14.011 11.995H2.014C1.738 11.995 1.514 11.771 1.514 11.495C1.514 11.219 1.738 10.995 2.014 10.995C2.676 10.995 3.22 10.493 3.285 9.849L3.292 9.718L3.294 5.716C3.294 3.109 5.408 0.995 8.014 0.995ZM8.014 1.995C5.96 1.995 4.294 3.661 4.294 5.716L4.292 9.718C4.292 10.191 4.147 10.631 3.9 10.995H12.126C11.92 10.691 11.784 10.336 11.745 9.951L11.733 9.718L11.735 5.716C11.735 3.661 10.069 1.995 8.014 1.995Z"/></svg>
