<svg xmlns="http://www.w3.org/2000/svg" fill="none" viewBox="0 0 16 16">
  <path fill="currentColor" d="M10.153 1.008A1.5 1.5 0 0 1 11.5 2.5v1.546h1a2 2 0 0 1 2 2V12a2.001 2.001 0 0 1-2 2.001h-9c-1.104 0-2-.897-2-2.001V6.046a2 2 0 0 1 2-2h1V2.5A1.5 1.5 0 0 1 6 1h4l.153.008ZM3.5 5.046a1 1 0 0 0-1 1V12c0 .552.448 1.001 1 1.001h9c.552 0 1-.449 1-1.001V6.046a1 1 0 0 0-1-1h-9ZM8 5.5a.5.5 0 0 1 .5.5v.57c.333.088.695.28.96.682a.5.5 0 0 1-.833.553c-.148-.224-.38-.297-.636-.305a1.2 1.2 0 0 0-.517.134.411.411 0 0 0-.157.14c-.023.04-.048.106-.036.224V8c.011.114.065.198.189.277.14.09.343.152.57.188.27.043.67.125 1.013.326.366.215.695.585.71 1.164l-.004.186c-.064.708-.627 1.149-1.253 1.3l.009.552a.5.5 0 0 1-1 .014l-.01-.55c-.49-.092-.926-.337-1.183-.826a.5.5 0 1 1 .885-.465c.1.19.307.334.793.334h.007c.546.007.764-.296.758-.515v-.002c-.004-.148-.068-.241-.218-.33-.174-.102-.417-.16-.663-.2-.29-.046-.648-.139-.953-.334-.32-.205-.598-.536-.645-1.021L6.28 7.98c-.007-.267.055-.51.178-.717.137-.232.332-.391.522-.5.17-.096.352-.16.521-.2V6a.5.5 0 0 1 .5-.5ZM6 2a.5.5 0 0 0-.5.5v1.546h5V2.5a.5.5 0 0 0-.4-.49L10 2H6Z"/>
</svg>