<svg xmlns="http://www.w3.org/2000/svg" fill="none" viewBox="0 0 16 16">
  <path fill="currentColor" fill-rule="evenodd" d="M6.174 1.724a.39.39 0 0 1 .276-.114h3.12a.39.39 0 0 1 .39.39v1.73h-3.9V2a.39.39 0 0 1 .114-.276ZM10.96 2v1.73h1.72c.67 0 1.265.168 1.689.592.423.423.591 1.018.591 1.688v5.78c0 .67-.168 1.265-.591 1.689-.424.423-1.018.591-1.689.591H3.34c-.67 0-1.265-.168-1.688-.591-.424-.424-.592-1.018-.592-1.689V6.01c0-.67.168-1.265.592-1.688.423-.424 1.018-.592 1.688-.592h1.72V2A1.39 1.39 0 0 1 6.45.61h3.12A1.39 1.39 0 0 1 10.96 2Zm3 4.01v1.448a15.77 15.77 0 0 1-2.732.833.5.5 0 0 0 .204.979c.861-.18 1.706-.426 2.528-.738v3.258c0 .516-.129.812-.299.982-.17.17-.465.298-.98.298H3.34c-.517 0-.813-.129-.982-.298-.17-.17-.299-.466-.299-.982V8.532c.825.312 1.674.56 2.539.738a.5.5 0 0 0 .202-.98 15.72 15.72 0 0 1-2.74-.833V6.01c0-.516.128-.812.298-.981.17-.17.465-.299.981-.299h9.34c.516 0 .812.129.982.299.17.17.298.465.298.981Zm-6.984.52a2.03 2.03 0 0 1 .534-.219v-.08a.5.5 0 1 1 1 0v.07c.362.09.758.3 1.043.752a.5.5 0 0 1-.846.534c-.164-.26-.413-.338-.674-.347-.125.001-.364.04-.544.148a.469.469 0 0 0-.175.167.473.473 0 0 0-.046.288v.002a.435.435 0 0 0 .216.344c.148.1.362.168.598.208.284.047.699.137 1.055.356.381.235.707.63.723 1.233.025.874-.615 1.433-1.35 1.595a.5.5 0 0 1-1 0c-.507-.103-.949-.37-1.207-.887a.5.5 0 1 1 .894-.448c.115.23.343.384.843.384h.007c.55.008.822-.315.813-.615v-.002c-.005-.196-.089-.31-.247-.408-.184-.114-.439-.179-.695-.222-.304-.05-.675-.151-.992-.364a1.432 1.432 0 0 1-.654-1.083c-.03-.33.03-.623.17-.872.139-.245.337-.416.534-.534Z" clip-rule="evenodd"/>
</svg>