<svg xmlns="http://www.w3.org/2000/svg" fill="none" viewBox="0 0 16 16">
  <path fill="currentColor" fill-rule="evenodd" d="M3.34 1.5a.5.5 0 1 0 0 1h9.34a.5.5 0 0 0 0-1H3.34Zm-.98 4.419c-.17.17-.3.465-.3.981v2.22c0 .516.13.812.3.981.169.17.464.299.98.299h9.34c.517 0 .812-.129.982-.299.17-.17.298-.465.298-.981V6.9c0-.516-.128-.812-.298-.981-.17-.17-.465-.299-.982-.299H3.34c-.516 0-.811.129-.98.299Zm-.708-.708c.423-.423 1.018-.591 1.689-.591h9.34c.67 0 1.265.168 1.688.591.424.424.591 1.019.591 1.689v2.22c0 .67-.167 1.265-.59 1.689-.424.423-1.019.591-1.69.591H3.34c-.67 0-1.264-.168-1.688-.591-.424-.424-.591-1.019-.591-1.689V6.9c0-.67.167-1.265.591-1.689Zm1.189 8.809a.5.5 0 0 1 .5-.5h9.34a.5.5 0 0 1 0 1H3.34a.5.5 0 0 1-.5-.5Z" clip-rule="evenodd"/>
</svg>