<svg xmlns="http://www.w3.org/2000/svg" fill="none" viewBox="0 0 16 16">
  <path fill="currentColor" d="M12 13a.5.5 0 0 1 0 1H4a.5.5 0 0 1 0-1h8Zm.344-8.5c.644 0 1.214.182 1.614.628.39.436.542 1.04.542 1.72v2.304c0 .68-.152 1.285-.542 1.72-.4.446-.97.628-1.614.628H3.656c-.644 0-1.214-.182-1.614-.628-.39-.435-.542-1.04-.542-1.72V6.848c0-.68.152-1.284.542-1.72.4-.446.97-.628 1.614-.628h8.688Zm-8.688 1c-.46 0-.718.126-.87.296-.161.18-.286.5-.286 1.052v2.304c0 .552.125.872.286 1.052.152.17.41.296.87.296h8.688c.46 0 .718-.126.87-.296.161-.18.286-.5.286-1.052V6.848c0-.552-.125-.872-.286-1.052-.152-.17-.41-.296-.87-.296H3.656ZM12 2a.5.5 0 0 1 0 1H4a.5.5 0 0 1 0-1h8Z"/>
</svg>