<svg xmlns="http://www.w3.org/2000/svg" fill="none" viewBox="0 0 16 16">
  <path fill="currentColor" d="M6.5 14a.5.5 0 0 1 0 1h-4a.5.5 0 0 1 0-1h4Zm7 0a.5.5 0 0 1 0 1h-4a.5.5 0 0 1 0-1h4Zm-1-13A2.5 2.5 0 0 1 15 3.5v5a2.5 2.5 0 0 1-2.5 2.5h-4v2.5a.5.5 0 0 1-1 0V11h-4A2.5 2.5 0 0 1 1 8.5v-5A2.5 2.5 0 0 1 3.5 1h9Zm-9 1A1.5 1.5 0 0 0 2 3.5v5A1.5 1.5 0 0 0 3.5 10h9A1.5 1.5 0 0 0 14 8.5v-5A1.5 1.5 0 0 0 12.5 2h-9Zm2 2a.5.5 0 0 1 .5.5v3a.5.5 0 0 1-1 0v-3a.5.5 0 0 1 .5-.5Zm5 0a.5.5 0 0 1 .5.5v3a.5.5 0 0 1-1 0v-3a.5.5 0 0 1 .5-.5Z"/>
</svg>