<svg xmlns="http://www.w3.org/2000/svg" fill="none" viewBox="0 0 16 16">
  <path fill="currentColor" fill-rule="evenodd" d="M5.549 1.5h4.922a2.28 2.28 0 0 1 2.037 1.268l1.008 2.033c.396.42.554.999.554 1.649v5.34c0 .67-.168 1.265-.591 1.689-.424.423-1.019.591-1.689.591H4.23c-.67 0-1.265-.168-1.689-.591-.423-.424-.591-1.019-.591-1.689V6.45c0-.65.158-1.229.553-1.65l1.009-2.032A2.28 2.28 0 0 1 5.549 1.5Zm.002 1H7.51v1.67H4.23c-.103 0-.204.004-.303.012l.48-.97h.001A1.28 1.28 0 0 1 5.551 2.5ZM3.118 5.812a.498.498 0 0 1-.12.156c-.03.134-.048.294-.048.482v5.34c0 .516.129.812.298.981.17.17.466.299.982.299h7.56c.516 0 .812-.129.981-.299.17-.17.299-.465.299-.981V6.45c0-.188-.017-.348-.047-.482a.497.497 0 0 1-.12-.156l-.202-.406c-.178-.138-.46-.236-.911-.236H8.51v2.17a.5.5 0 0 1-1 0V5.17H4.23c-.45 0-.733.098-.91.236l-.202.406ZM11.79 4.17c.103 0 .204.004.303.012l-.48-.97h-.001a1.28 1.28 0 0 0-1.143-.712H8.51v1.67h3.28Zm-7.12 6.68a.5.5 0 0 0 0 1h1.78a.5.5 0 1 0 0-1H4.67Z" clip-rule="evenodd"/>
</svg>