<svg xmlns="http://www.w3.org/2000/svg" fill="none" viewBox="0 0 16 16">
  <path fill="currentColor" d="M6 1a.5.5 0 0 1 0 1h-.5A1.5 1.5 0 0 0 4 3.5V6c0 .82-.397 1.544-1.006 2A2.493 2.493 0 0 1 4 10v2.5A1.5 1.5 0 0 0 5.5 14H6a.5.5 0 0 1 0 1h-.5A2.5 2.5 0 0 1 3 12.5V10a1.5 1.5 0 0 0-1.5-1.5.5.5 0 0 1 0-1A1.5 1.5 0 0 0 3 6V3.5A2.5 2.5 0 0 1 5.5 1H6Zm4.5 0A2.5 2.5 0 0 1 13 3.5V6a1.5 1.5 0 0 0 1.5 1.5.5.5 0 0 1 0 1A1.5 1.5 0 0 0 13 10v2.5a2.5 2.5 0 0 1-2.5 2.5H10a.5.5 0 0 1 0-1h.5a1.5 1.5 0 0 0 1.5-1.5V10c0-.82.396-1.544 1.005-2A2.493 2.493 0 0 1 12 6V3.5A1.5 1.5 0 0 0 10.5 2H10a.5.5 0 0 1 0-1h.5Z"/>
</svg>