<svg xmlns="http://www.w3.org/2000/svg" fill="none" viewBox="0 0 16 16">
  <path fill="currentColor" d="M11.5 1A2.5 2.5 0 0 1 14 3.5v9a2.5 2.5 0 0 1-2.5 2.5h-7A2.5 2.5 0 0 1 2 12.5v-9A2.5 2.5 0 0 1 4.5 1h7Zm-7 1A1.5 1.5 0 0 0 3 3.5v9A1.5 1.5 0 0 0 4.5 14h7a1.5 1.5 0 0 0 1.5-1.5v-9A1.5 1.5 0 0 0 11.5 2h-7Zm1 9.5a.5.5 0 0 1 0 1h-1a.5.5 0 0 1 0-1h1Zm3 0a.5.5 0 0 1 0 1h-1a.5.5 0 0 1 0-1h1Zm2.5-2a.5.5 0 0 1 .5.5v2a.5.5 0 0 1-1 0v-2a.5.5 0 0 1 .5-.5Zm-5.5 0a.5.5 0 0 1 0 1h-1a.5.5 0 0 1 0-1h1Zm3 0a.5.5 0 0 1 0 1h-1a.5.5 0 0 1 0-1h1Zm-3-2a.5.5 0 0 1 0 1h-1a.5.5 0 0 1 0-1h1Zm3 0a.5.5 0 0 1 0 1h-1a.5.5 0 0 1 0-1h1Zm3 0a.5.5 0 0 1 0 1h-1a.5.5 0 0 1 0-1h1ZM11 3a1 1 0 0 1 1 1v1a1 1 0 0 1-1 1H5a1 1 0 0 1-1-1V4a1 1 0 0 1 1-1h6ZM5 5h6V4H5v1Z"/>
</svg>