<svg xmlns="http://www.w3.org/2000/svg" fill="none" viewBox="0 0 20 20">
  <path stroke="currentColor" stroke-width="1.1" d="M4 13V7c0-1.886 0-2.828.586-3.414C5.172 3 6.114 3 8 3h4.5c1.405 0 2.107 0 2.611.337a2 2 0 0 1 .552.552C16 4.393 16 5.096 16 6.499V13c0 1.886 0 2.829-.586 3.414C14.828 17 13.886 17 12 17H8c-1.886 0-2.828 0-3.414-.585C4 15.827 4 14.883 4 12.998Z"/>
  <path fill="currentColor" fill-rule="evenodd" d="M7 10a.75.75 0 1 0 0-1.5.75.75 0 0 0 0 1.5Zm.75 1.75a.75.75 0 1 1-1.5 0 .75.75 0 0 1 1.5 0Zm3 0a.75.75 0 1 1-1.5 0 .75.75 0 0 1 1.5 0Zm2.25.75a.75.75 0 1 0 0-1.5.75.75 0 0 0 0 1.5Zm-5.25 1.75a.75.75 0 1 1-1.5 0 .75.75 0 0 1 1.5 0ZM10 15a.75.75 0 1 0 0-1.5.75.75 0 0 0 0 1.5Zm3.75-.75a.75.75 0 1 1-1.5 0 .75.75 0 0 1 1.5 0Zm-3-5a.75.75 0 1 1-1.5 0 .75.75 0 0 1 1.5 0ZM13 10a.75.75 0 1 0 0-1.5.75.75 0 0 0 0 1.5Z" clip-rule="evenodd"/>
  <rect width="7.5" height="1.5" x="6.25" y="5" fill="currentColor" rx=".75"/>
</svg>