<svg xmlns="http://www.w3.org/2000/svg" fill="none" viewBox="0 0 16 16">
  <path fill="currentColor" d="M12 9.5a2.5 2.5 0 0 1 2.085 3.878l1.268 1.268a.5.5 0 1 1-.707.707l-1.268-1.268a2.498 2.498 0 0 1-3.146-3.853A2.5 2.5 0 0 1 12 9.5ZM11 1a.5.5 0 0 1 .5.5V2A2.5 2.5 0 0 1 14 4.5V8a.5.5 0 0 1-1 0V6.5H3v5A1.5 1.5 0 0 0 4.5 13H8a.5.5 0 0 1 0 1H4.5A2.5 2.5 0 0 1 2 11.5v-7A2.5 2.5 0 0 1 4.5 2v-.5a.5.5 0 0 1 1 0V2h5v-.5A.5.5 0 0 1 11 1Zm1 9.5a1.5 1.5 0 1 0 0 2.999 1.5 1.5 0 0 0 0-2.999Zm-6.5-7a.5.5 0 0 1-1 0V3A1.5 1.5 0 0 0 3 4.5v1h10v-1A1.5 1.5 0 0 0 11.5 3v.5a.5.5 0 0 1-1 0V3h-5v.5Z"/>
</svg>