<svg xmlns="http://www.w3.org/2000/svg" fill="none" viewBox="0 0 16 16">
  <path fill="currentColor" fill-rule="evenodd" d="M5.62.67a.5.5 0 0 0-1 0v1.28h-.84A2.28 2.28 0 0 0 1.5 4.23V11.79a2.28 2.28 0 0 0 2.28 2.28h4.31a.5.5 0 1 0 0-1H3.78a1.28 1.28 0 0 1-1.28-1.28V6.06h11.02v2.26a.5.5 0 0 0 1 0V4.23a2.28 2.28 0 0 0-2.28-2.28h-.84V.67a.5.5 0 0 0-1 0v1.28H5.62V.67ZM3.78 2.95h8.46a1.28 1.28 0 0 1 1.28 1.28v.83H2.5v-.83a1.28 1.28 0 0 1 1.28-1.28Zm8.24 6.56a2.505 2.505 0 1 0 1.38 4.596l1.156 1.158a.5.5 0 0 0 .708-.708L14.107 13.4a2.504 2.504 0 0 0-2.087-3.89Zm1.114 3.517a1.505 1.505 0 1 0-.106.106.5.5 0 0 1 .106-.106Z" clip-rule="evenodd"/>
</svg>