<svg xmlns="http://www.w3.org/2000/svg" fill="none" viewBox="0 0 38 38">
  <path stroke="currentColor" stroke-linecap="round" stroke-linejoin="round" stroke-width="2" d="M19 21.639a2.639 2.639 0 1 0 0-5.278 2.639 2.639 0 0 0 0 5.278Z"/>
  <path stroke="currentColor" stroke-linecap="round" stroke-linejoin="round" stroke-width="2" d="M19 27.972A8.973 8.973 0 1 0 10.028 19"/>
  <path fill="currentColor" d="M12.656 26.927a1.583 1.583 0 1 0 0-3.166 1.583 1.583 0 0 0 0 3.166Z"/>
  <path stroke="currentColor" stroke-linecap="round" stroke-linejoin="round" stroke-width="2" d="M24.014 4.552A15.228 15.228 0 0 0 19 3.694C10.547 3.694 3.694 10.547 3.694 19S10.547 34.306 19 34.306 34.306 27.453 34.306 19c0-1.759-.313-3.441-.857-5.014"/>
  <path fill="currentColor" d="M29.824 9.76a1.583 1.583 0 1 0 0-3.167 1.583 1.583 0 0 0 0 3.167Z"/>
</svg>