<svg viewBox="0 0 44 44" fill="none" xmlns="http://www.w3.org/2000/svg">
<path d="M21.96 21.35V29.89" stroke="currentColor" stroke-width="2" stroke-linecap="round" stroke-linejoin="round"/>
<path d="M11.59 14.03V16.47C11.59 17.7643 12.1041 19.0055 13.0193 19.9207C13.9345 20.8359 15.1757 21.35 16.47 21.35H27.45C28.7442 21.35 29.9855 20.8359 30.9006 19.9207C31.8158 19.0055 32.33 17.7643 32.33 16.47V14.03" stroke="currentColor" stroke-width="2" stroke-linecap="round" stroke-linejoin="round"/>
<path d="M11.59 4.27002C10.2957 4.27002 9.05446 4.78416 8.13928 5.69934C7.2241 6.61452 6.70996 7.85576 6.70996 9.15002C6.70996 10.4443 7.2241 11.6855 8.13928 12.6007C9.05446 13.5159 10.2957 14.03 11.59 14.03C12.8842 14.03 14.1255 13.5159 15.0406 12.6007C15.9558 11.6855 16.47 10.4443 16.47 9.15002C16.47 7.85576 15.9558 6.61452 15.0406 5.69934C14.1255 4.78416 12.8842 4.27002 11.59 4.27002Z" stroke="currentColor" stroke-width="2" stroke-linecap="round" stroke-linejoin="round"/>
<path d="M32.33 4.27002C31.0357 4.27002 29.7944 4.78416 28.8793 5.69934C27.9641 6.61452 27.45 7.85576 27.45 9.15002C27.45 10.4443 27.9641 11.6855 28.8793 12.6007C29.7944 13.5159 31.0357 14.03 32.33 14.03C33.6242 14.03 34.8655 13.5159 35.7806 12.6007C36.6958 11.6855 37.2099 10.4443 37.2099 9.15002C37.2099 7.85576 36.6958 6.61452 35.7806 5.69934C34.8655 4.78416 33.6242 4.27002 32.33 4.27002Z" stroke="currentColor" stroke-width="2" stroke-linecap="round" stroke-linejoin="round"/>
<path d="M21.96 29.89C20.6657 29.89 19.4245 30.4042 18.5093 31.3193C17.5941 32.2345 17.08 33.4758 17.08 34.77C17.08 36.0643 17.5941 37.3055 18.5093 38.2207C19.4245 39.1359 20.6657 39.65 21.96 39.65C23.2542 39.65 24.4955 39.1359 25.4106 38.2207C26.3258 37.3055 26.84 36.0643 26.84 34.77C26.84 33.4758 26.3258 32.2345 25.4106 31.3193C24.4955 30.4042 23.2542 29.89 21.96 29.89Z" stroke="currentColor" stroke-width="2" stroke-linecap="round" stroke-linejoin="round"/>
</svg>
