<svg xmlns="http://www.w3.org/2000/svg" fill="none" viewBox="0 0 16 16">
  <path fill="currentColor" d="M9.379 6.621h-.5v.5h.5v-.5ZM6.62 9.38h.5v-.5h-.5v.5Zm7.642-6.935a.5.5 0 1 0-.707-.707l.707.707ZM1.737 13.555a.5.5 0 1 0 .707.708l-.707-.707ZM9.38 1.5h-.5v5.121h1V1.5h-.5Zm0 5.121v.5H14.5v-1H9.379v.5ZM6.62 9.38v-.5H1.5v1h5.121v-.5Zm0 0h-.5V14.5h1V9.379h-.5ZM13.91 2.09l-.354-.354-4.333 4.334.354.353.353.354 4.334-4.334-.354-.353ZM6.424 9.576l-.353-.354-4.334 4.334.354.353.353.354 4.334-4.334-.354-.353Z"/>
</svg>