<svg xmlns="http://www.w3.org/2000/svg" fill="none" viewBox="0 0 16 16">
  <path fill="currentColor" fill-rule="evenodd" d="m7.193 1.871-4.008 1.7a.385.385 0 0 0-.235.359v10.03H6.4V6.9a1.39 1.39 0 0 1 1.39-1.39h4.89a1.39 1.39 0 0 1 1.39 1.39v7.06h.39a.5.5 0 0 1 0 1H1.56a.5.5 0 0 1 0-1h.39V3.93c0-.558.328-1.061.845-1.28l4.01-1.7.004-.002a1.39 1.39 0 0 1 1.921 1.28V3.78a.5.5 0 0 1-1 0V2.23a.39.39 0 0 0-.537-.359ZM13.07 13.96V6.9a.39.39 0 0 0-.39-.39H7.79a.39.39 0 0 0-.39.39v7.06h5.67ZM9.12 8.18a.5.5 0 0 1 .5.5v.44a.5.5 0 0 1-1 0v-.44a.5.5 0 0 1 .5-.5Zm2.73.5a.5.5 0 0 0-1 0v.44a.5.5 0 1 0 1 0v-.44Zm-2.73 2.17a.5.5 0 0 1 .5.5v.44a.5.5 0 0 1-1 0v-.44a.5.5 0 0 1 .5-.5Zm2.73.5a.5.5 0 0 0-1 0v.44a.5.5 0 1 0 1 0v-.44Z" clip-rule="evenodd"/>
</svg>