<svg xmlns="http://www.w3.org/2000/svg" fill="none" viewBox="0 0 16 16">
  <path fill="currentColor" d="M7.586 1.366A1 1 0 0 1 9 2.276V5a.5.5 0 0 1-1 0V2.276L3.793 4.188a.5.5 0 0 0-.293.456V14h3V7.5A1.5 1.5 0 0 1 8 6h4a1.5 1.5 0 0 1 1.5 1.5V14h.5a.5.5 0 0 1 0 1H2a.5.5 0 0 1 0-1h.5V4.644a1.5 1.5 0 0 1 .879-1.366l4.207-1.912ZM8 7a.5.5 0 0 0-.5.5V14h5V7.5A.5.5 0 0 0 12 7H8Zm1 4a.5.5 0 0 1 .5.5v1a.5.5 0 0 1-1 0v-1A.5.5 0 0 1 9 11Zm2 0a.5.5 0 0 1 .5.5v1a.5.5 0 0 1-1 0v-1a.5.5 0 0 1 .5-.5ZM9 8a.5.5 0 0 1 .5.5v1a.5.5 0 0 1-1 0v-1A.5.5 0 0 1 9 8Zm2 0a.5.5 0 0 1 .5.5v1a.5.5 0 0 1-1 0v-1A.5.5 0 0 1 11 8Z"/>
</svg>