<svg viewBox="0 0 16 16" fill="none" xmlns="http://www.w3.org/2000/svg">
<path fill-rule="evenodd" clip-rule="evenodd" d="M7.19262 1.87139L3.18523 3.57029L3.18511 3.57034C3.04203 3.63109 2.94995 3.76841 2.94995 3.93V13.96H6.40002V6.89999C6.40002 6.53134 6.54647 6.17779 6.80715 5.91712C7.06782 5.65644 7.42137 5.50999 7.79002 5.50999H12.68C13.0487 5.50999 13.4022 5.65644 13.6629 5.91712C13.9236 6.17779 14.07 6.53134 14.07 6.89999V13.96H14.4601C14.7362 13.96 14.9601 14.1839 14.9601 14.46C14.9601 14.7361 14.7362 14.96 14.4601 14.96H1.56006C1.28392 14.96 1.06006 14.7361 1.06006 14.46C1.06006 14.1839 1.28392 13.96 1.56006 13.96H1.94995V3.93C1.94995 3.37162 2.27782 2.86898 2.79468 2.64971L2.79479 2.64966L6.80479 0.949656L6.80893 0.947902L6.80894 0.947921C7.01981 0.860753 7.24889 0.826835 7.47597 0.849162C7.70305 0.871489 7.92114 0.949374 8.11099 1.07594C8.30084 1.20251 8.45661 1.37387 8.56456 1.57489C8.67251 1.77592 8.72931 2.00042 8.72995 2.2286L8.72995 2.23L8.72995 3.78C8.72995 4.05614 8.50609 4.28 8.22995 4.28C7.95381 4.28 7.72995 4.05614 7.72995 3.78V2.23085C7.72968 2.16702 7.71375 2.10423 7.68355 2.04799C7.65326 1.99158 7.60956 1.9435 7.55629 1.90799C7.50302 1.87248 7.44183 1.85063 7.37812 1.84436C7.315 1.83816 7.25133 1.84744 7.19262 1.87139ZM13.07 13.96V6.89999C13.07 6.79656 13.0289 6.69736 12.9558 6.62422C12.8827 6.55108 12.7835 6.50999 12.68 6.50999H7.79002C7.68659 6.50999 7.58739 6.55108 7.51425 6.62422C7.44111 6.69736 7.40002 6.79656 7.40002 6.89999V13.96H13.07ZM9.12 8.17999C9.39614 8.17999 9.62 8.40385 9.62 8.67999V9.11999C9.62 9.39613 9.39614 9.61999 9.12 9.61999C8.84385 9.61999 8.62 9.39613 8.62 9.11999V8.67999C8.62 8.40385 8.84385 8.17999 9.12 8.17999ZM11.85 8.67999C11.85 8.40385 11.6261 8.17999 11.35 8.17999C11.0738 8.17999 10.85 8.40385 10.85 8.67999V9.11999C10.85 9.39613 11.0738 9.61999 11.35 9.61999C11.6261 9.61999 11.85 9.39613 11.85 9.11999V8.67999ZM9.12 10.85C9.39614 10.85 9.62 11.0739 9.62 11.35V11.79C9.62 12.0661 9.39614 12.29 9.12 12.29C8.84385 12.29 8.62 12.0661 8.62 11.79V11.35C8.62 11.0739 8.84385 10.85 9.12 10.85ZM11.85 11.35C11.85 11.0739 11.6261 10.85 11.35 10.85C11.0738 10.85 10.85 11.0739 10.85 11.35V11.79C10.85 12.0661 11.0738 12.29 11.35 12.29C11.6261 12.29 11.85 12.0661 11.85 11.79V11.35Z" fill="currentColor"/>
</svg>
