<svg xmlns="http://www.w3.org/2000/svg" fill="none" viewBox="0 0 16 16">
  <path stroke="currentColor" stroke-linecap="round" stroke-linejoin="round" d="M4.222 5.111v5.778M6.889 3.555h4a.89.89 0 0 1 .889.889v1.333M6.889 12.445h4a.89.89 0 0 0 .889-.889v-1.333"/>
  <path stroke="currentColor" stroke-linecap="round" stroke-linejoin="round" d="M6 2H2.444a.89.89 0 0 0-.888.889v1.333c0 .49.398.89.888.89H6a.89.89 0 0 0 .889-.89V2.89A.89.89 0 0 0 6 2ZM6 10.889H2.444a.89.89 0 0 0-.888.889v1.333c0 .49.398.889.888.889H6a.89.89 0 0 0 .889-.89v-1.332a.89.89 0 0 0-.889-.89ZM12.024 5.942l2.532 1.688a.444.444 0 0 1 0 .74l-2.532 1.688c-.149.1-.344.1-.493 0L9 8.37a.444.444 0 0 1 0-.74l2.532-1.688c.15-.1.344-.1.493 0Z"/>
</svg>