<svg xmlns="http://www.w3.org/2000/svg" fill="none" viewBox="0 0 16 16">
  <path fill="currentColor" d="M6 1a1.5 1.5 0 0 1 1.5 1.5V3h3A1.5 1.5 0 0 1 12 4.5v.766l2.82 2.35a.5.5 0 0 1-.029.791c-.656.469-1.046.83-1.45 1.208-.37.345-.753.699-1.341 1.135v.75a1.5 1.5 0 0 1-1.5 1.5h-3v.5A1.5 1.5 0 0 1 6 15H2.5A1.5 1.5 0 0 1 1 13.5v-2A1.5 1.5 0 0 1 2.5 10h1V6h-1A1.5 1.5 0 0 1 1 4.5v-2A1.5 1.5 0 0 1 2.5 1H6ZM2.5 11a.5.5 0 0 0-.5.5v2a.5.5 0 0 0 .5.5H6a.5.5 0 0 0 .5-.5v-2A.5.5 0 0 0 6 11H2.5Zm5-6.5A1.5 1.5 0 0 1 6 6H4.5v4H6a1.5 1.5 0 0 1 1.5 1.5v.5h3a.5.5 0 0 0 .5-.5v-.767l-2.82-2.35a.5.5 0 0 1 0-.767L11 5.266V4.5a.5.5 0 0 0-.5-.5h-3v.5ZM9.28 8l2.237 1.862c.477-.363.806-.663 1.142-.977.302-.282.612-.571 1.035-.906L11.5 6.15 9.28 8ZM2.5 2a.5.5 0 0 0-.5.5v2a.5.5 0 0 0 .5.5H6a.5.5 0 0 0 .5-.5v-2A.5.5 0 0 0 6 2H2.5Z"/>
</svg>