<svg xmlns="http://www.w3.org/2000/svg" fill="none" viewBox="0 0 16 16">
  <g clip-path="url(#a)">
    <path fill="currentColor" d="M6.147 7.025a.5.5 0 1 1 .707.707L5.707 8.878l1.414 1.415 1.06-1.061a.5.5 0 0 1 .708.708L7.829 11l.353.354a1.5 1.5 0 0 1 0 2.12l-.354.354a4 4 0 0 1-5.28.33l-1.194 1.196a.5.5 0 0 1-.707-.707l1.193-1.195a4 4 0 0 1 .332-5.281l.354-.354a1.5 1.5 0 0 1 2.12 0L5 8.171l1.147-1.146Zm-2.207 1.5a.5.5 0 0 0-.707 0l-.354.353a3 3 0 0 0 4.242 4.243l.354-.353a.5.5 0 0 0 0-.707L3.94 8.524ZM14.647.646a.5.5 0 0 1 .707.707l-1.196 1.194a4 4 0 0 1-.33 5.28l-.353.354a1.5 1.5 0 0 1-2.121 0L7.818 4.647a1.5 1.5 0 0 1 0-2.122l.353-.353a4 4 0 0 1 5.28-.331L14.647.647ZM13.12 2.879a3 3 0 0 0-4.243 0l-.353.353a.5.5 0 0 0 0 .708l3.536 3.535a.5.5 0 0 0 .707 0l.353-.354a3 3 0 0 0 0-4.242Z"/>
  </g>
  <defs>
    <clipPath id="a">
      <path fill="#fff" d="M0 0h16v16H0z"/>
    </clipPath>
  </defs>
</svg>