<svg xmlns="http://www.w3.org/2000/svg" fill="none" viewBox="0 0 16 16">
  <path fill="currentColor" fill-rule="evenodd" d="M14.814 1.206a.5.5 0 0 1 0 .708l-1.138 1.138a4.029 4.029 0 0 1-.332 5.322l-.007.007-.247.236a1.39 1.39 0 0 1-1.963-.004l-3.72-3.72a1.39 1.39 0 0 1-.004-1.963l.237-.246.007-.008a4.028 4.028 0 0 1 5.322-.331l1.138-1.139a.5.5 0 0 1 .707 0ZM8.358 3.38l-.237.246-.007.008a.39.39 0 0 0 0 .552l3.72 3.72a.39.39 0 0 0 .553 0l.007-.007.246-.236A3.028 3.028 0 0 0 8.358 3.38ZM7.035 6.768a.5.5 0 0 1-.002.707l-1.04 1.031 1.521 1.52 1.032-1.038a.5.5 0 0 1 .71.704L8.22 10.734l.393.392a1.39 1.39 0 0 1 .004 1.964l-.237.246-.007.008a4.028 4.028 0 0 1-5.321.331l-1.139 1.139a.5.5 0 0 1-.707-.707l1.138-1.139a4.028 4.028 0 0 1 .332-5.322l.007-.007.247-.236a1.39 1.39 0 0 1 1.963.004l.393.392 1.041-1.034a.5.5 0 0 1 .707.003Zm-3.124 1.23a.39.39 0 0 0-.277.115l-.007.008-.246.236a3.028 3.028 0 0 0 4.283 4.283l.236-.246.007-.008a.39.39 0 0 0 0-.552l-3.72-3.72a.39.39 0 0 0-.276-.115Z" clip-rule="evenodd"/>
</svg>