<svg xmlns="http://www.w3.org/2000/svg" fill="none" viewBox="0 0 20 20">
  <path stroke="currentColor" stroke-linejoin="round" stroke-width="1.1" d="M15.1 8.27V6.641a2 2 0 0 0-1.133-1.802L11.5 3.654m3.6 4.615-2.133.82a2 2 0 0 0-1.171 1.212l-.296.853m3.6-2.885L17.5 10m-6-6.346-3.141-.755a2 2 0 0 0-2.314 1.176L5.5 5.385m6-1.731L9.963 5.5a2 2 0 0 1-2.148.626L5.5 5.385m0 0-.481.185a2 2 0 0 0-.86 3.096l.141.18m3 0h-3m0 0-.757 2.91a2 2 0 0 0 1.192 2.36l1.407.565a2 2 0 0 1 .9.716l.65.939a2 2 0 0 0 2.174.789l2.834-.779m0 0 1.011-2.916a2 2 0 0 1 .64-.906L17.5 10m-4.8 6.346-2.4-1.442m2.4 1.442 2.518-.807a2 2 0 0 0 1.338-1.454L17.5 10"/>
</svg>