<svg xmlns="http://www.w3.org/2000/svg" fill="none" viewBox="0 0 16 16">
  <path fill="currentColor" d="M4.35 2.096a1.5 1.5 0 0 1 1.736-.883l3.33.801.1.036 2.554 1.228c.52.25.85.775.85 1.351v1.615l1.872 1.351a.5.5 0 0 1 .195.518l-.912 3.946c-.12.515-.5.93-1.004 1.09l-2.58.828a.401.401 0 0 1-.019.006l-2.957.812a1.501 1.501 0 0 1-1.63-.591L4.9 12.781a.501.501 0 0 0-.225-.18l-2.024-.81a1.501 1.501 0 0 1-.893-1.77l.756-2.91-.579-.74a1.5 1.5 0 0 1 .645-2.323l1.141-.44.63-1.513Zm3.686 2.705c-.391.47-1.03.656-1.611.47l-2.31-.741-1.177.453a.5.5 0 0 0-.214.774l.58.743H5.66v1H3.446l-.72 2.774a.5.5 0 0 0 .297.59l2.024.81c.272.11.507.297.674.538l.986 1.421c.12.174.34.254.544.197l1.83-.504-1.078-.647.257-.429.257-.428 1.552.931.744-2.144a1.5 1.5 0 0 1 .479-.679l2.383-1.91-1.328-.956-1.914.736a.501.501 0 0 0-.293.303l-.368 1.061-.945-.328.368-1.06c.145-.418.467-.75.879-.91l1.846-.71V4.63a.5.5 0 0 0-.284-.45l-2.2-1.06-1.4 1.682Zm3.882 5.91a.502.502 0 0 0-.16.226l-.618 1.781 1.626-.52a.5.5 0 0 0 .334-.364l.588-2.543-1.77 1.42ZM5.852 2.185a.5.5 0 0 0-.578.294l-.503 1.21 1.96.629c.193.062.406-.001.536-.157l1.135-1.364-2.55-.612Z"/>
</svg>