<svg xmlns="http://www.w3.org/2000/svg" fill="none" viewBox="0 0 20 20">
  <path fill="currentColor" fill-rule="evenodd" d="M4.977 3.92a.565.565 0 0 1 .505-.312H9.45v2.37H3.948L4.977 3.92Zm5.572 2.058v-2.37h3.966c.214 0 .41.12.506.312l1.029 2.058h-5.501Zm-.55 1.1h6.39v7.63a1.68 1.68 0 0 1-1.68 1.682h-9.42a1.68 1.68 0 0 1-1.681-1.681v-7.63h6.39Zm-4.517-4.57c-.63 0-1.207.356-1.49.92L2.567 6.282a.55.55 0 0 0-.058.246v8.18a2.78 2.78 0 0 0 2.78 2.782h9.42a2.78 2.78 0 0 0 2.782-2.781v-8.18a.55.55 0 0 0-.058-.247l-1.427-2.854a1.665 1.665 0 0 0-1.49-.92H5.482Zm2.203 8.04h4.627v-1.1H7.685v1.1Z" clip-rule="evenodd"/>
</svg>