<svg fill="none" xmlns="http://www.w3.org/2000/svg" viewBox="0 0 16 16"><path d="M7.0696 10.1875c.24.25.55.3724.9299.3672.38-.0052.66-.1485.84-.4297l3.3596-5.25-5.0395 3.5c-.27.1875-.4125.474-.4275.8594-.015.3854.0975.7031.3375.9531ZM7.9995 3c.59 0 1.1574.086 1.7024.2578.5449.1719 1.0574.4297 1.5373.7734L10 4.5c-.33-.177-.645-.4115-1-.5-.355-.0885-.64-.1-1-.1-1.3299 0-2.565.626-3.5 1.6-.935.974-1.4256 2.349-1.4256 3.7344 0 .4375.0106.9385.1256 1.3656.115.4271.4499 1.025.6598 1.4h8.2794c.2299-.3958.4949-1.0182.5999-1.4453.105-.4271.2302-.9401.2302-1.3985 0-.375.0157-.802-.0693-1.1562-.085-.3542-.23-.6667-.4-1l.5091-1.125c.3.4896.5374 1.0104.7124 1.5625.175.552.2675 1.125.2775 1.7188.01.5937-.055 1.1614-.195 1.7031a6.6251 6.6251 0 0 1-.6149 1.5468c-.11.1876-.26.3334-.45.4376-.19.1041-.39.1562-.5999.1562H3.8598c-.21 0-.41-.0521-.6-.1562a1.158 1.158 0 0 1-.4499-.4376 6.5212 6.5212 0 0 1-.6-1.4921C2.07 10.388 2 9.8333 2 9.25c0-.8646.1575-1.6745.4725-2.4297.315-.7552.7449-1.4166 1.2898-1.9844.545-.5677 1.1824-1.0156 1.9124-1.3437C6.4047 3.164 7.1796 3 7.9995 3Z" fill="currentColor"/></svg>