<svg xmlns="http://www.w3.org/2000/svg" fill="none" viewBox="0 0 16 16">
  <path fill="currentColor" d="M7.07 10.188c.24.25.55.372.93.367.38-.005.66-.149.84-.43l3.36-5.25-5.04 3.5c-.27.188-.413.474-.428.86-.015.385.098.703.338.953ZM8 3c.59 0 1.157.086 1.702.258.545.172 1.057.43 1.537.773L10 4.5c-.33-.177-.645-.411-1-.5-.355-.088-.64-.1-1-.1-1.33 0-2.565.626-3.5 1.6-.935.974-1.426 2.349-1.426 3.734 0 .438.011.939.126 1.366.115.427.45 1.025.66 1.4h8.28c.23-.396.494-1.018.6-1.445.104-.427.23-.94.23-1.399 0-.375.015-.802-.07-1.156-.085-.354-.23-.667-.4-1l.51-1.125c.3.49.537 1.01.712 1.563a5.99 5.99 0 0 1 .277 1.718 6.35 6.35 0 0 1-.195 1.703 6.625 6.625 0 0 1-.615 1.547c-.11.188-.26.334-.45.438-.19.104-.39.156-.6.156H3.86c-.21 0-.41-.052-.6-.156a1.158 1.158 0 0 1-.45-.438 6.521 6.521 0 0 1-.6-1.492A6.45 6.45 0 0 1 2 9.25c0-.865.158-1.675.472-2.43a6.386 6.386 0 0 1 1.29-1.984 6.078 6.078 0 0 1 1.913-1.344A5.605 5.605 0 0 1 8 3Z"/>
</svg>