<svg xmlns="http://www.w3.org/2000/svg" fill="none" viewBox="0 0 20 20">
  <path fill="currentColor" d="m4.835 15.983.548-.036-.548.036Zm10.33 0-.548-.036.548.036ZM2.5 4.383h-.55v1.1h.55v-1.1Zm15 1.1h.55v-1.1h-.55v1.1ZM8.726 8.985v-.55h-1.1v.55h1.1Zm-1.1 4.46v.55h1.1v-.55h-1.1Zm4.748-4.46v-.55h-1.1v.55h1.1Zm-1.1 4.46v.55h1.1v-.55h-1.1Zm1.334-8.376a.55.55 0 0 0 1.066-.275l-1.066.275Zm-6.282-.275a.55.55 0 1 0 1.066.275l-1.066-.275Zm-2.753.173.713 11.05 1.097-.07L4.67 4.896l-1.097.07Zm2.88 13.082h7.094v-1.1H6.453v1.1Zm9.261-2.032.713-11.05-1.098-.071-.712 11.05 1.097.071Zm.164-11.636H4.122v1.1h11.756v-1.1ZM2.5 5.482h1.622v-1.1H2.5v1.1Zm13.378 0H17.5v-1.1h-1.622v1.1Zm-2.33 12.568c1.144 0 2.093-.89 2.166-2.032l-1.097-.07a1.072 1.072 0 0 1-1.07 1.002v1.1Zm-9.262-2.032a2.172 2.172 0 0 0 2.167 2.032v-1.1a1.072 1.072 0 0 1-1.07-1.003l-1.097.071Zm3.34-7.032v4.46h1.1v-4.46h-1.1Zm3.648 0v4.46h1.1v-4.46h-1.1ZM10 3.05c1.254 0 2.31.858 2.608 2.02l1.066-.275A3.795 3.795 0 0 0 10 1.95v1.1ZM7.392 5.07A2.695 2.695 0 0 1 10 3.05v-1.1a3.795 3.795 0 0 0-3.674 2.845l1.066.275Z"/>
</svg>