<svg xmlns="http://www.w3.org/2000/svg" fill="none" viewBox="0 0 16 16">
  <path fill="currentColor" d="M10.153 1.008A1.5 1.5 0 0 1 11.5 2.5V4h3a.5.5 0 0 1 0 1H13v7.5a2.5 2.5 0 0 1-2.5 2.5h-5A2.5 2.5 0 0 1 3 12.5V5H1.5a.5.5 0 0 1 0-1h3V2.5A1.5 1.5 0 0 1 6 1h4l.153.008ZM4 5v7.5A1.5 1.5 0 0 0 5.5 14h5a1.5 1.5 0 0 0 1.5-1.5V5H4Zm2.5 2a.5.5 0 0 1 .5.5V11a.5.5 0 0 1-1 0V7.5a.5.5 0 0 1 .5-.5Zm3 0a.5.5 0 0 1 .5.5V11a.5.5 0 0 1-1 0V7.5a.5.5 0 0 1 .5-.5ZM6 2a.5.5 0 0 0-.5.5V4h5V2.5a.5.5 0 0 0-.4-.49L10 2H6Z"/>
</svg>