<svg xmlns="http://www.w3.org/2000/svg" fill="none" viewBox="0 0 16 16">
  <path fill="currentColor" d="M14.5 9a.5.5 0 0 1 .5.5v3a2.5 2.5 0 0 1-2.5 2.5h-9A2.5 2.5 0 0 1 1 12.5v-3a.5.5 0 0 1 1 0v3A1.5 1.5 0 0 0 3.5 14h9a1.5 1.5 0 0 0 1.5-1.5v-3a.5.5 0 0 1 .5-.5ZM8.001 1a.5.5 0 0 1 .5.5L8.5 9.184l3.126-3.516a.5.5 0 0 1 .748.664l-4 4.5c-.003.004-.008.006-.012.01a.497.497 0 0 1-.05.046l-.023.018a.478.478 0 0 1-.064.038c-.009.004-.016.01-.025.013a.496.496 0 0 1-.401 0c-.01-.004-.018-.01-.028-.015a.493.493 0 0 1-.06-.035l-.032-.026a.498.498 0 0 1-.042-.04c-.004-.003-.008-.005-.011-.009l-4-4.5a.5.5 0 0 1 .748-.664L7.5 9.185 7.501 1.5a.5.5 0 0 1 .5-.5Z"/>
</svg>