<svg xmlns="http://www.w3.org/2000/svg" fill="none" viewBox="0 0 16 16">
  <path fill="currentColor" fill-rule="evenodd" d="M2.06 3.34c0-.516.129-.812.299-.981.17-.17.465-.299.981-.299h6.23c.516 0 .812.129.982.299.17.17.298.465.298.981v6.23c0 .516-.129.812-.298.981-.17.17-.466.299-.982.299H3.34c-.516 0-.812-.129-.981-.299-.17-.17-.299-.465-.299-.981V3.34Zm1.28-2.28c-.67 0-1.265.168-1.688.591-.424.424-.592 1.019-.592 1.689v6.23c0 .67.168 1.265.592 1.689.423.423 1.018.591 1.688.591h6.23c.67 0 1.265-.168 1.689-.591.423-.424.591-1.019.591-1.689V3.34c0-.67-.168-1.265-.591-1.689-.424-.423-1.018-.591-1.689-.591H3.34Zm10.685 4.207a.5.5 0 0 0-.99.146l.297 2.01-.269 5.568c-.064.02-.13.034-.196.044l-6.16.91a1.28 1.28 0 0 1-1.374-.783.5.5 0 1 0-.926.376 2.28 2.28 0 0 0 2.446 1.397l6.16-.91.05-1.034-.05 1.034a2.279 2.279 0 0 0 1.921-2.6l-.91-6.158Zm-.962 7.724.27-5.568.612 4.15v.003a1.28 1.28 0 0 1-.882 1.415Zm.27-5.568.124-2.578-.125 2.578Z" clip-rule="evenodd"/>
</svg>