<svg xmlns="http://www.w3.org/2000/svg" fill="none" viewBox="0 0 16 16">
  <path fill="currentColor" d="M8.644 13.149a2.215 2.215 0 0 1 3.15-.003 1.225 1.225 0 0 0 1.742 0 .5.5 0 0 1 .707.707 2.226 2.226 0 0 1-3.156 0 1.215 1.215 0 0 0-1.73-.002.5.5 0 0 1-.713-.702Zm1.654-10.733a2.5 2.5 0 0 1 3.536 3.536l-5.975 5.973a4.5 4.5 0 0 1-1.976 1.154l-2.32.645a1 1 0 0 1-1.209-1.3l.807-2.258a4.503 4.503 0 0 1 1.056-1.668l6.08-6.082Zm2.829.707a1.501 1.501 0 0 0-2.122 0L4.924 9.205c-.366.366-.647.81-.821 1.297l-.808 2.258 2.32-.644a3.5 3.5 0 0 0 1.537-.898l5.975-5.973a1.5 1.5 0 0 0 0-2.122Z"/>
</svg>