<svg xmlns="http://www.w3.org/2000/svg" fill="none" viewBox="0 0 16 16">
  <path fill="currentColor" fill-rule="evenodd" d="M11.652 2.07a2.41 2.41 0 0 0-1.686.586l-6.52 6.52c-.286.286-.505.725-.676 1.155-.177.445-.325.946-.444 1.41a21.497 21.497 0 0 0-.363 1.71l-.005.03-.001.007v.003l.493.079-.494-.079a.5.5 0 0 0 .573.573l-.079-.494.079.494h.003l.008-.002.028-.005a20.12 20.12 0 0 0 1.711-.363c.463-.119.964-.267 1.41-.444.43-.17.868-.39 1.155-.677l6.52-6.52.03-.033a2.41 2.41 0 0 0-1.742-3.95Zm-8.358 9.92c-.089.347-.163.68-.219.955.275-.057.608-.13.956-.22.442-.113.898-.25 1.289-.405.406-.16.682-.32.816-.454l6.503-6.502a1.41 1.41 0 0 0-1.983-1.983L4.154 9.883c-.134.134-.293.41-.455.817-.155.39-.291.847-.405 1.29Zm8.18.726a2.214 2.214 0 0 0-3.15.003.5.5 0 1 0 .712.702 1.214 1.214 0 0 1 1.73.002 2.226 2.226 0 0 0 3.158 0 .5.5 0 1 0-.708-.707 1.226 1.226 0 0 1-1.742 0Z" clip-rule="evenodd"/>
</svg>