<svg xmlns="http://www.w3.org/2000/svg" fill="#fff" viewBox="0 0 97 118">
  <g filter="url(#a)">
    <g filter="url(#b)">
      <rect width="57" height="79" x="20" y="18" rx="6"/>
      <rect width="57" height="79" x="20" y="18" fill="currentColor" fill-opacity=".02" rx="6"/>
      <rect width="56.2" height="78.2" x="20.4" y="18.4" stroke="currentColor" stroke-opacity=".6" stroke-width=".8" rx="5.6"/>
    </g>
    <rect width="50.4" height="72.4" x="23.3" y="21.3" stroke="currentColor" stroke-opacity=".2" stroke-width=".6" rx="3.7"/>
    <path stroke="currentColor" stroke-linecap="round" stroke-linejoin="round" d="M32 77.444h-2.667a.889.889 0 0 0-.889.89V81c0 .49.398.889.89.889H32c.49 0 .889-.398.889-.889v-2.667a.889.889 0 0 0-.889-.889ZM38.667 77.444H36a.889.889 0 0 0-.889.89V81c0 .49.398.889.889.889h2.667c.49 0 .889-.398.889-.889v-2.667a.889.889 0 0 0-.89-.889ZM32 84.111h-2.667a.889.889 0 0 0-.889.889v2.667c0 .49.398.889.89.889H32c.49 0 .889-.398.889-.89V85a.889.889 0 0 0-.889-.889Z"/>
    <path fill="currentColor" d="M31.333 79H30v1.333h1.333V79ZM38 79h-1.333v1.333H38V79ZM31.333 85.667H30V87h1.333v-1.333ZM40.222 87.889H38.89v1.333h1.333V87.89ZM38.889 86.556h-1.333v1.333h1.333v-1.333ZM40.222 85.222H38.89v1.334h1.333v-1.334ZM37.556 87.889h-1.778v1.333h1.778V87.89ZM35.778 85.222h-1.334v2.667h1.334v-2.667ZM38.889 83.889h-3.111v1.333h3.11V83.89Z"/>
    <rect width="19" height="2" x="28" y="27" fill="currentColor" rx="1"/>
    <rect width="13" height="2" x="28" y="31" fill="currentColor" fill-opacity=".4" rx="1"/>
    <rect width="5" height="2" x="28" y="35" fill="currentColor" fill-opacity=".4" rx="1"/>
    <rect width="41" height="2" x="28" y="44" fill="currentColor" fill-opacity=".2" rx="1"/>
    <rect width="19" height="2" x="28" y="49" fill="currentColor" rx="1"/>
    <rect width="8" height="2" x="61" y="49" fill="currentColor" fill-opacity=".2" rx="1"/>
    <rect width="5" height="2" x="64" y="54" fill="currentColor" fill-opacity=".2" rx="1"/>
    <rect width="8" height="2" x="61" y="59" fill="currentColor" fill-opacity=".2" rx="1"/>
    <rect width="16" height="2" x="28" y="54" fill="currentColor" rx="1"/>
    <rect width="24" height="2" x="28" y="59" fill="currentColor" rx="1"/>
  </g>
  <defs>
    <filter id="a" width="97" height="119" x="0" y="0" color-interpolation-filters="sRGB" filterUnits="userSpaceOnUse">
      <feFlood flood-opacity="0" result="BackgroundImageFix"/>
      <feColorMatrix in="SourceAlpha" result="hardAlpha" values="0 0 0 0 0 0 0 0 0 0 0 0 0 0 0 0 0 0 127 0"/>
      <feOffset dy="2"/>
      <feGaussianBlur stdDeviation="10"/>
      <feColorMatrix values="0 0 0 0 0.0392157 0 0 0 0 0.0392157 0 0 0 0 0.0392157 0 0 0 0.04 0"/>
      <feBlend in2="BackgroundImageFix" result="effect1_dropShadow_1162_2605"/>
      <feBlend in="SourceGraphic" in2="effect1_dropShadow_1162_2605" result="shape"/>
    </filter>
    <filter id="b" width="97" height="119" x="0" y="-2" color-interpolation-filters="sRGB" filterUnits="userSpaceOnUse">
      <feFlood flood-opacity="0" result="BackgroundImageFix"/>
      <feGaussianBlur in="BackgroundImageFix" stdDeviation="10"/>
      <feComposite in2="SourceAlpha" operator="in" result="effect1_backgroundBlur_1162_2605"/>
      <feBlend in="SourceGraphic" in2="effect1_backgroundBlur_1162_2605" result="shape"/>
    </filter>
  </defs>
</svg>