<svg xmlns="http://www.w3.org/2000/svg" fill="none" viewBox="0 0 97 118">
  <path fill="#fff" stroke="#000" stroke-opacity=".6" stroke-width=".8" d="M71 18.4H26a5.6 5.6 0 0 0-5.6 5.6v67a5.6 5.6 0 0 0 5.6 5.6h45a5.6 5.6 0 0 0 5.6-5.6V24a5.6 5.6 0 0 0-5.6-5.6Z"/>
  <path fill="#fff" stroke="#000" stroke-opacity=".2" stroke-width=".6" d="M70 21.3H27a3.7 3.7 0 0 0-3.7 3.7v65a3.7 3.7 0 0 0 3.7 3.7h43a3.7 3.7 0 0 0 3.7-3.7V25a3.7 3.7 0 0 0-3.7-3.7Z"/>
  <path fill="#fff" stroke="#000" stroke-linecap="round" stroke-linejoin="round" d="M32 77.444h-2.667a.888.888 0 0 0-.889.89V81c0 .49.398.889.89.889H32a.89.89 0 0 0 .889-.889v-2.667a.889.889 0 0 0-.889-.889Zm6.667 0H36a.888.888 0 0 0-.889.89V81c0 .49.398.889.889.889h2.667a.89.89 0 0 0 .889-.889v-2.667a.89.89 0 0 0-.889-.889ZM32 84.111h-2.667a.889.889 0 0 0-.889.889v2.667c0 .49.398.889.89.889H32a.89.89 0 0 0 .889-.89V85a.889.889 0 0 0-.889-.889Z"/>
  <path fill="#000" d="M31.333 79H30v1.333h1.333V79ZM38 79h-1.333v1.333H38V79Zm-6.667 6.667H30V87h1.333v-1.333Zm8.889 2.222H38.89v1.333h1.333V87.89l-.001-.001Zm-1.333-1.333h-1.333v1.333h1.334l-.001-1.333Zm1.333-1.334H38.89l-.001 1.334h1.334l-.001-1.334Zm-2.666 2.667h-1.778v1.333h1.778v-1.333Zm-1.778-2.667h-1.334v2.667h1.334v-2.667Zm3.111-1.333h-3.111v1.333h3.11V83.89l.001-.001ZM46 27H29a1 1 0 1 0 0 2h17a1 1 0 1 0 0-2Z"/>
  <path fill="#000" fill-opacity=".4" d="M40 31H29a1 1 0 1 0 0 2h11a1 1 0 1 0 0-2ZM32 35h-3a1 1 0 1 0 0 2h3a1 1 0 1 0 0-2Z"/>
  <path fill="#000" fill-opacity=".2" d="M68 44H29a1 1 0 1 0 0 2h39a1 1 0 1 0 0-2Z"/>
  <path fill="#000" d="M46 49H29a1 1 0 1 0 0 2h17a1 1 0 1 0 0-2Z"/>
  <path fill="#000" fill-opacity=".2" d="M68 49h-6a1 1 0 1 0 0 2h6a1 1 0 1 0 0-2ZM68 54h-3a1 1 0 1 0 0 2h3a1 1 0 1 0 0-2ZM68 59h-6a1 1 0 1 0 0 2h6a1 1 0 1 0 0-2Z"/>
  <path fill="#000" d="M43 54H29a1 1 0 1 0 0 2h14a1 1 0 1 0 0-2ZM51 59H29a1 1 0 1 0 0 2h22a1 1 0 1 0 0-2Z"/>
</svg>