<svg xmlns="http://www.w3.org/2000/svg" fill="none" viewBox="0 0 16 16">
  <path fill="#fff" fill-opacity=".7" fill-rule="evenodd" d="M2.06 4.67c0-.516.129-.812.299-.981.17-.17.465-.299.981-.299h9.34c.516 0 .812.129.982.299.17.17.298.465.298.981v.155L8.199 8.002a.39.39 0 0 1-.377 0L2.06 4.825V4.67Zm-1 .44V11.35c0 .67.168 1.265.591 1.689.424.423 1.019.591 1.689.591h9.34c.67 0 1.265-.168 1.689-.591.423-.424.591-1.019.591-1.689V4.67c0-.67-.168-1.265-.591-1.689-.424-.423-1.019-.591-1.689-.591H3.34c-.67 0-1.265.168-1.689.591C1.228 3.405 1.06 4 1.06 4.67v.44Zm12.9.857v5.383c0 .516-.129.812-.299.982-.17.17-.465.298-.981.298H3.34c-.516 0-.812-.129-.981-.299-.17-.17-.299-.465-.299-.981V5.967l5.278 2.91a1.39 1.39 0 0 0 1.343 0l5.279-2.91Z" clip-rule="evenodd"/>
</svg>