<svg xmlns="http://www.w3.org/2000/svg" fill="none" viewBox="0 0 16 16">
  <path fill="currentColor" d="M8.232 2.06a2.5 2.5 0 0 1 3.536 0l2.671 2.673a2.5 2.5 0 0 1 0 3.535l-6 6A2.5 2.5 0 0 1 6.672 15h-.774a2.501 2.501 0 0 1-1.869-.839l-2.15-2.42a2.5 2.5 0 0 1 .1-3.428l4.167-4.166L8.232 2.06ZM14.5 14a.5.5 0 0 1 0 1h-4a.5.5 0 0 1 0-1h4ZM2.687 9.02a1.5 1.5 0 0 0-.06 2.057l2.15 2.42A1.5 1.5 0 0 0 5.898 14h.774c.398 0 .78-.158 1.06-.44L11.293 10 6.5 5.207 2.687 9.021Zm8.373-6.252a1.5 1.5 0 0 0-2.12 0L7.206 4.5 12 9.293l1.732-1.732a1.5 1.5 0 0 0 0-2.121l-2.671-2.672Z"/>
</svg>