<svg xmlns="http://www.w3.org/2000/svg" fill="none" viewBox="0 0 16 16">
  <path fill="currentColor" fill-rule="evenodd" d="M9.57 2.34a.83.83 0 0 0-.586.244L6.118 5.45l.355.354L9.57 2.341Zm1.037 7.591 2.86-2.855.001-.001a.83.83 0 0 0 0-1.18l-.001-.001-3.31-3.31a.774.774 0 0 0-.587-.243L6.473 5.804l4.134 4.127Zm.397 1.017 3.168-3.163a1.829 1.829 0 0 0 0-2.6l-3.308-3.309a1.771 1.771 0 0 0-1.294-.535c-.485 0-.95.193-1.293.535L5.06 5.093a.542.542 0 0 0-.007.007L1.847 8.306a1.83 1.83 0 0 0 0 2.587l3.03 3.03a.5.5 0 0 0 .353.147h2.44c.02 0 .04-.001.06-.004a.52.52 0 0 0 .06.004h6.45a.5.5 0 1 0 0-1H8.88l2.039-2.036a.524.524 0 0 0 .086-.086Zm-1.104-.31L5.805 6.55l-3.251 3.636 2.883 2.883h2.026L9.9 10.637ZM5.805 6.55l-.395-.394-2.856 2.856a.83.83 0 0 0 0 1.174L5.805 6.55Z" clip-rule="evenodd"/>
</svg>