<svg xmlns="http://www.w3.org/2000/svg" fill="none" viewBox="0 0 16 16">
  <path fill="currentColor" fill-rule="evenodd" d="M6.967 2.18a4.84 4.84 0 0 1 5.847 5.31.5.5 0 1 0 .992.12A5.84 5.84 0 1 0 3.045 9.983a.5.5 0 0 0 .85-.527A4.84 4.84 0 0 1 6.967 2.18ZM8.51 3.56v.185c.545.108 1.157.432 1.491 1.232a.5.5 0 0 1-.922.385c-.224-.535-.655-.662-1.04-.662-.174 0-.502.05-.754.201a.692.692 0 0 0-.258.251.7.7 0 0 0-.07.427v.003a.682.682 0 0 0 .328.53c.207.14.493.23.802.285.347.061.845.168 1.267.426.45.274.825.73.846 1.432v.003c.025 1.041-.774 1.715-1.69 1.888v.094a.5.5 0 1 1-1 0v-.09a2.25 2.25 0 0 1-.838-.302c-.405-.252-.685-.635-.831-1.125a.5.5 0 0 1 .958-.286c.084.28.224.451.401.562.188.117.46.19.84.19.745 0 1.17-.443 1.16-.906-.01-.296-.144-.47-.367-.606-.25-.153-.587-.236-.92-.295-.37-.065-.815-.19-1.188-.442a1.68 1.68 0 0 1-.763-1.261c-.039-.387.031-.728.192-1.014.158-.283.386-.483.618-.622.241-.144.502-.232.738-.283v-.2a.5.5 0 1 1 1 0Zm4.763 6.933-2.355 2.361a.389.389 0 0 1-.38.095l-.005-.002-5.449-1.5a1.39 1.39 0 0 0-1.358.36l-2.3 2.3a.5.5 0 1 0 .708.706l2.3-2.3a.39.39 0 0 1 .382-.102h.001l5.448 1.5a1.39 1.39 0 0 0 1.355-.345l.004-.003 2.336-2.344v1.91a.5.5 0 1 0 1 0V9.983a.5.5 0 0 0-.505-.5l-3.11.028a.5.5 0 1 0 .01 1l1.918-.017Z" clip-rule="evenodd"/>
</svg>