<svg xmlns="http://www.w3.org/2000/svg" fill="none" viewBox="0 0 16 16">
  <path fill="currentColor" d="M14.5 9.967c.294 0 .533.239.533.533v3a.533.533 0 0 1-1.066 0v-1.862l-2.348 1.677a2.5 2.5 0 0 1-2.243.337l-3.861-1.287a1.5 1.5 0 0 0-1.536.362l-2.125 2.127a.5.5 0 1 1-.708-.707l2.126-2.127a2.5 2.5 0 0 1 2.56-.603l3.86 1.286a1.5 1.5 0 0 0 1.346-.202l2.055-1.468h-1.704a.533.533 0 0 1 0-1.066H14.5ZM8 3a.5.5 0 0 1 .5.5V4h1a.5.5 0 0 1 0 1H7.75a.75.75 0 0 0 0 1.5h.5a1.748 1.748 0 0 1 .25 3.48v.52a.5.5 0 0 1-1 0V10h-1a.5.5 0 0 1 0-1h1.75a.75.75 0 0 0 0-1.5h-.5a1.75 1.75 0 0 1-.25-3.48V3.5A.5.5 0 0 1 8 3Zm0-2c3.29 0 6 2.545 6 5.735 0 .239-.016.475-.046.707a.5.5 0 1 1-.991-.129c.025-.189.037-.382.037-.578C13 4.143 10.785 2 8 2S3 4.143 3 6.735c0 .913.273 1.767.747 2.492a.5.5 0 1 1-.837.546A5.529 5.529 0 0 1 2 6.735C2 3.545 4.71 1 8 1Z"/>
</svg>