<svg xmlns="http://www.w3.org/2000/svg" fill="none" viewBox="0 0 16 16">
  <path fill="currentColor" d="M9.646 12.146a.5.5 0 0 1 .707.708l-2 2a.5.5 0 0 1-.628.064l-.079-.064-2-2a.5.5 0 0 1 .708-.707L8 13.793l1.646-1.646ZM13 5.5A1.5 1.5 0 0 1 14.5 7v2a1.5 1.5 0 0 1-1.5 1.5H3A1.5 1.5 0 0 1 1.5 9V7A1.5 1.5 0 0 1 3 5.5h10Zm-10 1a.5.5 0 0 0-.5.5v2a.5.5 0 0 0 .5.5h10a.5.5 0 0 0 .5-.5V7a.5.5 0 0 0-.5-.5H3Zm4.646-5.353a.5.5 0 0 1 .708 0l2 2a.5.5 0 1 1-.708.707L8 2.207 6.354 3.854a.5.5 0 0 1-.708-.707l2-2Z"/>
</svg>