<svg viewBox="0 0 16 16" fill="none" xmlns="http://www.w3.org/2000/svg">
<path fill-rule="evenodd" clip-rule="evenodd" d="M3.83995 1.56055C3.83995 1.2844 3.61609 1.06055 3.33995 1.06055C3.06381 1.06055 2.83995 1.2844 2.83995 1.56055V2.8798C2.83981 2.88663 2.83981 2.89348 2.83995 2.90035V9.09973C2.83981 9.10662 2.83981 9.11352 2.83995 9.12044V14.4605C2.83995 14.7367 3.06381 14.9605 3.33995 14.9605C3.61609 14.9605 3.83995 14.7367 3.83995 14.4605V9.52166C4.64017 9.38612 5.45787 9.38002 6.26164 9.50438C6.8029 9.59242 7.17539 9.71615 7.54672 9.8444L7.60906 9.86597C7.96603 9.98958 8.34485 10.1208 8.84816 10.2038C9.7796 10.359 11.1294 10.3492 12.8835 9.56723C13.0638 9.48686 13.18 9.30794 13.18 9.11055V2.89055C13.18 2.7144 13.0873 2.55124 12.9359 2.46105C12.7846 2.37087 12.597 2.36696 12.4421 2.45076C10.9498 3.25789 9.85967 3.28041 9.16412 3.17608L9.16133 3.17567C8.70595 3.10999 8.37993 2.98103 7.9789 2.82111L7.97782 2.82068C7.57214 2.65892 7.10648 2.47323 6.43078 2.34887C5.57454 2.19012 4.69958 2.17159 3.83995 2.29273V1.56055ZM3.83995 3.30404V8.50911C4.6931 8.38187 5.56178 8.38399 6.41652 8.51645L6.4201 8.517L6.4201 8.51702C7.04784 8.61896 7.48494 8.7651 7.87319 8.8992L7.92362 8.91663L7.92363 8.91663C8.28574 9.04186 8.5935 9.1483 9.01133 9.21722L9.01215 9.21735C9.71264 9.3341 10.7648 9.35006 12.18 8.77971V3.68733C10.8449 4.25581 9.78509 4.28019 9.01718 4.16523C8.44081 4.08193 8.02061 3.91434 7.62405 3.75619L7.60851 3.74999C7.21201 3.59188 6.82298 3.43782 6.24947 3.3323L6.24878 3.33217C5.45243 3.18448 4.63758 3.1753 3.83995 3.30404Z" fill="currentColor"/>
</svg>