<svg xmlns="http://www.w3.org/2000/svg" fill="none" viewBox="0 0 16 16">
  <path fill="currentColor" fill-rule="evenodd" d="M3.84 1.56a.5.5 0 1 0-1 0V9.1a.51.51 0 0 0 0 .02v5.34a.5.5 0 1 0 1 0V9.523a7.57 7.57 0 0 1 2.422-.018c.54.088.913.212 1.285.34l.062.022c.357.124.736.255 1.24.338.93.155 2.28.145 4.034-.637a.5.5 0 0 0 .297-.456V2.89a.5.5 0 0 0-.738-.44c-1.492.807-2.582.83-3.278.725h-.003C8.706 3.11 8.38 2.98 7.98 2.82h-.001c-.406-.162-.872-.348-1.547-.472a8.05 8.05 0 0 0-2.591-.056V1.56Zm0 1.744v5.205a8.57 8.57 0 0 1 2.577.007l.003.001a8.094 8.094 0 0 1 1.453.382l.05.018c.363.125.67.231 1.088.3h.001c.7.117 1.753.133 3.168-.437V3.687c-1.335.569-2.395.593-3.163.478-.576-.083-.996-.25-1.393-.409L7.61 3.75c-.397-.158-.786-.312-1.36-.418a7.05 7.05 0 0 0-2.409-.028Z" clip-rule="evenodd"/>
</svg>