<svg xmlns="http://www.w3.org/2000/svg" fill="none" viewBox="0 0 16 16">
  <path fill="currentColor" d="M3.5 2a.5.5 0 0 1 .5.5v.484c.406-.1.682-.229 1.095-.36.427-.138.894-.227 1.497-.115H6.59c.687.127 1.225.361 1.688.563.472.206.85.37 1.292.433l.003.001c.453.068.716.14 1.094.113.359-.026.84-.15 1.594-.558A.501.501 0 0 1 13 3.5v6a.501.501 0 0 1-.297.456c-.85.379-1.443.562-1.954.62-.517.06-.92-.015-1.331-.084-.557-.092-1.074-.323-1.54-.522-.482-.207-.94-.393-1.458-.477-.4-.062-.698-.009-1.026.093-.308.095-.773.287-1.285.401A.5.5 0 0 1 4 10V13.5a.5.5 0 0 1-1 0v-11a.5.5 0 0 1 .5-.5Zm2.91 1.492c-.39-.072-.682-.02-1.01.084-.306.098-.775.298-1.293.412A.501.501 0 0 1 4 4v4.984c.41-.102.686-.224 1.098-.351a3.155 3.155 0 0 1 1.261-.152l.218.026.003.001c.652.106 1.21.339 1.691.545.438.187.797.343 1.157.425l.154.03c.428.071.696.117 1.054.076.317-.036.726-.149 1.364-.416V4.292c-.485.2-.89.298-1.26.324-.523.038-.964-.07-1.311-.122-.597-.086-1.095-.307-1.55-.506-.464-.202-.907-.392-1.469-.496Z"/>
</svg>