<svg xmlns="http://www.w3.org/2000/svg" fill="none" viewBox="0 0 21 20">
  <path stroke="currentColor" stroke-width="1.1" d="M3 12.5v-5c0-1.886 0-2.828.586-3.414C4.172 3.5 5.114 3.5 7 3.5h.488c.7 0 1.05 0 1.374.114.324.115.596.335 1.141.776l1.515 1.225c.54.436.809.654 1.129.768l.013.005c.32.112.667.112 1.36.112 1.866 0 2.799 0 3.383.574l.023.023C18 7.681 18 8.614 18 10.48v2.02c0 1.886 0 2.829-.586 3.415-.586.585-1.528.585-3.414.585H7c-1.886 0-2.828 0-3.414-.585C3 15.328 3 14.384 3 12.498Z"/>
</svg>