<svg xmlns="http://www.w3.org/2000/svg" fill="none" viewBox="0 0 16 16">
  <path fill="currentColor" d="M6.817 1.036a.494.494 0 0 1 .46.048c.139.095.217.256.217.417v2.112l3.071-1.358.005-.002a.494.494 0 0 1 .677.466V4.83l3.071-1.36a.47.47 0 0 1 .464.039.51.51 0 0 1 .218.418v8.136a.5.5 0 0 1-.307.463l.001.001-5.507 2.436-.01.005a.554.554 0 0 1-.187.03.454.454 0 0 1-.266-.082.51.51 0 0 1-.218-.418v-2.111l-3.071 1.358-.011.005a.557.557 0 0 1-.187.032.455.455 0 0 1-.266-.084.508.508 0 0 1-.218-.417V11.17l-3.071 1.358-.011.005a.557.557 0 0 1-.187.032.454.454 0 0 1-.27-.085.511.511 0 0 1-.214-.416V3.928c0-.199.115-.374.296-.455v-.001l5.517-2.435.004-.001Zm-4.83 3.218v7.05l2.853-1.255 1.676-.745v-3.67l.079-.035.714-.317.185-.084v4.44a.497.497 0 0 1-.296.456l-1.458.641v1.785l2.853-1.255 1.676-.745V6.851l.079-.035.9-.4v4.44a.496.496 0 0 1-.297.454v.001l-1.458.642v1.785l4.528-2v-7.05L11.17 5.944l-1.676.744v3.662l-.079.035-.714.317-.186.082v-4.43c0-.198.116-.374.298-.455l1.457-.643V3.47L7.416 4.726l-1.676.745v3.67l-.079.035-.714.317-.185.083V5.144c0-.198.114-.374.296-.455l1.458-.642V2.253l-4.529 2Z"/>
</svg>