<svg xmlns="http://www.w3.org/2000/svg" fill="none" viewBox="0 0 16 16">  <path fill="currentColor" d="M8.015 0.995C8.312 0.995 8.61 1.063 8.884 1.199L8.999 1.262L9.024 1.277L14.37 4.844H14.369C14.769 5.089 15.015 5.524 15.015 5.995C15.015 6.741 14.41 7.345 13.664 7.347L13.665 7.348L13.163 7.35V13.995H14.515C14.791 13.995 15.015 14.219 15.015 14.495C15.015 14.771 14.791 14.995 14.515 14.995H1.515C1.238 14.995 1.015 14.771 1.015 14.495C1.015 14.219 1.238 13.995 1.515 13.995H2.832V7.35L2.364 7.348V7.347C1.618 7.345 1.015 6.741 1.015 5.995C1.015 5.524 1.259 5.089 1.659 4.844L7.005 1.277L7.03 1.262C7.334 1.084 7.674 0.995 8.015 0.995ZM3.832 13.995H5.942V7.372L3.832 7.357V13.995ZM8.001 7.387H7.994L6.942 7.379V13.995H9.053V7.379L8.001 7.387ZM10.053 7.372V13.995H12.163V7.357L10.053 7.372ZM8.015 1.995C7.85 1.995 7.685 2.037 7.538 2.123L2.214 5.675C2.206 5.68 2.198 5.685 2.189 5.69C2.081 5.754 2.015 5.87 2.015 5.995C2.015 6.19 2.172 6.348 2.367 6.348H2.371L7.997 6.386L13.658 6.348H13.662C13.857 6.347 14.015 6.19 14.015 5.995C14.015 5.87 13.948 5.754 13.84 5.69C13.831 5.685 13.823 5.68 13.815 5.675L8.486 2.121C8.34 2.037 8.178 1.995 8.015 1.995ZM8.015 3.5C8.567 3.5 9.015 3.948 9.015 4.5C9.015 5.052 8.567 5.5 8.015 5.5C7.463 5.5 7.015 5.052 7.015 4.5C7.015 3.948 7.463 3.5 8.015 3.5Z"/></svg>
