<svg xmlns="http://www.w3.org/2000/svg" fill="none" viewBox="0 0 16 16">
  <g clip-path="url(#a)">
    <path fill="currentColor" d="M6.684 4c.444 0 .865.176 1.178.48.316-.306.738-.479 1.179-.479h1.436c.383 0 .753.13 1.05.366l.123.107.916.883a1.295 1.295 0 0 1 1.22-.862h.741a.5.5 0 0 1 0 1h-.74a.294.294 0 0 0-.295.294v5.412c0 .162.132.294.294.294h.741a.5.5 0 0 1 0 1h-.74a1.294 1.294 0 0 1-1.285-1.139h-1.663a2.1 2.1 0 0 1-.524.385l-2.601 1.345a2.09 2.09 0 0 1-2.588-.548l-.86-1.071-.047-.047a.3.3 0 0 0-.183-.065h-.51a1.294 1.294 0 0 1-1.285 1.14H1.5a.5.5 0 1 1 0-1h.741a.294.294 0 0 0 .294-.294V6.453a.5.5 0 0 1 0-.122V5.79a.294.294 0 0 0-.294-.294H1.5a.5.5 0 0 1 0-1h.741c.557 0 1.03.352 1.212.845l.899-.866v-.001A1.7 1.7 0 0 1 5.526 4zM5.525 5c-.178 0-.35.07-.48.194l-1.482 1.43-.001.001-.027.021v3.71h.501c.393 0 .764.178 1.009.483l.861 1.072c.325.404.889.524 1.349.286l2.6-1.344.109-.065a1.09 1.09 0 0 0 .252-1.57h-.001l-1.017-1.31-1.37.963a1.535 1.535 0 0 1-1.98-2.327l1.315-1.35A.7.7 0 0 0 6.683 5zm3.516.001a.7.7 0 0 0-.389.12l-.106.089-1.982 2.032a.534.534 0 0 0 .689.81L9.5 6.476a.5.5 0 0 1 .574.818l-.057.039.987 1.271.137.199c.293.481.365 1.04.246 1.553h1.104V6.668q-.026-.021-.053-.044l-1.482-1.43a.7.7 0 0 0-.48-.193z"/>
  </g>
  <defs>
    <clipPath id="a">
      <path fill="#fff" d="M0 0h15.995v15.995H0z"/>
    </clipPath>
  </defs>
</svg>