<svg xmlns="http://www.w3.org/2000/svg" fill="none" viewBox="0 0 16 16">
  <path fill="currentColor" fill-rule="evenodd" d="M6.882 1.958a.5.5 0 0 1 .4.583L6.81 5.06h3.503l.505-2.702a.5.5 0 1 1 .983.184l-.47 2.518h2.239a.5.5 0 1 1 0 1h-2.427l-.73 3.9h2.267a.5.5 0 0 1 0 1h-2.453l-.506 2.702a.5.5 0 1 1-.983-.184l.471-2.518H5.707L5.2 13.661a.5.5 0 1 1-.983-.184l.471-2.518H2.45a.5.5 0 1 1 0-1h2.427l.729-3.9H3.34a.5.5 0 1 1 0-1h2.453l.505-2.702a.5.5 0 0 1 .584-.4Zm2.515 8.001.729-3.9H6.623l-.73 3.9h3.504Z" clip-rule="evenodd"/>
</svg>