<svg xmlns="http://www.w3.org/2000/svg" fill="none" viewBox="0 0 16 16">  <path fill="currentColor" fill-rule="evenodd" clip-rule="evenodd" d="M13.922 1.376C14.117 1.181 14.433 1.181 14.629 1.376C14.824 1.571 14.824 1.888 14.629 2.083L12.109 4.602C12.106 4.605 12.103 4.608 12.099 4.612L6.614 10.097C6.612 10.099 6.612 10.101 6.61 10.103C6.608 10.104 6.606 10.105 6.604 10.107L2.077 14.635C1.882 14.83 1.565 14.83 1.37 14.635C1.175 14.44 1.175 14.123 1.37 13.928L3.479 11.818C2.459 10.991 1.756 10.004 1.329 9.25C0.89 8.476 0.89 7.535 1.329 6.761C2.211 5.203 4.329 2.574 8 2.574C9.467 2.574 10.694 2.998 11.69 3.607L13.922 1.376ZM13.377 5.734C13.599 5.571 13.912 5.619 14.075 5.842C14.312 6.166 14.511 6.479 14.671 6.762C15.109 7.536 15.109 8.477 14.671 9.25C13.788 10.808 11.671 13.437 8 13.437C7.609 13.437 7.233 13.407 6.875 13.351C6.602 13.308 6.415 13.052 6.458 12.78C6.5 12.507 6.756 12.321 7.029 12.363C7.336 12.411 7.66 12.437 8 12.437C11.131 12.437 12.985 10.198 13.8 8.758C14.066 8.29 14.065 7.722 13.8 7.254C13.658 7.003 13.481 6.722 13.268 6.432C13.105 6.209 13.154 5.897 13.377 5.734ZM8 3.574C4.868 3.574 3.015 5.814 2.199 7.254C1.934 7.722 1.934 8.289 2.199 8.757C2.596 9.458 3.252 10.367 4.191 11.106L5.58 9.717C5.237 9.233 5.034 8.644 5.034 8.006C5.034 6.368 6.362 5.04 8 5.04C8.637 5.04 9.227 5.244 9.711 5.586L10.957 4.34C10.14 3.883 9.161 3.574 8 3.574ZM8 6.04C6.914 6.04 6.034 6.921 6.034 8.006C6.034 8.367 6.133 8.704 6.302 8.994L8.988 6.309C8.697 6.139 8.36 6.04 8 6.04Z"/></svg>
