<svg xmlns="http://www.w3.org/2000/svg" fill="none" viewBox="0 0 24 24">
  <path fill="currentColor" d="M17.38 14.363a.65.65 0 0 1 0 1.274l-.13.013H6.75a.65.65 0 0 1 0-1.3h10.5l.13.013ZM17.38 11.363a.65.65 0 0 1 0 1.274l-.13.013H6.75a.65.65 0 0 1 0-1.3h10.5l.13.013ZM17.38 8.363a.65.65 0 0 1 0 1.274l-.13.013H15a.65.65 0 0 1 0-1.3h2.25l.13.013Z"/>
  <path fill="currentColor" fill-rule="evenodd" d="M18.518 4.6c1.751 0 3.132 1.463 3.132 3.221v8.358c0 1.758-1.38 3.221-3.132 3.221H5.482c-1.751 0-3.132-1.463-3.132-3.221V7.82C2.35 6.063 3.73 4.6 5.482 4.6h13.036ZM5.482 5.9c-.99 0-1.832.838-1.832 1.921v8.358c0 1.083.841 1.92 1.832 1.92h13.036c.99 0 1.831-.837 1.832-1.92V7.82c0-1.083-.841-1.92-1.832-1.92H5.482Z" clip-rule="evenodd"/>
</svg>