<svg xmlns="http://www.w3.org/2000/svg" fill="none" viewBox="0 0 25 24">
  <path fill="currentColor" d="M8.751 12c1.165 0 2.25.632 2.833 1.65.155.27.191.596.097.892-.095.295-.31.54-.592.67-.776.359-1.557.538-2.338.538-.781 0-1.562-.18-2.338-.538a1.114 1.114 0 0 1-.592-.67 1.117 1.117 0 0 1 .097-.893A3.275 3.275 0 0 1 8.751 12ZM17.13 12.863a.65.65 0 0 1 0 1.274l-.13.013h-3a.65.65 0 0 1 0-1.3h3l.13.013ZM8.75 8.244a1.563 1.563 0 1 1 0 3.125 1.563 1.563 0 0 1 0-3.125ZM18.62 9.86a.65.65 0 0 1 .022 1.273l-.131.016-4.284.072a.65.65 0 0 1-.02-1.301l4.282-.071.131.011Z"/>
  <path fill="currentColor" fill-rule="evenodd" d="M19.018 4.6c1.751 0 3.132 1.463 3.132 3.221v8.358c0 1.758-1.38 3.221-3.132 3.221H5.982c-1.751 0-3.132-1.463-3.132-3.221V7.82C2.85 6.063 4.23 4.6 5.982 4.6h13.036ZM5.982 5.9c-.99 0-1.832.838-1.832 1.921v8.358c0 1.083.841 1.92 1.832 1.92h13.036c.99 0 1.831-.837 1.832-1.92V7.82c0-1.083-.841-1.92-1.832-1.92H5.982Z" clip-rule="evenodd"/>
</svg>