<svg xmlns="http://www.w3.org/2000/svg" fill="none" viewBox="0 0 16 16">
  <path fill="currentColor" d="M12.5 3A2.5 2.5 0 0 1 15 5.5v5a2.5 2.5 0 0 1-2.5 2.5h-9A2.5 2.5 0 0 1 1 10.5v-5A2.5 2.5 0 0 1 3.5 3h9Zm-9 1A1.5 1.5 0 0 0 2 5.5v5A1.5 1.5 0 0 0 3.5 12h9a1.5 1.5 0 0 0 1.5-1.5v-5A1.5 1.5 0 0 0 12.5 4h-9ZM5 8c.781 0 1.51.505 1.9 1.32.105.216.128.476.065.713a.86.86 0 0 1-.397.536C6.048 10.856 5.524 11 5 11s-1.048-.144-1.568-.43a.858.858 0 0 1-.397-.537A1.047 1.047 0 0 1 3.1 9.32C3.49 8.505 4.219 8 5 8Zm6 1.5a.5.5 0 0 1 0 1H9a.5.5 0 0 1 0-1h2Zm0-2a.5.5 0 0 1 0 1H9a.5.5 0 0 1 0-1h2ZM5 5.25a1 1 0 1 1 0 2 1 1 0 0 1 0-2Zm7 .25a.5.5 0 0 1 0 1H9a.5.5 0 0 1 0-1h3Z"/>
</svg>