<svg xmlns="http://www.w3.org/2000/svg" fill="none" viewBox="0 0 16 16">  <path fill="currentColor" d="M8.024 0.995C9.405 0.995 10.524 2.114 10.524 3.495C10.524 4.704 9.665 5.713 8.524 5.944V7.273H10.927L11.094 7.279C11.922 7.339 12.627 7.842 12.973 8.55C13.094 8.797 12.992 9.097 12.744 9.219C12.496 9.34 12.197 9.237 12.075 8.989C11.893 8.617 11.536 8.349 11.112 8.287L10.927 8.273H5.302C4.596 8.274 4.024 8.846 4.024 9.552V10.045C5.165 10.276 6.024 11.286 6.024 12.495C6.024 13.876 4.905 14.995 3.524 14.995C2.143 14.995 1.024 13.876 1.024 12.495C1.024 11.286 1.883 10.276 3.024 10.045V9.552C3.024 8.293 4.043 7.274 5.302 7.273H7.524V5.944C6.383 5.713 5.524 4.704 5.524 3.495C5.524 2.114 6.643 0.995 8.024 0.995ZM14.171 10.141C14.366 9.946 14.682 9.946 14.878 10.141C15.073 10.337 15.073 10.653 14.878 10.849L13.231 12.495L14.878 14.141C15.073 14.337 15.073 14.653 14.878 14.849C14.683 15.044 14.366 15.043 14.171 14.849L12.524 13.202L10.878 14.849C10.683 15.044 10.366 15.044 10.171 14.849C9.976 14.653 9.975 14.337 10.171 14.141L11.817 12.495L10.171 10.849C9.976 10.653 9.976 10.337 10.171 10.141C10.366 9.947 10.683 9.947 10.878 10.141L12.524 11.788L14.171 10.141ZM3.524 10.995C2.696 10.995 2.024 11.667 2.024 12.495C2.024 13.323 2.696 13.995 3.524 13.995C4.353 13.995 5.024 13.323 5.024 12.495C5.024 11.667 4.353 10.995 3.524 10.995ZM8.024 1.995C7.196 1.995 6.524 2.667 6.524 3.495C6.524 4.323 7.196 4.995 8.024 4.995C8.853 4.995 9.524 4.323 9.524 3.495C9.524 2.667 8.853 1.995 8.024 1.995Z"/></svg>
