<svg xmlns="http://www.w3.org/2000/svg" fill="none" viewBox="0 0 16 16">
  <path fill="currentColor" fill-rule="evenodd" d="M2.95 3.34c0-.516.129-.812.298-.981.17-.17.466-.299.982-.299h7.56c.516 0 .812.129.981.299.17.17.299.465.299.981v9.34c0 .516-.129.812-.299.982-.17.17-.465.298-.981.298H4.23c-.516 0-.812-.129-.982-.299-.17-.17-.298-.465-.298-.98V3.34Zm1.28-2.28c-.67 0-1.265.168-1.689.592-.423.423-.591 1.018-.591 1.688v9.34c0 .67.168 1.265.591 1.689.424.423 1.019.591 1.689.591h7.56c.67 0 1.265-.168 1.689-.591.423-.424.591-1.018.591-1.689V3.34c0-.67-.168-1.265-.591-1.688-.424-.424-1.019-.592-1.689-.592H4.23Zm4.89 4a.5.5 0 0 0 0 1h1.78a.5.5 0 1 0 0-1H9.12Zm-4 2.67a.5.5 0 1 0 0 1h5.78a.5.5 0 1 0 0-1H5.12Zm-.5 3.17a.5.5 0 0 1 .5-.5h5.78a.5.5 0 1 1 0 1H5.12a.5.5 0 0 1-.5-.5Zm.5-7.17a.5.5 0 0 0-.5.5v1.33a.5.5 0 0 0 .5.5h1.33a.5.5 0 0 0 .5-.5V4.23a.5.5 0 0 0-.5-.5H5.12Z" clip-rule="evenodd"/>
</svg>