<svg xmlns="http://www.w3.org/2000/svg" fill="none" viewBox="0 0 17 16">
  <path fill="currentColor" d="M3.187 2.854A.5.5 0 0 1 3.54 2h7.293l2.147 2.146a.5.5 0 0 1-.354.854H5.333L3.187 2.854Z"/>
  <path fill="currentColor" d="M5.333 6h7.5a.5.5 0 1 1 0 1H6.937a.25.25 0 0 0-.177.427L7.333 8h3.5l2.147 2.146a.5.5 0 0 1-.354.854H5.333L3.187 8.854A.5.5 0 0 1 3.54 8h1.793l2 2h3.897a.25.25 0 0 0 .177-.427L10.833 9h-3.5L2.937 4.604a.354.354 0 1 1 .5-.5L5.333 6Z"/>
  <path fill="currentColor" d="M5.333 13h7.5a.5.5 0 1 0 0-1h-7.5l-1.896-1.896a.354.354 0 1 0-.5.5L5.333 13Z"/>
</svg>