<svg xmlns="http://www.w3.org/2000/svg" fill="none" viewBox="0 0 16 16">
  <path fill="currentColor" d="M2.064 11.765c.058 0 .115.02.16.058l2.018 1.701c.1.084.225.13.354.13h9.382a.25.25 0 0 1 .16.059l.375.316a.55.55 0 0 1-.354.971H4.596a.55.55 0 0 1-.354-.13l-2.533-2.135a.55.55 0 0 1 .355-.97Zm0-8.074c.058 0 .115.02.16.058l2.018 1.702c.1.084.225.13.354.13h9.382c.059 0 .116.02.16.058l.375.317a.55.55 0 0 1-.354.97h-7.49a.247.247 0 0 0-.16.436l.925.78c.1.084.226.13.356.13h2.996c.058 0 .114.02.16.058l.965.815 2.603 2.193a.55.55 0 0 1-.355.97H4.596a.55.55 0 0 1-.354-.128l-2.533-2.136a.55.55 0 0 1 .354-.97h3.194c.058 0 .114.02.159.058l2.018 1.702c.1.084.226.129.356.129H11a.55.55 0 0 0 .355-.97l-.376-.317a.248.248 0 0 0-.159-.059H7.79a.552.552 0 0 1-.356-.129L4.395 6.927 1.71 4.662a.55.55 0 0 1 .355-.97ZM11.627 1a.55.55 0 0 1 .354.13l2.533 2.135a.55.55 0 0 1-.354.97H4.596a.55.55 0 0 1-.354-.13L1.709 1.971A.55.55 0 0 1 2.064 1h9.563Z"/>
</svg>