<svg width="14" height="16" viewBox="0 0 14 16" fill="none" xmlns="http://www.w3.org/2000/svg">
<path d="M11.2493 0H2.75256C2.02533 -2.72932e-06 1.32777 0.288373 0.812832 0.801898C0.297896 1.31542 0.00760765 2.01219 0.00561523 2.73942V13.2531C0.00561523 13.9816 0.295024 14.6803 0.810176 15.1954C1.32533 15.7106 2.02402 16 2.75256 16H11.2493C11.9778 16 12.6765 15.7106 13.1916 15.1954C13.7068 14.6803 13.9962 13.9816 13.9962 13.2531V2.73942C13.9942 2.01219 13.7039 1.31542 13.189 0.801898C12.6741 0.288373 11.9765 -2.72932e-06 11.2493 0ZM7.00467 11.0028H3.74597C3.54538 11.0028 3.353 10.9231 3.21115 10.7813C3.06931 10.6394 2.98962 10.4471 2.98962 10.2465C2.98962 10.0459 3.06931 9.8535 3.21115 9.71165C3.353 9.56981 3.54538 9.49012 3.74597 9.49012H7.00467C7.20527 9.49012 7.39765 9.56981 7.53949 9.71165C7.68134 9.8535 7.76102 10.0459 7.76102 10.2465C7.76102 10.4471 7.68134 10.6394 7.53949 10.7813C7.39765 10.9231 7.20527 11.0028 7.00467 11.0028ZM10.2559 8H3.74597C3.54637 8 3.35495 7.92071 3.21381 7.77957C3.07268 7.63843 2.99339 7.44701 2.99339 7.24741C2.99339 7.04781 3.07268 6.85639 3.21381 6.71525C3.35495 6.57412 3.54637 6.49483 3.74597 6.49483H10.2559C10.4554 6.49483 10.6469 6.57412 10.788 6.71525C10.9291 6.85639 11.0084 7.04781 11.0084 7.24741C11.0084 7.44701 10.9291 7.63843 10.788 7.77957C10.6469 7.92071 10.4554 8 10.2559 8ZM10.2559 4.99718H3.74597C3.54737 4.99718 3.35691 4.91828 3.21647 4.77785C3.07604 4.63742 2.99715 4.44695 2.99715 4.24835C2.99715 4.04975 3.07604 3.85929 3.21647 3.71886C3.35691 3.57842 3.54737 3.49953 3.74597 3.49953H10.2559C10.4545 3.49953 10.6449 3.57842 10.7853 3.71886C10.9258 3.85929 11.0047 4.04975 11.0047 4.24835C11.0047 4.44695 10.9258 4.63742 10.7853 4.77785C10.6449 4.91828 10.4545 4.99718 10.2559 4.99718Z" fill="currentColor"/>
</svg>
