<svg xmlns="http://www.w3.org/2000/svg" fill="none" viewBox="0 0 16 16">
  <path fill="currentColor" d="M14.5 1a.5.5 0 0 1 .5.5v2.612a.5.5 0 0 1-.146.354l-.858.857a.5.5 0 0 1-.353.147h-1.414v1.413a.5.5 0 0 1-.146.353l-2.782 2.78c.052.249.087.513.087.79a4.194 4.194 0 1 1-4.195-4.194c.277 0 .54.035.788.086l5.554-5.552.075-.062A.502.502 0 0 1 11.89 1H14.5ZM6.492 7.603a.501.501 0 0 1-.482.13 3.168 3.168 0 0 0-.817-.12 3.194 3.194 0 1 0 3.195 3.194c0-.271-.047-.54-.12-.817a.5.5 0 0 1 .128-.482l2.833-2.833V4.97a.5.5 0 0 1 .5-.5h1.707L14 3.905V2h-1.904L6.492 7.603ZM5 10a1 1 0 1 1 0 2 1 1 0 0 1 0-2Z"/>
</svg>