<svg xmlns="http://www.w3.org/2000/svg" fill="none" viewBox="0 0 16 16">
  <path fill="currentColor" d="M12.5 9a.5.5 0 0 1 .5.5v2.396a2.5 2.5 0 0 1-1.958 2.44l-.765.17c-1.5.333-3.054.333-4.554 0l-.765-.17A2.5 2.5 0 0 1 3 11.896V9.5a.5.5 0 0 1 1 0v2.396c0 .703.489 1.312 1.175 1.464l.764.17a9.501 9.501 0 0 0 4.121 0l.765-.17A1.5 1.5 0 0 0 12 11.896V9.5a.5.5 0 0 1 .5-.5ZM7.476 1.235a1.001 1.001 0 0 1 1.048 0l6.238 3.84.007.004.023.017a.493.493 0 0 1 .05.042c.004.003.008.005.011.009l.008.007a.5.5 0 0 1 .047.059l.013.02a.5.5 0 0 1 .064.153l.006.027A.492.492 0 0 1 15 5.5V9a.5.5 0 0 1-1 0V6.395l-5.476 3.37a1.001 1.001 0 0 1-1.048 0L1.93 6.352a1 1 0 0 1 0-1.703l5.546-3.414ZM2.454 5.5 8 8.913 13.546 5.5 8 2.087 2.454 5.5Z"/>
</svg>