<svg xmlns="http://www.w3.org/2000/svg" fill="none" viewBox="0 0 20 20">
  <path fill="currentColor" d="M15.277 11.318c.345 0 .625.28.625.625v3.612c0 .522-.254.964-.598 1.307-.343.341-.807.619-1.33.84-1.05.44-2.455.7-3.975.7s-2.925-.26-3.974-.7c-.523-.221-.987-.499-1.33-.84-.345-.343-.598-.785-.598-1.307v-3.612a.625.625 0 1 1 1.25 0v3.612c0 .09.04.233.23.422.192.19.5.39.933.573.86.363 2.094.601 3.489.601 1.394 0 2.628-.239 3.49-.601.431-.182.741-.383.933-.573.189-.189.23-.331.23-.422v-3.612c0-.345.28-.625.625-.625Zm-5.88-9.335a1.736 1.736 0 0 1 1.398.084L17.83 5.69v.001c.568.293.85.847.849 1.4l-.001.022a1.587 1.587 0 0 1-.102.526 11.8 11.8 0 0 0 .088 4.893.626.626 0 0 1-1.218.281 13.077 13.077 0 0 1-.292-3.989l-6.36 3.276a1.737 1.737 0 0 1-1.59 0v-.001L2.169 8.477c-1.133-.584-1.133-2.203 0-2.787l7.036-3.623.191-.084Zm.825 1.196a.487.487 0 0 0-.446 0L2.741 6.802a.318.318 0 0 0 0 .564l7.035 3.622.001.001a.487.487 0 0 0 .446 0l7.035-3.623.075-.053a.32.32 0 0 0 0-.458l-.075-.053-7.035-3.622h-.002Z"/>
</svg>