<svg xmlns="http://www.w3.org/2000/svg" fill="none" viewBox="0 0 20 20">
  <path fill="currentColor" fill-rule="evenodd" d="M5.05 2.5A2.55 2.55 0 0 0 2.5 5.05v1.346a2.55 2.55 0 0 0 2.55 2.55h9.903a2.55 2.55 0 0 0 2.55-2.55V5.05a2.55 2.55 0 0 0-2.55-2.55H5.05ZM3.6 5.05c0-.8.65-1.45 1.45-1.45h9.903c.8 0 1.45.65 1.45 1.45v1.346c0 .8-.65 1.45-1.45 1.45H5.05c-.8 0-1.45-.65-1.45-1.45V5.05Zm1.45 6.004a2.55 2.55 0 0 0-2.55 2.55v1.346a2.55 2.55 0 0 0 2.55 2.55h9.903a2.55 2.55 0 0 0 2.55-2.55v-1.346a2.55 2.55 0 0 0-2.55-2.55H5.05Zm-1.45 2.55c0-.801.65-1.45 1.45-1.45h9.903c.8 0 1.45.649 1.45 1.45v1.346c0 .8-.65 1.45-1.45 1.45H5.05c-.8 0-1.45-.65-1.45-1.45v-1.346Z" clip-rule="evenodd"/>
</svg>