<svg xmlns="http://www.w3.org/2000/svg" fill="none" viewBox="0 0 16 16" class="animate-spin">  <path fill="currentColor" d="M8 1.5a.5.5 0 0 1 .5.5v2a.5.5 0 0 1-1 0V2a.5.5 0 0 1 .5-.5Zm0 10a.5.5 0 0 1 .5.5v2a.5.5 0 0 1-1 0v-2a.5.5 0 0 1 .5-.5Zm6.5-3.5a.5.5 0 0 1 0 1h-2a.5.5 0 0 1 0-1h2ZM4 8a.5.5 0 0 1-.5.5H1.5a.5.5 0 0 1 0-1h2A.5.5 0 0 1 4 8Zm8.596-4.596a.5.5 0 0 1 0 .707l-1.414 1.414a.5.5 0 1 1-.707-.707l1.414-1.414a.5.5 0 0 1 .707 0ZM5.525 10.475a.5.5 0 0 1 0 .707l-1.414 1.414a.5.5 0 0 1-.707-.707l1.414-1.414a.5.5 0 0 1 .707 0Zm7.071 2.121a.5.5 0 0 1-.707 0l-1.414-1.414a.5.5 0 1 1 .707-.707l1.414 1.414a.5.5 0 0 1 0 .707ZM5.525 5.525a.5.5 0 0 1-.707 0L3.404 4.111a.5.5 0 0 1 .707-.707l1.414 1.414a.5.5 0 0 1 0 .707Z"/></svg>
