<svg xmlns="http://www.w3.org/2000/svg" fill="none" viewBox="0 0 17 16">
  <path fill="currentColor" fill-rule="evenodd" d="M8.68 2.45a.5.5 0 0 1 .5-.5h3.11a2.28 2.28 0 0 1 2.28 2.28v7.56a2.28 2.28 0 0 1-2.28 2.28H9.18a.5.5 0 1 1 0-1h3.11a1.28 1.28 0 0 0 1.28-1.28V4.23a1.28 1.28 0 0 0-1.28-1.28H9.18a.5.5 0 0 1-.5-.5ZM6.414 4.546a.5.5 0 0 1 0 .708L4.156 7.51H9.62a.5.5 0 1 1 0 1H4.154l2.26 2.267a.5.5 0 0 1-.708.706l-3.11-3.12a.498.498 0 0 1 .002-.708l3.108-3.109a.5.5 0 0 1 .707 0Z" clip-rule="evenodd"/>
</svg>