<svg xmlns="http://www.w3.org/2000/svg" fill="none" viewBox="0 0 16 16">
  <path fill="currentColor" d="M6.5 1a.5.5 0 0 1 0 1h-3A1.5 1.5 0 0 0 2 3.5v9A1.5 1.5 0 0 0 3.5 14h3a.5.5 0 0 1 0 1h-3A2.5 2.5 0 0 1 1 12.5v-9A2.5 2.5 0 0 1 3.5 1h3Zm3.168 2.626a.5.5 0 0 1 .664.748L6.814 7.5l7.686.001a.5.5 0 0 1 0 1L6.815 8.5l3.517 3.126a.5.5 0 0 1-.664.748l-4.5-4c-.004-.003-.007-.008-.01-.012a.498.498 0 0 1-.047-.05l-.018-.023a.498.498 0 0 1-.038-.064c-.004-.009-.01-.016-.013-.025a.498.498 0 0 1 0-.401c.004-.01.01-.018.015-.028.01-.02.021-.04.035-.06l.026-.032a.502.502 0 0 1 .04-.042l.01-.011 4.5-4Z"/>
</svg>