<svg xmlns="http://www.w3.org/2000/svg" fill="none" viewBox="0 0 16 16">
  <path fill="currentColor" d="M12.5 1.005a2.5 2.5 0 0 1 2.5 2.5v5.167c0 .662-.263 1.299-.731 1.768l-3.83 3.832a2.5 2.5 0 0 1-1.768.733H3.5a2.5 2.5 0 0 1-2.5-2.5v-9a2.5 2.5 0 0 1 2.5-2.5h9Zm-9 1a1.5 1.5 0 0 0-1.5 1.5v9a1.5 1.5 0 0 0 1.5 1.5h5.17c.113 0 .223-.014.33-.038V10.5A1.5 1.5 0 0 1 10.5 9h3.462c.024-.107.038-.217.038-.328V3.505a1.5 1.5 0 0 0-1.5-1.5h-9Zm7 7.995a.5.5 0 0 0-.5.5v2.797L13.294 10H10.5Zm-4 0a.5.5 0 0 1 0 1h-2a.5.5 0 0 1 0-1h2Zm2-3a.5.5 0 0 1 0 1h-4a.5.5 0 0 1 0-1h4Zm2-3a.5.5 0 0 1 0 1h-6a.5.5 0 0 1 0-1h6Z"/>
</svg>