<svg xmlns="http://www.w3.org/2000/svg" fill="none" viewBox="0 0 16 16">
  <path fill="currentColor" fill-rule="evenodd" d="M2.95 3.34c0-.516.129-.812.298-.981.17-.17.466-.299.982-.299h7.56c.516 0 .812.129.981.299.17.17.299.465.299.981v9.34c0 .516-.129.812-.299.982-.17.17-.465.298-.981.298H4.23c-.516 0-.812-.129-.982-.299-.17-.17-.298-.465-.298-.98V3.34Zm1.28-2.28c-.67 0-1.265.168-1.689.592-.423.423-.591 1.018-.591 1.688v9.34c0 .67.168 1.265.591 1.689.424.423 1.019.591 1.689.591h7.56c.67 0 1.265-.168 1.689-.591.423-.424.591-1.018.591-1.689V3.34c0-.67-.168-1.265-.591-1.688-.424-.424-1.019-.592-1.689-.592H4.23Zm6.254 3.26a.5.5 0 0 0-.768-.64l-2.18 2.616-1.216-1.01a.5.5 0 1 0-.64.769l1.6 1.33a.5.5 0 0 0 .704-.065l2.5-3Z" clip-rule="evenodd"/>
  <path stroke="currentColor" stroke-linecap="round" stroke-linejoin="round" d="M6 9.67 7.6 11l2.5-3"/>
</svg>