<svg xmlns="http://www.w3.org/2000/svg" fill="none" viewBox="0 0 16 16">
  <path fill="currentColor" d="M11.5 1A2.5 2.5 0 0 1 14 3.5v9a2.5 2.5 0 0 1-2.5 2.5h-7A2.5 2.5 0 0 1 2 12.5v-9A2.5 2.5 0 0 1 4.5 1h7Zm-7 1A1.5 1.5 0 0 0 3 3.5v9A1.5 1.5 0 0 0 4.5 14h7a1.5 1.5 0 0 0 1.5-1.5v-9A1.5 1.5 0 0 0 11.5 2h-7Zm5.126 6.668a.5.5 0 0 1 .748.664l-2.667 3a.5.5 0 0 1-.708.04l-1.334-1.2a.5.5 0 0 1 .67-.743l.959.862 2.332-2.623Zm0-5a.5.5 0 0 1 .748.664l-2.667 3a.5.5 0 0 1-.708.04l-1.334-1.2a.5.5 0 0 1 .67-.743l.959.862 2.332-2.623Z"/>
</svg>