<svg xmlns="http://www.w3.org/2000/svg" fill="none" viewBox="0 0 16 16">
  <g clip-path="url(#a)">
    <path fill="currentColor" d="M5.151 7.97c1.312-.26 2.622.268 3.676.631h-.001c.467.159.781.535.932.943.071.195.108.407.107.622l2.802-1.221a1.7 1.7 0 0 1 2.169.694l.08.155a1.7 1.7 0 0 1-.85 2.248l-.005.002-6.134 2.702v-.001a3.046 3.046 0 0 1-2.176.124l-.022-.008-1.823-.678c-.206.48-.683.817-1.238.818H1.5a.5.5 0 0 1 0-1h1.167a.349.349 0 0 0 .348-.35v-.028a.495.495 0 0 1 0-.238V10.9l-.005-.001.005-.024V9.41a.349.349 0 0 0-.347-.349L1.5 9.062a.5.5 0 0 1 0-1h1.167c.49 0 .917.261 1.153.651.306-.357.731-.625 1.331-.744Zm3.35 1.576c-1.161-.4-2.17-.79-3.156-.595-.515.102-.77.345-.943.676-.184.353-.273.794-.387 1.346v2.185l2.04.758.183.05c.43.094.879.048 1.282-.134l.004-.002 6.128-2.699a.7.7 0 0 0 .352-.925v-.001a.7.7 0 0 0-.791-.394l-.141.047-3.991 1.74c-.157.1-.33.173-.51.217a1.69 1.69 0 0 1-1.105-.102l-1.672-.757a.5.5 0 0 1 .412-.912l1.673.76.134.044c.093.021.186.02.276.004l.303-.132a.696.696 0 0 0 .213-.265.76.76 0 0 0 .014-.566c-.067-.183-.188-.298-.315-.342l.16-.473-.163.472ZM10.955.955a3.046 3.046 0 1 1-.002 6.091 3.046 3.046 0 0 1 .002-6.091Zm0 1a2.046 2.046 0 0 0 0 4.09 2.046 2.046 0 0 0 0-4.09Zm0 .909a.5.5 0 0 1 .5.5v1.272a.5.5 0 0 1-1 0V3.364a.5.5 0 0 1 .5-.5Z"/>
  </g>
  <defs>
    <clipPath id="a">
      <path fill="#fff" d="M-.005.005H15.99V16H-.005z"/>
    </clipPath>
  </defs>
</svg>