<svg xmlns="http://www.w3.org/2000/svg" fill="none" viewBox="0 0 16 16">  <path fill="currentColor" d="M12.529 0.995C13.91 0.995 15.029 2.114 15.029 3.495V12.495C15.029 13.876 13.91 14.995 12.529 14.995H3.529C2.149 14.995 1.029 13.876 1.029 12.495V3.495C1.029 2.114 2.149 0.995 3.529 0.995H12.529ZM11.019 8.398C10.453 7.959 9.656 7.979 9.115 8.448L2.885 13.848C3.08 13.941 3.298 13.995 3.529 13.995H12.529C13.358 13.995 14.029 13.323 14.029 12.495V10.739L11.019 8.398ZM3.529 1.995C2.701 1.995 2.029 2.667 2.029 3.495V12.495C2.029 12.727 2.084 12.946 2.178 13.142C2.186 13.134 2.193 13.125 2.202 13.117L8.461 7.693C9.363 6.912 10.691 6.876 11.633 7.608L14.029 9.473V3.495C14.029 2.667 13.358 1.995 12.529 1.995H3.529ZM5.279 3.995C5.97 3.995 6.529 4.555 6.529 5.245C6.529 5.935 5.97 6.495 5.279 6.495C4.589 6.495 4.029 5.935 4.029 5.245C4.029 4.555 4.589 3.995 5.279 3.995Z"/></svg>
