<svg xmlns="http://www.w3.org/2000/svg" fill="none" viewBox="0 0 16 16">
  <path fill="currentColor" d="M7.995 1.005a7 7 0 1 1 0 14 7 7 0 0 1 0-14Zm-3.874 11.58a5.975 5.975 0 0 0 3.874 1.42 5.975 5.975 0 0 0 3.87-1.416L7.99 8.715l-3.869 3.87Zm4.577-4.577 3.874 3.874a5.974 5.974 0 0 0 1.423-3.877 5.975 5.975 0 0 0-1.42-3.874L8.698 8.008ZM3.411 4.135a5.975 5.975 0 0 0-1.416 3.87c0 1.476.534 2.828 1.42 3.873l3.868-3.87-3.872-3.873Zm4.584-2.13a5.976 5.976 0 0 0-3.878 1.422L7.991 7.3l3.877-3.877a5.975 5.975 0 0 0-3.873-1.42Z"/>
</svg>