<svg xmlns="http://www.w3.org/2000/svg" fill="none" viewBox="0 0 16 16">
  <path fill="#d3fcd2" d="M0 0h15.995v15.995H0z"/>
  <path fill="#004235" d="M3.68 10.686c.04 0 .082.015.113.041l1.442 1.215c.07.06.161.093.254.093h6.7q.066 0 .115.042l.269.226a.393.393 0 0 1-.254.693h-6.83a.4.4 0 0 1-.254-.093L3.426 11.38a.393.393 0 0 1 .253-.694m0-5.766c.04 0 .082.014.113.04l1.442 1.217c.07.06.161.093.254.093h6.7q.066 0 .115.04l.269.227a.393.393 0 0 1-.254.693h-5.35a.177.177 0 0 0-.114.312l.661.558c.07.06.16.091.253.091h2.14q.065.002.114.042l.69.581.001.001 1.859 1.567a.393.393 0 0 1-.254.693h-6.83a.4.4 0 0 1-.254-.093L3.426 9.458a.393.393 0 0 1 .253-.693H5.96q.065 0 .114.04l1.442 1.217c.07.06.16.092.253.092h2.294a.393.393 0 0 0 .253-.693l-.269-.227a.18.18 0 0 0-.113-.04H7.77a.4.4 0 0 1-.253-.093l-2.17-1.83-1.92-1.618a.393.393 0 0 1 .253-.693m6.83-1.925c.093 0 .183.033.254.093l1.809 1.524a.393.393 0 0 1-.253.694H5.489a.4.4 0 0 1-.253-.092l-1.81-1.526a.393.393 0 0 1 .254-.693z"/>
</svg>