<svg xmlns="http://www.w3.org/2000/svg" fill="none" viewBox="0 0 16 16">
  <path fill="currentColor" fill-rule="evenodd" d="M2.059 8.01c0-.261.076-.516.219-.735v1.47a1.34 1.34 0 0 1-.22-.735Zm.219-.735v1.47c.87 1.325 2.74 3.426 5.734 3.435 2.989.01 4.847-2.105 5.731-3.435a1.35 1.35 0 0 0 0-1.47c-.87-1.325-2.74-3.426-5.734-3.435-2.988-.01-4.847 2.105-5.731 3.435ZM8.012 2.84c-3.51-.01-5.632 2.474-6.568 3.883l-.001.002a2.34 2.34 0 0 0 0 2.57c.93 1.415 3.06 3.874 6.566 3.885 3.51.01 5.632-2.474 6.568-3.883l.002-.003a2.35 2.35 0 0 0 0-2.568c-.93-1.416-3.06-3.875-6.567-3.886Zm-.001 2.22a2.95 2.95 0 1 0 0 5.9 2.95 2.95 0 0 0 0-5.9ZM6.63 6.63A1.95 1.95 0 1 1 9.39 9.389 1.95 1.95 0 0 1 6.632 6.63Z" clip-rule="evenodd"/>
</svg>