<svg xmlns="http://www.w3.org/2000/svg" fill="none" viewBox="0 0 16 16">
  <path fill="currentColor" d="M2.696 5.097a7.501 7.501 0 0 1 10.607 0l1.49 1.49a2 2 0 0 1 0 2.827l-1.49 1.49a7.501 7.501 0 0 1-10.607 0l-1.49-1.49a2 2 0 0 1 0-2.828l1.49-1.489Zm9.9.707a6.501 6.501 0 0 0-9.193 0l-1.49 1.49a1 1 0 0 0 0 1.413l1.49 1.49a6.502 6.502 0 0 0 9.193 0l1.49-1.49a1 1 0 0 0 0-1.414l-1.49-1.489Zm-4.351-.292A2.504 2.504 0 0 1 10.5 8 2.502 2.502 0 0 1 8 10.5a2.5 2.5 0 0 1 0-5l.245.012ZM8 6.5a1.5 1.5 0 1 0 .147.007L8 6.5Z"/>
</svg>