<svg xmlns="http://www.w3.org/2000/svg" fill="none" viewBox="0 0 16 16">  <path fill="currentColor" d="M8 13.777C8.3681 13.777 8.6669 14.076 8.667 14.444C8.667 14.812 8.3681 15.111 8 15.111C7.6318 15.111 7.333 14.812 7.333 14.444C7.3331 14.076 7.6318 13.777 8 13.777ZM5.5342 13.287C5.9024 13.287 6.2012 13.586 6.2012 13.954C6.201 14.322 5.9023 14.62 5.5342 14.62C5.1662 14.62 4.8683 14.322 4.8682 13.954C4.8682 13.586 5.1661 13.287 5.5342 13.287ZM10.4658 13.287C10.834 13.287 11.1328 13.586 11.1328 13.954C11.1326 14.322 10.8339 14.62 10.4658 14.62C10.0977 14.62 9.799 14.322 9.7988 13.954C9.7988 13.586 10.0976 13.287 10.4658 13.287ZM3.4424 11.891C3.8106 11.891 4.1094 12.189 4.1094 12.557C4.1092 12.926 3.8105 13.224 3.4424 13.224C3.0745 13.223 2.7765 12.925 2.7764 12.557C2.7764 12.189 3.0744 11.891 3.4424 11.891ZM12.5576 11.891C12.9257 11.891 13.2236 12.189 13.2236 12.557C13.2235 12.925 12.9256 13.223 12.5576 13.224C12.1895 13.224 11.8908 12.926 11.8906 12.557C11.8906 12.189 12.1894 11.891 12.5576 11.891ZM8 3.495C10.4853 3.495 12.5 5.51 12.5 7.995C12.5 10.48 10.4853 12.495 8 12.495C5.5147 12.495 3.5 10.48 3.5 7.995C3.5 5.51 5.5147 3.495 8 3.495ZM8 4.495C6.067 4.495 4.5 6.062 4.5 7.995C4.5 9.928 6.067 11.495 8 11.495C9.933 11.495 11.5 9.928 11.5 7.995C11.5 6.062 9.933 4.495 8 4.495ZM2.0459 9.799C2.4141 9.799 2.7129 10.098 2.7129 10.466C2.7129 10.834 2.4141 11.133 2.0459 11.133C1.6779 11.132 1.3799 10.834 1.3799 10.466C1.3799 10.098 1.6779 9.799 2.0459 9.799ZM13.9541 9.799C14.3221 9.799 14.6201 10.098 14.6201 10.466C14.6201 10.834 14.3221 11.133 13.9541 11.133C13.5859 11.133 13.2871 10.834 13.2871 10.466C13.2871 10.098 13.5859 9.799 13.9541 9.799ZM1.5557 7.333C1.9238 7.333 2.2227 7.632 2.2227 8C2.2227 8.368 1.9238 8.667 1.5557 8.667C1.1875 8.667 0.8887 8.368 0.8887 8C0.8887 7.632 1.1875 7.333 1.5557 7.333ZM14.4443 7.333C14.8125 7.333 15.1113 7.632 15.1113 8C15.1113 8.368 14.8125 8.667 14.4443 8.667C14.0762 8.667 13.7783 8.368 13.7783 8C13.7783 7.632 14.0762 7.333 14.4443 7.333ZM2.0459 4.867C2.4141 4.867 2.7129 5.166 2.7129 5.534C2.7129 5.902 2.4141 6.201 2.0459 6.201C1.6779 6.201 1.3799 5.902 1.3799 5.534C1.3799 5.166 1.6779 4.867 2.0459 4.867ZM13.9541 4.867C14.3221 4.867 14.6201 5.166 14.6201 5.534C14.6201 5.902 14.3221 6.201 13.9541 6.201C13.5859 6.201 13.2871 5.902 13.2871 5.534C13.2871 5.166 13.5859 4.867 13.9541 4.867ZM3.4424 2.776C3.8105 2.776 4.1092 3.074 4.1094 3.442C4.1094 3.81 3.8106 4.109 3.4424 4.109C3.0744 4.109 2.7764 3.81 2.7764 3.442C2.7765 3.074 3.0745 2.776 3.4424 2.776ZM12.5576 2.776C12.9256 2.776 13.2235 3.074 13.2236 3.442C13.2236 3.81 12.9257 4.109 12.5576 4.109C12.1894 4.109 11.8906 3.81 11.8906 3.442C11.8908 3.074 12.1895 2.776 12.5576 2.776ZM5.5342 1.38C5.9023 1.38 6.201 1.678 6.2012 2.046C6.2012 2.414 5.9024 2.713 5.5342 2.713C5.1661 2.713 4.8682 2.414 4.8682 2.046C4.8683 1.678 5.1662 1.38 5.5342 1.38ZM10.4658 1.38C10.8339 1.38 11.1326 1.678 11.1328 2.046C11.1328 2.414 10.834 2.713 10.4658 2.713C10.0976 2.713 9.7988 2.414 9.7988 2.046C9.799 1.678 10.0977 1.38 10.4658 1.38ZM8 0.889C8.3681 0.889 8.667 1.187 8.667 1.556C8.6669 1.924 8.3681 2.222 8 2.223C7.6319 2.223 7.3331 1.924 7.333 1.556C7.333 1.187 7.6318 0.889 8 0.889Z"/></svg>
