<svg xmlns="http://www.w3.org/2000/svg" fill="none" viewBox="0 0 20 20">
  <path stroke="currentColor" stroke-width="1.1" d="M3 6.786c0-.947.76-1.715 1.697-1.715h2.755a.214.214 0 0 0 .215-.214C7.667 3.555 8.71 2.5 10 2.5c1.289 0 2.333 1.055 2.333 2.357 0 .118.096.214.215.214h2.755c.937 0 1.697.768 1.697 1.715v1.93a.212.212 0 0 1-.212.213c-1.289 0-2.334 1.055-2.334 2.357 0 1.302 1.045 2.357 2.334 2.357.117 0 .212.095.212.212v1.93c0 .948-.76 1.715-1.697 1.715H4.697A1.706 1.706 0 0 1 3 15.786v-9Z"/>
</svg>