<svg xmlns="http://www.w3.org/2000/svg" fill="none" viewBox="0 0 16 16">
  <path fill="currentColor" d="M8.096 2v-.5.5ZM10 3.905h-.5v.002l.5-.002ZM11.75 4v-.5.5Zm1.75 1.75h.5-.5ZM11.5 9H11h.5Zm0 5.5v.5-.5Zm-7 0v.5-.5Zm-2-8.75H2h.5ZM6 3.905l.5.002v-.002H6ZM7.904 2v-.5.5Zm5.101 8.938.123-.484-.123.484ZM8.095 2v.5c.776 0 1.405.63 1.405 1.405h1A2.405 2.405 0 0 0 8.096 1.5V2ZM10 3.905l-.5.002a.595.595 0 0 0 .596.593v-1c.218 0 .403.176.404.403l-.5.002Zm.096.095v.5h1.654v-1h-1.654V4Zm1.654 0v.5c.69 0 1.25.56 1.25 1.25h1a2.25 2.25 0 0 0-2.25-2.25V4Zm1.75 1.75H13v.75h1v-.75h-.5Zm-.495 1.312-.123-.485A2.501 2.501 0 0 0 11 9h1c0-.7.48-1.289 1.128-1.454l-.123-.484ZM11.5 9H11a2.5 2.5 0 0 0 1.882 2.423l.123-.485.123-.484A1.5 1.5 0 0 1 12 9h-.5Zm2 2.5H13v1h1v-1h-.5Zm0 1H13a1.5 1.5 0 0 1-1.5 1.5v1a2.5 2.5 0 0 0 2.5-2.5h-.5Zm-2 2V14h-7v1h7v-.5Zm-7 0V14A1.5 1.5 0 0 1 3 12.5H2A2.5 2.5 0 0 0 4.5 15v-.5Zm-2-2H3V5.75H2v6.75h.5Zm0-6.75H3c0-.69.56-1.25 1.25-1.25v-1A2.25 2.25 0 0 0 2 5.75h.5ZM4.25 4v.5h1.654v-1H4.25V4Zm1.654 0v.5c.324 0 .595-.261.596-.593L6 3.905l-.5-.002c0-.227.186-.403.404-.403V4ZM6 3.905h.5c0-.776.629-1.405 1.404-1.405v-1A2.405 2.405 0 0 0 5.5 3.905H6ZM7.904 2v.5h.192v-1h-.192V2Zm5.101 8.938-.123.485a.221.221 0 0 1 .104.058c.01.01.013.017.014.019 0 0 0 .001 0 0h1c0-.574-.457-.941-.872-1.046l-.123.484ZM13.5 6.5H13v-.001a.071.071 0 0 1-.014.02.221.221 0 0 1-.104.058l.123.485.123.484c.415-.105.872-.472.872-1.046h-.5Z"/>
</svg>