<svg xmlns="http://www.w3.org/2000/svg" fill="none" viewBox="0 0 16 16">
  <path fill="currentColor" d="M8 1a7 7 0 1 1 0 14A7 7 0 0 1 8 1Zm0 1a6 6 0 1 0 0 12A6 6 0 0 0 8 2Zm.035 8.167c.175 0 .327.066.454.197.13.13.195.285.195.468a.684.684 0 0 1-.324.578.606.606 0 0 1-.325.09.622.622 0 0 1-.458-.193.658.658 0 0 1-.191-.475c0-.182.064-.339.191-.468a.617.617 0 0 1 .458-.197ZM8.2 4.5c.398 0 .747.077 1.045.23.298.152.53.365.694.64.167.27.25.588.25.951a1.9 1.9 0 0 1-.114.675 1.683 1.683 0 0 1-.324.531 2.232 2.232 0 0 1-.5.414c-.183.118-.333.24-.447.368a1.183 1.183 0 0 0-.247.45 1.72 1.72 0 0 0-.044.19c-.045.25-.244.456-.498.456-.259 0-.472-.212-.447-.47a2.66 2.66 0 0 1 .097-.519c.078-.245.188-.443.331-.595.143-.151.315-.29.516-.414.13-.084.247-.18.35-.284.104-.105.186-.226.246-.361.06-.136.091-.287.091-.451a.948.948 0 0 0-.136-.514.92.92 0 0 0-.363-.335 1.108 1.108 0 0 0-.977-.013.914.914 0 0 0-.445.458c-.108.24-.308.454-.571.454-.283 0-.517-.238-.445-.511a1.742 1.742 0 0 1 .942-1.136c.3-.143.633-.214.996-.214Z"/>
</svg>