<svg xmlns="http://www.w3.org/2000/svg" fill="none" viewBox="0 0 16 16">
  <circle cx="8" cy="8" r="6" stroke="currentColor"/>
  <path fill="currentColor" d="M7.375 9.408v-.067c.005-.44.049-.79.131-1.051a1.61 1.61 0 0 1 .363-.632c.156-.161.344-.308.564-.44.142-.09.27-.191.384-.302a1.28 1.28 0 0 0 .27-.384c.066-.144.1-.304.1-.48 0-.21-.05-.392-.15-.546a.994.994 0 0 0-.398-.355 1.164 1.164 0 0 0-.547-.128c-.182 0-.356.038-.522.113a.989.989 0 0 0-.412.356 1.209 1.209 0 0 0-.188.614H5.89c.017-.426.125-.786.324-1.08a1.89 1.89 0 0 1 .788-.67c.33-.152.693-.228 1.09-.228.436 0 .817.082 1.144.245.326.16.58.387.76.678.182.289.273.626.273 1.012 0 .265-.041.505-.124.718a1.78 1.78 0 0 1-.355.564 2.424 2.424 0 0 1-.547.44 2.397 2.397 0 0 0-.49.391 1.243 1.243 0 0 0-.27.48 2.512 2.512 0 0 0-.092.685v.067H7.375Zm.536 2.16a.69.69 0 0 1-.5-.206.688.688 0 0 1-.21-.505c0-.194.07-.36.21-.497.14-.14.306-.21.5-.21a.68.68 0 0 1 .497.21.666.666 0 0 1 .213.497c0 .13-.033.25-.099.359a.735.735 0 0 1-.256.256.677.677 0 0 1-.355.096Z"/>
</svg>