<svg xmlns="http://www.w3.org/2000/svg" fill="none" viewBox="0 0 16 16">
  <path fill="currentColor" fill-rule="evenodd" d="M3.026 3.026c-.021.022-.076.095-.076.314v3.11c0 .22.055.293.076.314.022.022.094.076.314.076h9.34c.22 0 .292-.054.314-.076.021-.021.076-.094.076-.314V3.34c0-.22-.055-.292-.076-.314-.022-.021-.095-.076-.314-.076H3.34c-.22 0-.292.055-.314.076Zm-.707-.707c.275-.275.647-.369 1.021-.369h9.34c.374 0 .746.094 1.021.37.275.274.369.646.369 1.02v3.11c0 .374-.094.746-.369 1.021-.275.275-.647.37-1.021.37H3.34c-.374 0-.746-.095-1.021-.37-.275-.275-.369-.647-.369-1.02V3.34c0-.375.094-.747.369-1.022ZM1.95 10.46a.5.5 0 0 1 .5-.5h11.12a.5.5 0 0 1 0 1H2.45a.5.5 0 0 1-.5-.5Zm.5 2.61a.5.5 0 0 0 0 1h11.12a.5.5 0 0 0 0-1H2.45Z" clip-rule="evenodd"/>
</svg>