<svg xmlns="http://www.w3.org/2000/svg" fill="none" viewBox="0 0 16 16">
  <path fill="currentColor" d="M12.5 1A1.5 1.5 0 0 1 14 2.5v12a.5.5 0 0 1-.8.4l-1.654-1.24-1.192 1.194a.5.5 0 0 1-.654.046L8 13.625 6.3 14.9a.5.5 0 0 1-.6 0L4 13.625l-.7.525-1 .75a.5.5 0 0 1-.8-.4v-12A1.5 1.5 0 0 1 3 1h9.5ZM3 2a.5.5 0 0 0-.5.5v10.999l.2-.15 1-.75.07-.042a.5.5 0 0 1 .53.043L6 13.874 7.7 12.6l.07-.043a.5.5 0 0 1 .53.043l1.653 1.239 1.194-1.193.07-.058a.5.5 0 0 1 .583.012l1.2.899V2.5a.5.5 0 0 0-.5-.5H3Zm6.5 5a.5.5 0 0 1 0 1h-5a.5.5 0 0 1 0-1h5Zm2-3a.5.5 0 0 1 0 1h-7a.5.5 0 0 1 0-1h7Z"/>
</svg>