<svg xmlns="http://www.w3.org/2000/svg" fill="none" viewBox="0 0 16 16">
  <path fill="currentColor" fill-rule="evenodd" d="M2.95 3.34c0-.516.129-.812.298-.981.17-.17.466-.299.982-.299h7.56c.516 0 .812.129.981.299.17.17.299.465.299.981V14h-.363l-1.354-1.354a.5.5 0 0 0-.707 0L9.5 13.793l-1.147-1.146a.5.5 0 0 0-.707 0L6.5 13.793l-1.147-1.146a.5.5 0 0 0-.707 0L3.293 14H2.95V3.34Zm1.28-2.28c-.67 0-1.265.168-1.689.592-.423.423-.591 1.018-.591 1.688V14.5a.5.5 0 0 0 .5.5H3.5a.5.5 0 0 0 .353-.146L5 13.707l1.146 1.147a.5.5 0 0 0 .707 0L8 13.707l1.146 1.147a.5.5 0 0 0 .707 0L11 13.707l1.146 1.147A.5.5 0 0 0 12.5 15h1.07a.5.5 0 0 0 .5-.5V3.34c0-.67-.168-1.265-.591-1.688-.424-.424-1.019-.592-1.689-.592H4.23ZM4.5 5.5A.5.5 0 0 1 5 5h6a.5.5 0 1 1 0 1H5a.5.5 0 0 1-.5-.5Zm.12 2.9a.5.5 0 0 1 .5-.5h5.78a.5.5 0 1 1 0 1H5.12a.5.5 0 0 1-.5-.5Z" clip-rule="evenodd"/>
</svg>