<svg xmlns="http://www.w3.org/2000/svg" fill="none" viewBox="0 0 16 16">
  <path fill="currentColor" fill-rule="evenodd" d="M9.163 1.229a2.95 2.95 0 0 0-1.153-.17 2.95 2.95 0 1 0 0 5.892 2.95 2.95 0 0 0 1.153-5.722Zm-1.969.94c.251-.09.518-.127.784-.11a.5.5 0 0 0 .064 0 1.95 1.95 0 1 1 0 3.892.5.5 0 0 0-.064 0 1.95 1.95 0 0 1-.784-3.781ZM8.01 8.18a6.048 6.048 0 0 0-5.538 3.608v.001c-.443 1.01.112 2.17 1.147 2.498a14.6 14.6 0 0 0 8.78 0c1.044-.326 1.605-1.486 1.148-2.5A6.048 6.048 0 0 0 8.01 8.18Zm-4.09 5.153a.852.852 0 0 1-.532-1.142A5.048 5.048 0 0 1 8.01 9.18a5.048 5.048 0 0 1 4.623 3.012l.001.004a.838.838 0 0 1-.533 1.137H12.1a13.6 13.6 0 0 1-8.18 0Z" clip-rule="evenodd"/>
</svg>