<svg width="16" height="16" viewBox="0 0 16 16" fill="none" xmlns="http://www.w3.org/2000/svg">
<path d="M1.48193 7.85254C1.75763 7.84236 1.98998 8.05827 2.00049 8.33398C2.05823 9.86085 2.69044 11.303 3.76123 12.3584C4.83678 13.4183 6.10879 14 7.73877 14C10.0041 13.9998 12.1099 12.5883 13.0493 10.6289C13.1503 10.4185 13.3833 10.3057 13.6108 10.3574C13.8383 10.4092 14.0004 10.6114 14.0005 10.8447V14.5C14.0004 14.7759 13.7763 14.9997 13.5005 15C13.2244 15 13.0006 14.7761 13.0005 14.5V12.5156C11.7233 14.0168 9.79734 14.9998 7.73877 15C5.82993 15 4.31071 14.3036 3.06006 13.0713C1.80497 11.8345 1.06763 10.1492 1.00049 8.37109C0.99035 8.09537 1.20616 7.86295 1.48193 7.85254ZM8.58838 1.00781C10.2164 1.08729 11.7639 1.76891 12.9409 2.92871C14.1959 4.16543 14.9323 5.85001 14.9995 7.62793C15.0099 7.90386 14.795 8.13604 14.519 8.14648C14.2433 8.15668 14.0109 7.94183 14.0005 7.66602C13.9428 6.13886 13.3099 4.69614 12.2388 3.64062C11.1681 2.58576 9.74215 1.99886 8.26221 2C5.99682 2.0002 3.89004 3.41178 2.95068 5.37109C2.84979 5.58138 2.61662 5.69408 2.38916 5.64258C2.16174 5.5907 1.99954 5.38857 1.99951 5.15527V1.5C1.99951 1.22399 2.22355 1.00021 2.49951 1C2.77565 1 2.99951 1.22386 2.99951 1.5V3.48242C4.27706 1.98191 6.20422 1.00015 8.26221 1L8.58838 1.00781Z" fill="currentColor"/>
</svg>
