<svg xmlns="http://www.w3.org/2000/svg" fill="none" viewBox="0 0 16 16">
  <path fill="currentColor" d="M3.5 9a.5.5 0 0 1 .354.146l2 2a.5.5 0 1 1-.708.707L4 10.707V12.5A1.5 1.5 0 0 0 5.5 14H6a.5.5 0 0 1 0 1h-.5A2.5 2.5 0 0 1 3 12.5v-1.793l-1.146 1.146a.5.5 0 1 1-.708-.707l2-2A.5.5 0 0 1 3.5 9Zm10.153-.992A1.5 1.5 0 0 1 15 9.5v4a1.5 1.5 0 0 1-1.5 1.5h-4a1.5 1.5 0 0 1-1.492-1.347L8 13.5v-4A1.5 1.5 0 0 1 9.5 8h4l.153.008ZM9.5 9a.5.5 0 0 0-.5.5v4l.01.1a.5.5 0 0 0 .49.4h4a.5.5 0 0 0 .5-.5v-4a.5.5 0 0 0-.4-.49L13.5 9h-4Zm-5-8a3.5 3.5 0 1 1 0 7 3.5 3.5 0 0 1 0-7Zm6 0A2.5 2.5 0 0 1 13 3.5v2.293l1.146-1.147a.5.5 0 1 1 .707.708l-2 2a.5.5 0 0 1-.707 0l-2-2a.5.5 0 1 1 .707-.708L12 5.793V3.5A1.5 1.5 0 0 0 10.5 2H10a.5.5 0 0 1 0-1h.5Zm-6 1a2.5 2.5 0 1 0 0 5 2.5 2.5 0 0 0 0-5Z"/>
</svg>