<svg xmlns="http://www.w3.org/2000/svg" fill="none" viewBox="0 0 16 16">
  <g clip-path="url(#a)">
    <path fill="currentColor" d="M6.975 3.516c3.018-2.551 6.3-2.6 7.322-2.544l.298.024.083.018a.5.5 0 0 1 .355.42c.039.324.413 4.146-2.521 7.617l.189 1.055.073.432c.066.432.103.864.036 1.269-.095.584-.396 1.08-.983 1.496l-.005.004-3.054 2.1a.5.5 0 0 1-.75-.59l.003-.008.014-.041a6.462 6.462 0 0 0 .207-.865 8 8 0 0 0 .096-1.738c-.636.279-1.15.434-1.445.515a.5.5 0 0 1-.486-.128l-2.93-2.93a.5.5 0 0 1-.129-.486c.081-.295.236-.809.515-1.445a8 8 0 0 0-1.736.096 6.5 6.5 0 0 0-.866.207l-.04.014-.008.003a.501.501 0 0 1-.591-.75l2.1-3.054.004-.005c.416-.587.912-.887 1.496-.983.54-.088 1.128.006 1.702.11zm-4.56 6.752a.5.5 0 0 1 .451.892c-.495.25-.832.754-.832 1.335v1.5h1.5c.582 0 1.085-.336 1.334-.832a.5.5 0 0 1 .893.45 2.49 2.49 0 0 1-2.227 1.382h-2a.5.5 0 0 1-.5-.5v-2c0-.982.57-1.819 1.382-2.227m9.243-.31a11.5 11.5 0 0 1-2.355 1.728 9 9 0 0 1-.043 2.169l1.995-1.372c.38-.271.519-.538.568-.837.056-.345 0-.766-.106-1.364zm2.406-7.995c-1.108-.031-4.192.146-6.904 2.73a10.47 10.47 0 0 0-2.766 4.431l2.51 2.51c.88-.272 2.744-.994 4.432-2.765 2.586-2.713 2.76-5.8 2.728-6.906m-8.317 2.35c-.598-.107-1.018-.163-1.362-.107-.3.05-.568.187-.84.568L2.175 6.769a9 9 0 0 1 2.168-.044c.409-.738.967-1.556 1.726-2.355zM11 3.995a1 1 0 1 1 0 2 1 1 0 0 1 0-2"/>
  </g>
  <defs>
    <clipPath id="a">
      <path fill="#fff" d="M0 0h15.995v15.995H0z"/>
    </clipPath>
  </defs>
</svg>