<svg width="16" height="16" viewBox="0 0 16 16" fill="none" xmlns="http://www.w3.org/2000/svg">
<path d="M10.0928 1C10.8135 1.00009 11.499 1.31122 11.9736 1.85352L14.3818 4.60547C14.7804 5.06115 15 5.64655 15 6.25195V12.5C15 13.8807 13.8807 15 12.5 15H3.5C2.11929 15 1 13.8807 1 12.5V3.5C1 2.11929 2.11929 1 3.5 1H10.0928ZM3.5 2C2.67157 2 2 2.67157 2 3.5V12.5C2 13.3284 2.67157 14 3.5 14H4V10C4 9.17157 4.67157 8.5 5.5 8.5H10.5C11.3284 8.5 12 9.17157 12 10V14H12.5C13.3284 14 14 13.3284 14 12.5V6.25195C14 5.88862 13.8682 5.53711 13.6289 5.26367L11.2217 2.5127C10.9369 2.18725 10.5252 2.00009 10.0928 2H10V4.5C10 5.32843 9.32843 6 8.5 6H5C4.17157 6 3.5 5.32843 3.5 4.5V2ZM5.5 9.5C5.22386 9.5 5 9.72386 5 10V14H11V10C11 9.72386 10.7761 9.5 10.5 9.5H5.5ZM4.5 4.5C4.5 4.77614 4.72386 5 5 5H8.5C8.77614 5 9 4.77614 9 4.5V2H4.5V4.5Z" fill="currentColor"/>
</svg>
