<svg xmlns="http://www.w3.org/2000/svg" fill="none" viewBox="0 0 16 16">
  <path fill="currentColor" fill-rule="evenodd" d="M3.519 2.558A1.42 1.42 0 0 1 3.92 2.5h.25v.232l-.651-.174Zm0 0-1.31-.35A2.42 2.42 0 0 1 3.92 1.5h6.61c.371 0 .719.142.984.406l2.6 2.6a1.39 1.39 0 0 1 .406.984l-1.141-.304-2.573-2.572a.377.377 0 0 0-.276-.114h-.46v1.804l3.309.882-3.309-.882v.366a1.39 1.39 0 0 1-1.39 1.39H5.56a1.39 1.39 0 0 1-1.39-1.39V2.732l-.652-.174ZM4.17 13.52h-.25A1.42 1.42 0 0 1 2.5 12.1V3.92a1.42 1.42 0 0 1 1.018-1.362l-1.31-.35A2.42 2.42 0 0 0 1.5 3.92v8.18a2.42 2.42 0 0 0 2.42 2.42h8.18a2.42 2.42 0 0 0 2.42-2.42V5.49l-1.14-.303.026.026a.39.39 0 0 1 .114.276V12.1a1.42 1.42 0 0 1-1.42 1.42h-.25V9.57a1.39 1.39 0 0 0-1.39-1.39h-4.9a1.39 1.39 0 0 0-1.39 1.39v3.95Zm1 0h5.68V9.57a.39.39 0 0 0-.39-.39h-4.9a.39.39 0 0 0-.39.39v3.95Zm0-10.522V4.67a.39.39 0 0 0 .39.39h3.12a.39.39 0 0 0 .39-.39v-.632l-3.9-1.04Zm3.9 1.04V2.5h-3.9v.498l3.9 1.04Z" clip-rule="evenodd"/>
</svg>