<svg xmlns="http://www.w3.org/2000/svg" fill="none" viewBox="0 0 16 16">
  <path fill="currentColor" d="M3 2.501a.5.5 0 0 1 .5-.5l9-.001a.5.5 0 0 1 0 1l-9 .001a.5.5 0 0 1-.5-.5Zm.668 6.873a.5.5 0 0 1-.042-.706l4-4.5.01-.01a.5.5 0 0 1 .043-.039.499.499 0 0 1 .093-.062c.009-.004.017-.01.027-.014a.498.498 0 0 1 .401 0l.025.013a.496.496 0 0 1 .064.038l.023.018a.5.5 0 0 1 .05.046c.004.004.009.006.012.01l4 4.5a.5.5 0 0 1-.748.664L8.5 5.816l.001 7.684a.5.5 0 0 1-1 0L7.5 5.815 4.374 9.332a.5.5 0 0 1-.706.042Z"/>
</svg>