<svg viewBox="0 0 16 16" fill="none" xmlns="http://www.w3.org/2000/svg">
<path d="M3 2.50098C2.99999 2.22488 3.22391 2.00104 3.5 2.00098L12.5 2C12.7761 2 12.9999 2.22396 13 2.5C12.9999 2.77602 12.7761 2.99998 12.5 3L3.5 3.00098C3.22401 3.00093 3.00017 2.77695 3 2.50098ZM3.66797 9.37402C3.46166 9.19064 3.44275 8.87437 3.62598 8.66797L7.62598 4.16797C7.62919 4.16436 7.63341 4.16171 7.63672 4.1582C7.64987 4.14424 7.66404 4.13152 7.67871 4.11914C7.68959 4.10999 7.70035 4.10093 7.71191 4.09277C7.73075 4.07943 7.75085 4.0683 7.77148 4.05762C7.7807 4.05287 7.78934 4.04714 7.79883 4.04297C7.86045 4.01582 7.92834 4 8 4C8.07136 4.00001 8.13878 4.01601 8.2002 4.04297C8.20862 4.04666 8.2164 4.05152 8.22461 4.05566C8.24706 4.06704 8.26872 4.07924 8.28906 4.09375C8.29699 4.09939 8.30392 4.1062 8.31152 4.1123C8.3294 4.1267 8.34657 4.14153 8.3623 4.1582C8.36573 4.16183 8.3707 4.16423 8.37402 4.16797L12.374 8.66797C12.5571 8.87432 12.5382 9.19065 12.332 9.37402C12.1257 9.55722 11.8094 9.53823 11.626 9.33203L8.5 5.81641L8.50098 13.5C8.50097 13.776 8.27688 13.9997 8.00098 14C7.72484 14 7.501 13.7761 7.50098 13.5L7.5 5.81543L4.37402 9.33203C4.19068 9.5383 3.87437 9.55712 3.66797 9.37402Z" fill="currentColor"/>
</svg>
