<svg viewBox="0 0 16 16" fill="none" xmlns="http://www.w3.org/2000/svg">
<path fill-rule="evenodd" clip-rule="evenodd" d="M6.89995 1.95C5.58713 1.95 4.32808 2.47151 3.39977 3.39982C2.47147 4.32812 1.94995 5.58718 1.94995 6.9C1.94995 8.21282 2.47147 9.47187 3.39977 10.4002C4.32808 11.3285 5.58713 11.85 6.89995 11.85C8.04504 11.85 9.14921 11.4532 10.0287 10.7358L13.2164 13.9235C13.4117 14.1188 13.7282 14.1188 13.9235 13.9235C14.1188 13.7283 14.1188 13.4117 13.9235 13.2164L10.7358 10.0287C11.4532 9.14926 11.85 8.04508 11.85 6.9C11.85 5.58718 11.3284 4.32812 10.4001 3.39982C9.47182 2.47151 8.21277 1.95 6.89995 1.95ZM9.75685 9.62775C10.4577 8.8938 10.85 7.91712 10.85 6.9C10.85 5.85239 10.4338 4.84769 9.69302 4.10693C8.95225 3.36616 7.94756 2.95 6.89995 2.95C5.85235 2.95 4.84765 3.36616 4.10688 4.10693C3.36611 4.84769 2.94995 5.85239 2.94995 6.9C2.94995 7.9476 3.36611 8.9523 4.10688 9.69307C4.84765 10.4338 5.85235 10.85 6.89995 10.85C7.91708 10.85 8.89376 10.4577 9.6277 9.7569C9.64478 9.7321 9.66434 9.70849 9.68639 9.68644C9.70845 9.66439 9.73205 9.64482 9.75685 9.62775Z" fill="currentColor"/>
</svg>
