<svg xmlns="http://www.w3.org/2000/svg" fill="none" viewBox="0 0 16 16">  <path fill="currentColor" d="M12.5 2C13.8807 2 15 3.119 15 4.5V11.5C15 12.881 13.8807 14 12.5 14H3.5C2.1193 14 1 12.881 1 11.5V4.5C1 3.119 2.1193 2 3.5 2H12.5ZM9.1855 7.93C8.4456 8.328 7.5544 8.328 6.8145 7.93L2 5.337V11.5C2 12.328 2.6716 13 3.5 13H12.5C13.3284 13 14 12.328 14 11.5V5.337L9.1855 7.93ZM3.5 3C2.7691 3 2.1606 3.523 2.0273 4.215L7.2891 7.049C7.733 7.288 8.267 7.288 8.7109 7.049L13.9717 4.215C13.8384 3.523 13.2308 3 12.5 3H3.5Z"/></svg>
