<svg xmlns="http://www.w3.org/2000/svg" fill="none" viewBox="0 0 16 16">
  <path fill="currentColor" fill-rule="evenodd" d="M6.242 6.242a2.5 2.5 0 1 1 3.536 3.536 2.5 2.5 0 0 1-3.536-3.536Zm1.768.268a1.5 1.5 0 1 0 0 3 1.5 1.5 0 0 0 0-3Z" clip-rule="evenodd"/>
  <path stroke="currentColor" stroke-linecap="round" stroke-linejoin="round" d="m13.51 6.48-.83-.29a5.035 5.035 0 0 0-.32-.69 4.98 4.98 0 0 0-.44-.62l.16-.86a1.43 1.43 0 0 0-.69-1.51l-.31-.18a1.43 1.43 0 0 0-1.65.15l-.66.57a5.03 5.03 0 0 0-1.52 0l-.66-.57a1.43 1.43 0 0 0-1.65-.15l-.31.18a1.43 1.43 0 0 0-.7 1.51l.16.85c-.32.4-.57.84-.75 1.32l-.83.29a1.43 1.43 0 0 0-.95 1.35v.36a1.43 1.43 0 0 0 .95 1.35l.83.29c.09.23.19.46.32.69.13.23.28.43.44.62l-.17.86a1.43 1.43 0 0 0 .7 1.51l.31.18a1.43 1.43 0 0 0 1.65-.16l.66-.56a5.017 5.017 0 0 0 1.52 0l.66.57a1.43 1.43 0 0 0 1.65.15l.31-.18a1.43 1.43 0 0 0 .69-1.51l-.16-.86c.32-.4.57-.84.76-1.31l.82-.29a1.43 1.43 0 0 0 .96-1.35v-.36a1.43 1.43 0 0 0-.96-1.35h.01Z"/>
</svg>