<svg xmlns="http://www.w3.org/2000/svg" fill="none" viewBox="0 0 16 16">
  <path fill="currentColor" d="M10.192 1.508c.402-.037.806.053 1.155.258l.31.182A1.948 1.948 0 0 1 12.592 4l-.12.65c.08.106.157.214.23.326l.11.18.008.013c.099.177.187.36.266.546l.622.219c.026.009.052.02.075.033A1.944 1.944 0 0 1 15 7.775v.366a1.942 1.942 0 0 1-1.3 1.839v.001l-.625.222c-.164.37-.362.724-.603 1.056l.12.655a1.959 1.959 0 0 1-.935 2.056v-.001l-.311.182a1.935 1.935 0 0 1-2.242-.205l-.001-.002-.496-.43a5.53 5.53 0 0 1-1.218 0l-.495.424-.001-.002a1.937 1.937 0 0 1-2.238.216l-.313-.183v-.001a1.96 1.96 0 0 1-.945-2.055v-.004l.127-.645a4.257 4.257 0 0 1-.606-1.063l-.627-.22h-.003A1.943 1.943 0 0 1 1 8.14v-.365c0-.401.122-.794.353-1.124.23-.33.557-.58.935-.715l.003-.001.622-.22c.16-.378.362-.735.604-1.068l-.12-.643-.022-.15a1.96 1.96 0 0 1 .97-1.909v.001l.308-.18a1.936 1.936 0 0 1 2.124.11l.119.095.496.431a5.539 5.539 0 0 1 1.214 0l.497-.43.001-.001a1.937 1.937 0 0 1 1.088-.463Zm.091.996a.937.937 0 0 0-.525.224l-.664.577a.501.501 0 0 1-.405.117 4.54 4.54 0 0 0-1.38 0 .5.5 0 0 1-.403-.117l-.664-.577a.938.938 0 0 0-1.083-.1l-.313.184-.004.001a.95.95 0 0 0-.479.858l.017.147v.001l.161.863a.5.5 0 0 1-.1.402c-.29.364-.515.766-.678 1.203a.501.501 0 0 1-.303.297l-.835.292h.001A.945.945 0 0 0 2 7.775v.368a.942.942 0 0 0 .626.897l.834.293.098.047a.501.501 0 0 1 .202.244c.086.222.177.431.292.636.11.197.242.375.391.553a.5.5 0 0 1 .107.418l-.171.867a.963.963 0 0 0 .34.924l.123.081.004.003.31.181a.936.936 0 0 0 1.084-.105l.004-.004.665-.569a.502.502 0 0 1 .402-.113c.456.07.922.07 1.378 0l.11-.005a.502.502 0 0 1 .295.121l.664.577.117.087a.935.935 0 0 0 .966.013l.312-.183h.002a.95.95 0 0 0 .455-1.005v-.004l-.162-.872a.5.5 0 0 1 .1-.402 4.8 4.8 0 0 0 .694-1.204l.05-.094a.5.5 0 0 1 .246-.191l.826-.294h.003a.943.943 0 0 0 .621-.75L14 8.14v-.366a.96.96 0 0 0-.176-.551.943.943 0 0 0-.457-.346l-.031-.015-.796-.279a.5.5 0 0 1-.303-.297 4.645 4.645 0 0 0-.29-.629 4.556 4.556 0 0 0-.392-.556.5.5 0 0 1-.107-.41l.161-.872.001-.003a.949.949 0 0 0-.455-1.005h-.002l-.312-.183v-.001a.936.936 0 0 0-.558-.124ZM8 5.5a2.5 2.5 0 1 1 0 5 2.5 2.5 0 0 1 0-5Zm0 1a1.5 1.5 0 1 0 0 3 1.5 1.5 0 0 0 0-3Z"/>
</svg>