<svg xmlns="http://www.w3.org/2000/svg" fill="none" viewBox="0 0 20 20">
  <path fill="currentColor" fill-rule="evenodd" d="M6.46 3.45h7.08c.909 0 1.647 0 2.228.078.606.082 1.123.257 1.535.67.412.411.588.929.67 1.534.077.582.077 1.32.077 2.228v4.08c0 .909 0 1.647-.078 2.228-.081.606-.257 1.123-.669 1.535-.412.412-.93.588-1.535.67-.581.077-1.319.077-2.228.077H6.46c-.909 0-1.646 0-2.228-.078-.605-.081-1.123-.257-1.535-.669-.412-.412-.587-.93-.669-1.535-.078-.581-.078-1.319-.078-2.228V7.96c0-.909 0-1.646.078-2.228.082-.605.257-1.123.67-1.535.411-.412.929-.587 1.534-.669.582-.078 1.32-.078 2.228-.078ZM4.38 4.62c-.484.065-.73.182-.904.356-.174.174-.291.42-.356.904-.068.5-.069 1.163-.069 2.121v4c0 .959.001 1.622.069 2.121.065.484.182.73.356.904.174.174.42.292.904.357.5.067 1.163.068 2.121.068h1.45V4.55H6.5c-.958 0-1.622.001-2.121.069ZM13.5 15.45H9.05V4.55h4.45c.959 0 1.622.001 2.121.069.484.065.73.182.905.356.173.174.29.42.356.904.067.5.068 1.163.068 2.121v4c0 .959-.001 1.622-.068 2.121-.065.484-.183.73-.357.904-.173.174-.42.292-.903.357-.5.067-1.163.068-2.122.068ZM5 6.25a.25.25 0 0 0-.25.25v1c0 .138.112.25.25.25h1a.25.25 0 0 0 .25-.25v-1A.25.25 0 0 0 6 6.25H5ZM4.75 9.5A.25.25 0 0 1 5 9.25h1a.25.25 0 0 1 .25.25v1a.25.25 0 0 1-.25.25H5a.25.25 0 0 1-.25-.25v-1ZM5 12.25a.25.25 0 0 0-.25.25v1c0 .138.112.25.25.25h1a.25.25 0 0 0 .25-.25v-1a.25.25 0 0 0-.25-.25H5Z" clip-rule="evenodd"/>
</svg>