<svg xmlns="http://www.w3.org/2000/svg" fill="none" viewBox="0 0 20 20">
  <path stroke="currentColor" stroke-linecap="square" stroke-width="1.1" d="M2.5 13.75h15m-15-4.5 1.125 1.125m0 0L4.75 11.5m-1.125-1.125L4.75 9.25m-1.125 1.125L2.5 11.5m15 0h-1.05c-.825 0-.041-1.571-.7-1.923-.7-.375-1.493 3.371-2.101 1.872-.573-1.412-1.309-2.182-2.193-2.263m0 0c-.027-.854-.122-1.634-.259-2.23-.421-1.836-2.2-3.744-3.852-2.62-2.355 1.601-.431 4.818 1.277 6.442m2.834-1.592c.088 2.775-.534 6.317-2.71 6.755-2.836.571-1.755-3.18-.7-4.492.195-.244.387-.467.576-.67m2.834-1.593c-.821-.075-1.77.443-2.834 1.592m.824.67a6.181 6.181 0 0 1-.824-.67"/>
</svg>