<svg xmlns="http://www.w3.org/2000/svg" fill="none" viewBox="0 0 16 16">
  <path fill="currentColor" d="m4.057 1.027-.001.001c.803.095 1.473.618 2.006 1.311.538.7.98 1.63 1.323 2.663v.004l.034-.018c.831-.456 1.786-.722 2.55-.323h.003c.418.219.654.566.79.918.132.337.181.705.217.999.04.325.064.545.119.707a.34.34 0 0 0 .05.104.282.282 0 0 0 .07-.037c.091-.061.193-.161.337-.31.125-.128.295-.31.481-.439.193-.134.485-.272.834-.186.278.068.466.233.593.403.115.154.195.335.247.448.1.218.149.283.183.306l.03.013.018.005c.065.02.122.022.163.016a.114.114 0 0 0 .046-.015.5.5 0 0 1 .707.707c-.338.338-.825.358-1.189.252v.002c-.557-.147-.764-.647-.865-.867a1.583 1.583 0 0 0-.157-.286l-.038.022a2.67 2.67 0 0 0-.335.316c-.129.132-.303.313-.499.444-.203.137-.496.263-.842.184-.46-.105-.677-.454-.782-.763-.095-.284-.13-.636-.163-.904-.037-.3-.076-.551-.156-.758-.075-.192-.174-.317-.323-.396-.292-.151-.836-.109-1.608.315-.074.04-.15.085-.226.132.362 1.412.564 2.985.567 4.503H14.5a.5.5 0 0 1 0 1H8.212c-.009.147-.018.294-.031.44-.042.48-.15 1.143-.445 1.728-.282.56-.755 1.084-1.513 1.262l-.156.031c-1.144.189-2.402-.33-2.949-1.48l-.003-.008c-.285-.625-.366-1.298-.304-1.973H1.5a.5.5 0 1 1 0-1h1.502c.028-.1.055-.198.088-.296.363-1.09 1.023-2.159 1.793-3.065a10.512 10.512 0 0 1 1.636-1.56l-.083-.264c-.321-.97-.72-1.785-1.166-2.366-.45-.586-.904-.878-1.332-.929-.622-.074-1.07.066-1.37.287a1.411 1.411 0 0 0-.55.946c-.113.77.308 1.782 1.542 2.33a.5.5 0 0 1-.407.915c-1.598-.71-2.31-2.13-2.124-3.392a2.41 2.41 0 0 1 .945-1.602c.535-.397 1.25-.577 2.083-.477ZM3.817 11.5c-.065.565-.004 1.09.204 1.551l.068.126c.36.61 1.097.916 1.815.798.443-.073.734-.35.939-.757.211-.42.304-.937.342-1.366v-.002c.01-.116.016-.233.023-.35H3.816Zm2.982-4.867a9.816 9.816 0 0 0-1.153 1.154c-.703.827-1.285 1.78-1.6 2.713H7.24A17.772 17.772 0 0 0 6.8 6.633Z"/>
</svg>