<svg xmlns="http://www.w3.org/2000/svg" fill="none" viewBox="0 0 20 20">
  <path stroke="currentColor" stroke-linecap="square" stroke-width="1.1" d="M6.136 13.864h7.728m3.636.727V5.409c0-1.018 0-1.527-.198-1.916a1.818 1.818 0 0 0-.795-.795c-.389-.198-.898-.198-1.916-.198H5.409c-1.018 0-1.527 0-1.916.198-.342.174-.62.453-.795.795-.198.389-.198.898-.198 1.916v9.182c0 1.018 0 1.527.198 1.916.174.342.453.62.795.795.389.198.898.198 1.916.198h9.182c1.018 0 1.527 0 1.916-.198.342-.174.62-.453.795-.795.198-.389.198-.898.198-1.916Z"/>
</svg>