<svg xmlns="http://www.w3.org/2000/svg" fill="none" viewBox="0 0 16 16">
  <path fill="currentColor" fill-rule="evenodd" d="M5.656 14.374a.5.5 0 0 0 .708 0l2-2a.498.498 0 0 0 0-.707l-2-2.01a.5.5 0 1 0-.708.706l1.151 1.157H5.78a3.73 3.73 0 0 1 0-7.46h1.56a.5.5 0 0 0 0-1H5.78a4.73 4.73 0 0 0 0 9.46h1.023l-1.147 1.146a.5.5 0 0 0 0 .708Zm7.474-.074h-1.784c-.523-.004-1.006-.138-1.355-.486-.35-.35-.481-.832-.481-1.354v-1.784c.004-.52.138-1.001.488-1.348.35-.347.831-.478 1.352-.478h1.78c.52 0 1.003.13 1.351.479.349.348.479.83.479 1.351v1.78c0 .523-.13 1.007-.478 1.357-.348.351-.83.483-1.352.483Zm-2.431-1.194c.097.098.284.191.653.194h1.778c.365 0 .548-.091.643-.187.095-.097.187-.282.187-.653v-1.78c0-.366-.091-.55-.186-.644-.095-.095-.278-.186-.644-.186h-1.78c-.366 0-.55.091-.648.187-.097.096-.189.28-.192.645v1.778c0 .365.091.55.189.646ZM10.51 4.9c0 .365.092.548.187.643.097.095.283.187.653.187h1.78c.366 0 .55-.091.644-.186.095-.095.186-.278.186-.644V3.12c0-.366-.091-.55-.187-.648-.096-.097-.28-.189-.645-.192H11.35c-.365 0-.55.091-.646.189-.098.097-.19.284-.194.653V4.9Zm.84 1.83c-.523 0-1.007-.13-1.357-.478-.351-.348-.483-.83-.483-1.352V3.116c.004-.523.138-1.006.486-1.355.35-.35.832-.481 1.354-.481h1.784c.52.004 1.001.138 1.348.488.347.35.478.831.478 1.352V4.9c0 .52-.13 1.003-.479 1.351-.348.349-.83.479-1.351.479h-1.78Z" clip-rule="evenodd"/>
</svg>