<svg xmlns="http://www.w3.org/2000/svg" fill="none" viewBox="0 0 16 16">
  <path fill="currentColor" d="M13.5 9a1.5 1.5 0 0 1 1.5 1.5v3a1.5 1.5 0 0 1-1.5 1.5h-3A1.5 1.5 0 0 1 9 13.5v-3A1.5 1.5 0 0 1 10.5 9h3ZM7 3.5a.5.5 0 0 1 0 1H5.5a3.5 3.5 0 1 0 0 7h.293l-1.147-1.146a.5.5 0 1 1 .708-.708l2 2a.498.498 0 0 1 0 .707l-2 2a.5.5 0 1 1-.708-.707L5.793 12.5H5.5a4.5 4.5 0 1 1 0-9H7Zm3.5 6.5a.5.5 0 0 0-.5.5v3a.5.5 0 0 0 .5.5h3a.5.5 0 0 0 .5-.5v-3a.5.5 0 0 0-.5-.5h-3Zm3-9A1.5 1.5 0 0 1 15 2.5v3A1.5 1.5 0 0 1 13.5 7h-3A1.5 1.5 0 0 1 9 5.5v-3A1.5 1.5 0 0 1 10.5 1h3Zm-3 1a.5.5 0 0 0-.5.5v3a.5.5 0 0 0 .5.5h3a.5.5 0 0 0 .5-.5v-3a.5.5 0 0 0-.5-.5h-3Z"/>
</svg>