<svg xmlns="http://www.w3.org/2000/svg" fill="none" viewBox="0 0 16 16">  <path fill="currentColor" d="M7.3799 1.004C7.5803 0.966 7.7839 1.055 7.8936 1.226C8.003 1.398 7.9971 1.619 7.8789 1.785C7.2699 2.64 6.75 3.877 6.75 4.942C6.75 7.734 9.0125 9.996 11.8037 9.996C12.894 9.996 13.5639 10.001 14.2676 9.569C14.4415 9.463 14.6632 9.472 14.8271 9.594C14.9908 9.715 15.065 9.924 15.0137 10.121C14.2315 13.128 11.6787 14.995 8.4717 14.995C4.6376 14.995 1.5293 11.887 1.5293 8.053C1.5293 4.655 4.1586 1.605 7.3799 1.004ZM6.4033 2.339C4.1958 3.273 2.5293 5.566 2.5293 8.053C2.5293 11.334 5.1899 13.995 8.4717 13.995C10.87 13.995 12.7787 12.814 13.6846 10.869C13.0704 11.008 12.4501 10.996 11.8037 10.996C8.4602 10.996 5.75 8.286 5.75 4.942C5.75 4.063 6.0223 3.141 6.4033 2.339ZM14.5293 0.996C14.7185 0.996 14.8919 1.103 14.9766 1.272C15.0612 1.442 15.0433 1.645 14.9297 1.797L12.5303 4.995H14.5293C14.8054 4.995 15.0293 5.219 15.0293 5.495C15.0293 5.771 14.8054 5.995 14.5293 5.995H11.5293C11.3399 5.995 11.1667 5.888 11.082 5.719C10.9974 5.549 11.0155 5.347 11.1289 5.195L13.5293 1.995H11.5293C11.2532 1.995 11.0293 1.771 11.0293 1.495C11.0294 1.219 11.2532 0.995 11.5293 0.995L14.5293 0.996Z"/></svg>
