<svg xmlns="http://www.w3.org/2000/svg" fill="none" viewBox="0 0 16 16">
  <path fill="currentColor" fill-rule="evenodd" d="M5.17 1.78a.5.5 0 0 0-.935-.247v-.001h.001V1.53l-.001.003a2.331 2.331 0 0 1-.338.407 2.1 2.1 0 0 1-1.068.558.5.5 0 0 0 .182.983 3.023 3.023 0 0 0 1.16-.48v3.668a.5.5 0 1 0 1 0V1.78Zm6.62.83a.5.5 0 0 1 .5.5v8.142l1.596-1.596a.5.5 0 1 1 .708.707l-2.445 2.444a.494.494 0 0 1-.359.152.499.499 0 0 1-.354-.146l-2.45-2.45a.5.5 0 0 1 .708-.707l1.596 1.596V3.11a.5.5 0 0 1 .5-.5ZM3.232 8.961a1.92 1.92 0 0 1 3.278 1.342c.022.375.047 1.574-.778 2.692v.001a4.105 4.105 0 0 1-1.514 1.242.5.5 0 1 1-.436-.9 3.106 3.106 0 0 0 1.146-.937c.055-.075.105-.15.15-.226A1.922 1.922 0 0 1 2.67 10.32c0-.509.202-.997.562-1.357Zm2.278 1.35a.92.92 0 1 1-1.84.013.92.92 0 0 1 1.84-.012Z" clip-rule="evenodd"/>
</svg>