<svg xmlns="http://www.w3.org/2000/svg" fill="none" viewBox="0 0 16 16">
  <path fill="currentColor" fill-rule="evenodd" d="M5.17 1.78a.5.5 0 0 0-.935-.247v-.001h.001V1.53l-.001.003a2.331 2.331 0 0 1-.338.407 2.1 2.1 0 0 1-1.068.558.5.5 0 0 0 .182.983 3.023 3.023 0 0 0 1.16-.48v3.668a.5.5 0 1 0 1 0V1.78Zm6.266.986a.499.499 0 0 1 .188-.118l.166-.029a.5.5 0 0 1 .358.15l2.445 2.436a.5.5 0 0 1-.706.709L12.29 4.323v8.136a.5.5 0 1 1-1 0V4.326L9.704 5.913a.5.5 0 0 1-.708-.707l2.44-2.44Zm.188-.118.166-.029h-.01a.5.5 0 0 0-.156.029ZM3.232 8.962a1.92 1.92 0 0 1 3.278 1.342c.022.375.047 1.574-.778 2.692v.001a4.105 4.105 0 0 1-1.514 1.242.5.5 0 1 1-.436-.9 3.106 3.106 0 0 0 1.146-.937c.055-.075.105-.15.15-.226A1.922 1.922 0 0 1 2.67 10.32c0-.509.202-.997.562-1.357Zm2.278 1.35a.92.92 0 1 1-1.84.013.92.92 0 0 1 1.84-.012Z" clip-rule="evenodd"/>
</svg>