<svg xmlns="http://www.w3.org/2000/svg" fill="none" viewBox="0 0 20 20">
  <path fill="currentColor" d="m9.06 12.11-.39.388.39.39.388-.39-.389-.389Zm4.607-3.83.389-.39-.778-.777-.389.389.778.778ZM7.573 9.845l-.389-.388-.777.777.389.39.777-.779ZM16.95 4.5v11h1.1v-11h-1.1ZM15.5 16.95h-11v1.1h11v-1.1ZM3.05 15.5v-11h-1.1v11h1.1ZM4.5 3.05h11v-1.1h-11v1.1Zm4.948 9.448 4.22-4.218-.779-.778-4.218 4.218.777.778Zm-2.652-1.875 1.875 1.875.777-.777-1.875-1.876-.777.778ZM3.05 4.5c0-.8.65-1.45 1.45-1.45v-1.1A2.55 2.55 0 0 0 1.95 4.5h1.1ZM4.5 16.95c-.8 0-1.45-.65-1.45-1.45h-1.1a2.55 2.55 0 0 0 2.55 2.55v-1.1Zm12.45-1.45c0 .8-.65 1.45-1.45 1.45v1.1a2.55 2.55 0 0 0 2.55-2.55h-1.1Zm1.1-11a2.55 2.55 0 0 0-2.55-2.55v1.1c.8 0 1.45.65 1.45 1.45h1.1Z"/>
</svg>