<svg xmlns="http://www.w3.org/2000/svg" fill="none" viewBox="0 0 16 16">
  <path fill="currentColor" d="M14.505 10.467a.5.5 0 0 1 .5.5c0 .423-.232.838-.663 1.054h-.001l-5.663 2.821c-.37.184-.8.207-1.184.07l-.162-.07-5.663-2.821h-.001a1.174 1.174 0 0 1-.663-1.054.5.5 0 0 1 1 0c0 .03.008.059.023.084.015.024.04.051.085.074h.001l5.664 2.822.11.04a.513.513 0 0 0 .343-.04l5.664-2.822a.205.205 0 0 0 .086-.074.162.162 0 0 0 .024-.084.5.5 0 0 1 .5-.5Zm0-2.967a.5.5 0 0 1 .5.5c0 .423-.232.839-.663 1.054h-.001l-5.663 2.821c-.37.184-.8.208-1.184.07l-.162-.07-5.663-2.821h-.001A1.174 1.174 0 0 1 1.005 8a.5.5 0 0 1 1 0c0 .03.008.059.023.084.015.024.04.052.085.074h.001l5.664 2.823.11.039a.513.513 0 0 0 .343-.04l5.664-2.822a.206.206 0 0 0 .086-.074.162.162 0 0 0 .024-.084.5.5 0 0 1 .5-.5ZM7.332 1.158c.422-.21.923-.21 1.346 0l5.664 2.822h-.001c.884.44.885 1.665 0 2.106L8.679 8.907c-.422.211-.924.211-1.346 0L1.67 6.086a1.169 1.169 0 0 1 0-2.107l5.662-2.82v-.002Zm.9.895a.511.511 0 0 0-.453 0L2.115 4.875c-.083.042-.11.104-.11.158 0 .055.027.117.11.159l5.663 2.82c.141.071.311.071.452 0h.001l5.664-2.821c.082-.042.109-.104.109-.158a.163.163 0 0 0-.058-.124l-.051-.034-5.664-2.822Z"/>
</svg>