<svg xmlns="http://www.w3.org/2000/svg" fill="none" viewBox="0 0 16 16">
  <path fill="currentColor" fill-rule="evenodd" d="M2.062 10.5c.08.14.196.263.349.355l4.552 2.76a2 2 0 0 0 2.074 0l4.552-2.76a.992.992 0 0 0 .35-.355c.256.447.14 1.059-.35 1.355l-4.552 2.76a2 2 0 0 1-2.074 0l-4.552-2.76a1.001 1.001 0 0 1-.35-1.355Z" clip-rule="evenodd"/>
  <path fill="currentColor" fill-rule="evenodd" d="M2.062 7.5c.08.14.196.263.349.355l4.552 2.76a2 2 0 0 0 2.074 0l4.552-2.76a.992.992 0 0 0 .35-.355c.256.447.14 1.059-.35 1.355l-4.552 2.76a2 2 0 0 1-2.074 0l-4.552-2.76A1.001 1.001 0 0 1 2.06 7.5Z" clip-rule="evenodd"/>
  <path fill="currentColor" fill-rule="evenodd" d="M2.41 4.145a1 1 0 0 0 0 1.71l4.553 2.76a2 2 0 0 0 2.074 0l4.552-2.76a1 1 0 0 0 0-1.71l-4.552-2.76a2 2 0 0 0-2.074 0l-4.552 2.76Zm1.295.427a.5.5 0 0 0 0 .856l4.036 2.445a.5.5 0 0 0 .518 0l4.035-2.445a.5.5 0 0 0 0-.856L8.26 2.127a.5.5 0 0 0-.518 0L3.705 4.572Z" clip-rule="evenodd"/>
</svg>