<svg viewBox="0 0 16 16" fill="none" xmlns="http://www.w3.org/2000/svg">
<path fill-rule="evenodd" clip-rule="evenodd" d="M2.84003 14.0195C2.84003 13.7434 3.06388 13.5195 3.34003 13.5195H12.68C12.9562 13.5195 13.18 13.7434 13.18 14.0195C13.18 14.2957 12.9562 14.5195 12.68 14.5195H3.34003C3.06388 14.5195 2.84003 14.2957 2.84003 14.0195Z" fill="currentColor"/>
<path d="M12.7 8.67957H9.11997C9.11997 8.67957 10.01 3.77957 10.01 3.55957C10.01 3.02914 9.79926 2.52043 9.42418 2.14536C9.04911 1.77028 8.5404 1.55957 8.00997 1.55957C7.47954 1.55957 6.97083 1.77028 6.59576 2.14536C6.22068 2.52043 6.00997 3.02914 6.00997 3.55957C6.00997 3.77957 6.89997 8.67957 6.89997 8.67957H3.31997C3.12895 8.67905 2.94006 8.71968 2.76615 8.7987C2.59223 8.87772 2.43738 8.99327 2.31213 9.1375C2.18688 9.28173 2.09417 9.45125 2.0403 9.63452C1.98644 9.81779 1.97268 10.0105 1.99997 10.1996L2.22997 11.7896H13.8L14.02 10.1996C14.0473 10.0105 14.0335 9.81779 13.9796 9.63452C13.9258 9.45125 13.8331 9.28173 13.7078 9.1375C13.5826 8.99327 13.4277 8.87772 13.2538 8.7987C13.0799 8.71968 12.891 8.67905 12.7 8.67957Z" stroke="currentColor" stroke-linecap="round" stroke-linejoin="round"/>
</svg>
