<svg xmlns="http://www.w3.org/2000/svg" fill="none" viewBox="0 0 16 16">
  <path fill="currentColor" d="M12.492 14a.5.5 0 0 1 0 1H3.515a.5.5 0 0 1 0-1h8.977ZM8.001 1c.662 0 1.297.264 1.765.732.468.47.731 1.105.731 1.768 0 .051-.009.12-.014.16a66.807 66.807 0 0 1-.126.885c-.08.539-.189 1.236-.296 1.925l-.295 1.88-.043.27h3.448a1.826 1.826 0 0 1 1.8 2.15l-.5 1.86a.5.5 0 0 1-.482.37H2.013a.5.5 0 0 1-.484-.37l-.499-1.86a1.832 1.832 0 0 1 1.8-2.15h3.5l-.045-.265-.315-1.88c-.115-.69-.23-1.386-.316-1.925a64.424 64.424 0 0 1-.134-.886L5.505 3.5A2.495 2.495 0 0 1 8 1Zm0 1a1.495 1.495 0 0 0-1.496 1.5c0-.026-.003-.029.006.035l.028.196a334.628 334.628 0 0 0 .417 2.58l.315 1.878.104.615.03.172.007.045.002.011v.004a.5.5 0 0 1-.492.584H2.83a.828.828 0 0 0-.823.933L2.396 12h11.21l.388-1.453a.83.83 0 0 0-.195-.642.828.828 0 0 0-.627-.285H9.137a.5.5 0 0 1-.493-.579v-.004c0-.002 0-.006.002-.01l.007-.047.028-.17.096-.616c.08-.51.189-1.19.296-1.879a354.697 354.697 0 0 0 .392-2.58l.026-.196c.008-.063.006-.063.006-.039A1.502 1.502 0 0 0 8.001 2Z"/>
</svg>