<svg xmlns="http://www.w3.org/2000/svg" fill="none" viewBox="0 0 16 16">  <path fill="currentColor" d="M9.8291 2.995C10.9492 2.995 11.5097 2.995 11.9375 3.213C12.3138 3.405 12.6198 3.711 12.8115 4.087C13.0295 4.515 13.0293 5.075 13.0293 6.195V9.795C13.0293 10.915 13.0295 11.475 12.8115 11.903C12.6198 12.279 12.3138 12.585 11.9375 12.777C11.5097 12.995 10.9492 12.995 9.8291 12.995H6.2295C5.1094 12.995 4.5489 12.995 4.1211 12.777C3.7448 12.585 3.4388 12.279 3.2471 11.903C3.0291 11.475 3.0293 10.915 3.0293 9.795V6.195C3.0293 5.075 3.0291 4.515 3.2471 4.087C3.4388 3.711 3.7448 3.405 4.1211 3.213C4.5489 2.995 5.1094 2.995 6.2295 2.995H9.8291Z"/></svg>
