<svg xmlns="http://www.w3.org/2000/svg" fill="none" viewBox="0 0 16 16">  <path fill="currentColor" d="M3.5 2.0001C3.7761 2.0002 4 2.224 4 2.5001V2.9835C4.406 2.8831 4.682 2.7554 5.095 2.6232C5.522 2.4863 5.989 2.3971 6.592 2.5089L6.591 2.5099C7.278 2.6364 7.816 2.8701 8.279 3.0724C8.751 3.2784 9.129 3.4411 9.571 3.505L9.574 3.506C10.026 3.5738 10.29 3.6465 10.668 3.6193C11.027 3.5934 11.507 3.4687 12.262 3.0607C12.417 2.9769 12.605 2.9804 12.756 3.0704C12.907 3.1606 13 3.3241 13 3.5001V9.5C13 9.697 12.883 9.877 12.703 9.957C11.854 10.336 11.26 10.519 10.749 10.577C10.232 10.636 9.83 10.562 9.418 10.493C8.861 10.401 8.344 10.17 7.879 9.971C7.396 9.764 6.938 9.578 6.42 9.494V9.493C6.021 9.432 5.722 9.485 5.394 9.587C5.086 9.682 4.621 9.874 4.109 9.988C4.073 9.997 4.036 9.999 4 9.999V13.5C4 13.776 3.776 14 3.5 14C3.2239 14 3 13.776 3 13.5V2.5001C3 2.224 3.2239 2.0001 3.5 2.0001ZM6.409 3.4923C6.019 3.42 5.728 3.4714 5.4 3.5763C5.094 3.6743 4.625 3.8744 4.107 3.9884C4.071 3.9963 4.035 3.9991 4 3.9991V8.983C4.41 8.881 4.686 8.759 5.098 8.632C5.469 8.517 5.866 8.436 6.359 8.48L6.577 8.506L6.58 8.507C7.232 8.613 7.79 8.846 8.271 9.052C8.709 9.239 9.068 9.395 9.428 9.477L9.582 9.507C10.01 9.578 10.278 9.624 10.636 9.583C10.953 9.547 11.362 9.434 12 9.167V4.292C11.515 4.493 11.11 4.59 10.74 4.616C10.218 4.654 9.776 4.547 9.429 4.494C8.832 4.408 8.334 4.187 7.879 3.9884C7.415 3.7858 6.972 3.5958 6.41 3.4923H6.409Z"/></svg>
