<svg xmlns="http://www.w3.org/2000/svg" fill="none" viewBox="0 0 16 16">
  <path fill="currentColor" d="M8.647 1c.738 0 1.354.518 1.522 1.204a1.51 1.51 0 0 1 .625-.123 1.595 1.595 0 0 1 1.552 1.42c.182-.074.38-.115.59-.115.868 0 1.57.716 1.57 1.58v5.202c0 1.28-.505 2.51-1.402 3.416a4.766 4.766 0 0 1-3.388 1.417H8.223c-.942 0-1.87-.237-2.697-.69a5.667 5.667 0 0 1-2.041-1.906l-1.687-2.61-.003-.004c-.445-.708-.403-1.617.294-2.176a1.565 1.565 0 0 1 2.21.268l.63.804V3.672c0-.864.692-1.606 1.577-1.591.216.004.422.051.61.134C7.286 1.525 7.902 1 8.647 1Zm0 1a.594.594 0 0 0-.58.589v4.55a.5.5 0 0 1-1 0V3.672a.594.594 0 0 0-.577-.591c-.29-.005-.562.248-.562.59v6.468a.5.5 0 0 1-.894.307L3.51 8.5a.565.565 0 0 0-.797-.103c-.227.182-.3.5-.072.863l1.683 2.604v.001a4.67 4.67 0 0 0 1.681 1.57c.68.373 1.443.567 2.216.567h1.494a3.766 3.766 0 0 0 2.677-1.121 3.857 3.857 0 0 0 1.112-2.712V4.967a.58.58 0 0 0-.57-.581.595.595 0 0 0-.579.59v2.163a.5.5 0 0 1-1 0V3.672a.594.594 0 0 0-.578-.591c-.287-.004-.556.243-.56.581V7.14a.5.5 0 0 1-1.002 0V3.672l.001-.019V2.581A.58.58 0 0 0 8.647 2Z"/>
</svg>