<svg xmlns="http://www.w3.org/2000/svg" fill="none" viewBox="0 0 16 16">
  <path fill="currentColor" fill-rule="evenodd" d="M6.883 1.865A1.628 1.628 0 0 1 8.46.609c.76 0 1.401.533 1.568 1.244.2-.09.424-.137.66-.134a1.631 1.631 0 0 1 1.595 1.468c.193-.082.405-.128.627-.128.886 0 1.61.724 1.61 1.61v5.34a4.95 4.95 0 0 1-4.95 4.95H8.02a5.84 5.84 0 0 1-4.899-2.657l-1.75-2.68-.003-.004c-.46-.725-.416-1.653.302-2.22a1.613 1.613 0 0 1 2.262.271l.688.87v-5.2c0-.885.715-1.634 1.618-1.62.23.004.447.056.645.146Zm.957 5.034a.5.5 0 0 1-1 0V3.34a.63.63 0 0 0-.618-.62.61.61 0 0 0-.602.62v6.64a.5.5 0 0 1-.892.31l-1.58-2a.613.613 0 0 0-.858-.108c-.242.192-.317.523-.08.898l1.749 2.677a4.84 4.84 0 0 0 4.06 2.203H9.57a3.95 3.95 0 0 0 3.95-3.95V4.67a.614.614 0 0 0-.61-.61.63.63 0 0 0-.62.615V6.9a.5.5 0 0 1-.5.5m-.199-.04a.5.5 0 0 1-.301-.46V3.34a.63.63 0 0 0-.618-.62.61.61 0 0 0-.602.615V6.9a.5.5 0 0 1-.5.5.5.5 0 0 1-.5-.5V2.22a.614.614 0 0 0-.61-.61.63.63 0 0 0-.62.615V6.9m3.751.46c.061.026.128.04.199.04l-.199-.04Z" clip-rule="evenodd"/>
</svg>