<svg xmlns="http://www.w3.org/2000/svg" fill="none" viewBox="0 0 16 16">
  <path fill="currentColor" d="M8.001 1C10.879 1 13 3.357 13 6.183l-.001.005.725.366.168.093a2.279 2.279 0 0 1 1.03 2.422l-.297 1.372v.001a2.278 2.278 0 0 1-2.226 1.794h-.648l-.089.23v.004c-.338.853-.713 1.481-1.151 1.9-.454.434-.964.63-1.511.63H7.259a.5.5 0 0 1 0-1H9c.28 0 .545-.09.82-.352.29-.278.599-.757.91-1.546l.165-.427c.002-.015.002-.03.005-.044l.963-4.444.003-.013c.082-.332.134-.658.134-.991C12 3.856 10.275 2 8.001 2S3.999 3.856 3.999 6.183c0 .25.03.495.078.743l.056.248.003.013.963 4.444a.5.5 0 0 1-.489.605H3.6a2.277 2.277 0 0 1-2.226-1.795L1.076 9.07a2.279 2.279 0 0 1 1.2-2.515l.723-.367v-.004C2.999 3.357 5.123 1 8.001 1ZM2.726 7.445a1.28 1.28 0 0 0-.672 1.412l.298 1.373A1.276 1.276 0 0 0 3.6 11.236h.39L3.158 7.4l-.034-.155-.398.201Zm10.114-.047-.831 3.838h.39c.601 0 1.12-.419 1.249-1.007l.297-1.372a1.278 1.278 0 0 0-.672-1.41l-.399-.203-.034.154Z"/>
</svg>