<svg xmlns="http://www.w3.org/2000/svg" fill="none" viewBox="0 0 16 16">  <path fill="currentColor" d="M12.505 1.995C13.886 1.995 15.005 3.114 15.005 4.495V11.495C15.005 12.876 13.886 13.995 12.505 13.995H3.505C2.124 13.995 1.005 12.876 1.005 11.495V4.495C1.005 3.114 2.124 1.995 3.505 1.995H12.505ZM2.005 10.495V11.495C2.005 12.323 2.676 12.995 3.505 12.995H5.01V10.495H2.005ZM6.01 10.495V12.995H12.505C13.333 12.995 14.005 12.323 14.005 11.495V10.495H6.01ZM2.005 9.495H5.01V6.495H2.005V9.495ZM6.01 9.495H14.005V6.495H6.01V9.495ZM3.505 2.995C2.676 2.995 2.005 3.667 2.005 4.495V5.495H5.01V2.995H3.505ZM6.01 5.495H14.005V4.495C14.005 3.667 13.333 2.995 12.505 2.995H6.01V5.495Z"/></svg>
