<svg xmlns="http://www.w3.org/2000/svg" fill="none" viewBox="0 0 16 16">
  <path fill="currentColor" fill-rule="evenodd" d="M4.23 3.84a1.28 1.28 0 0 0-1.28 1.28v5.78a1.28 1.28 0 0 0 1.28 1.28h6.919a.391.391 0 0 0 .302-.145m0 0 3.256-4.025-3.256-4.026a.382.382 0 0 0-.301-.144H4.23m-1.612-.332A2.28 2.28 0 0 1 4.23 2.84h6.92c.422 0 .814.189 1.079.515l3.51 4.34a.5.5 0 0 1 0 .63l-3.51 4.34a1.39 1.39 0 0 1-1.078.515H4.23a2.28 2.28 0 0 1-2.28-2.28V5.12c0-.605.24-1.185.668-1.612Z" clip-rule="evenodd"/>
</svg>