<svg xmlns="http://www.w3.org/2000/svg" fill="none" viewBox="0 0 16 16">
  <path fill="currentColor" fill-rule="evenodd" d="M9.068 1.728a2.28 2.28 0 1 1 3.224 3.224 2.28 2.28 0 0 1-3.224-3.224Zm1.612.332a1.28 1.28 0 1 0 0 2.56 1.28 1.28 0 0 0 0-2.56ZM5.12 3.28a2.28 2.28 0 1 0 0 4.56 2.28 2.28 0 0 0 0-4.56Zm-.905 1.375a1.28 1.28 0 1 1 1.81 1.81 1.28 1.28 0 0 1-1.81-1.81Zm.905 4.41a4.77 4.77 0 0 0-4.468 3.1l-.001.002c-.275.743.162 1.535.872 1.768a11.34 11.34 0 0 0 7.185 0l.003-.002c.705-.24 1.157-1.013.878-1.766v-.002a4.77 4.77 0 0 0-4.469-3.1Zm-2.15 1.672a3.77 3.77 0 0 1 5.681 1.777c.061.166-.027.392-.261.472a10.34 10.34 0 0 1-6.552 0l-.003-.001c-.209-.068-.31-.295-.246-.471a3.77 3.77 0 0 1 1.382-1.777Zm9.185-3.661a4.77 4.77 0 0 0-4.1.557.5.5 0 1 0 .55.834 3.77 3.77 0 0 1 5.606 1.817c.061.166-.027.392-.261.472-.851.285-1.736.458-2.632.515a.5.5 0 1 0 .064.998 11.346 11.346 0 0 0 2.887-.565h.002c.705-.24 1.156-1.014.878-1.767l-.001-.003a4.77 4.77 0 0 0-2.993-2.858Z" clip-rule="evenodd"/>
</svg>