<svg width="16" height="16" viewBox="0 0 16 16" fill="none" xmlns="http://www.w3.org/2000/svg">
<path d="M5.56958 9.60449C6.54157 9.60451 7.49075 9.90191 8.28931 10.4561C9.0877 11.0102 9.6982 11.7947 10.0383 12.7051L10.0393 12.707C10.3175 13.4606 9.86608 14.2336 9.16138 14.4736L9.15845 14.4746C6.82636 15.2538 4.30404 15.2536 1.97192 14.4746V14.4736C1.26288 14.2404 0.826487 13.45 1.10083 12.707L1.10181 12.7051C1.44197 11.7946 2.05235 11.0102 2.85083 10.4561C3.6493 9.90198 4.59771 9.60458 5.56958 9.60449ZM5.56958 10.6045C4.80159 10.6046 4.05214 10.8396 3.42114 11.2773C2.79064 11.7149 2.30733 12.334 2.03833 13.0527C1.98157 13.2066 2.05348 13.4007 2.21216 13.4922L2.2854 13.5244L2.28833 13.5264C4.41412 14.2366 6.7132 14.2361 8.83911 13.5264C9.07374 13.4463 9.16203 13.2199 9.10083 13.0537V13.0527C8.83183 12.3342 8.34937 11.7148 7.71899 11.2773C7.08788 10.8394 6.33773 10.6045 5.56958 10.6045ZM9.86157 6.77637C10.5714 6.67999 11.2944 6.74477 11.9758 6.96582C12.6571 7.18691 13.2801 7.55904 13.7981 8.05371C14.316 8.5484 14.7159 9.15389 14.968 9.82422L14.969 9.82715C15.2472 10.5807 14.7958 11.3538 14.0911 11.5938L14.0891 11.5947C13.1556 11.9074 12.1849 12.0969 11.2024 12.1592C10.9271 12.1766 10.689 11.9676 10.6711 11.6924C10.6537 11.4168 10.8633 11.1786 11.1389 11.1611C12.0341 11.1044 12.9182 10.9311 13.7688 10.6465C14.0021 10.567 14.0914 10.3427 14.0325 10.1768L13.9524 9.98047C13.7529 9.52864 13.4658 9.1195 13.1077 8.77734C12.6983 8.38638 12.2057 8.09174 11.6672 7.91699C11.1287 7.7423 10.5573 7.69143 9.99634 7.76758C9.72296 7.80471 9.47137 7.61307 9.43384 7.33984C9.39667 7.06622 9.58796 6.81355 9.86157 6.77637ZM5.50024 3.94043C6.10485 3.94049 6.68502 4.18087 7.11255 4.6084C7.53984 5.03594 7.77954 5.61623 7.77954 6.2207C7.77935 6.82513 7.53996 7.4056 7.11255 7.83301C6.68505 8.26037 6.10472 8.49994 5.50024 8.5C4.89579 8.49999 4.31547 8.26029 3.88794 7.83301C3.46053 7.4056 3.22017 6.82513 3.21997 6.2207C3.21997 5.61614 3.46052 5.03596 3.88794 4.6084C4.31551 4.18083 4.89557 3.94044 5.50024 3.94043ZM5.50024 4.94043C5.16078 4.94044 4.83501 5.07539 4.59497 5.31543C4.35509 5.55545 4.21997 5.88135 4.21997 6.2207C4.22017 6.55992 4.3551 6.8861 4.59497 7.12598C4.83496 7.36572 5.161 7.49999 5.50024 7.5C5.83951 7.49994 6.16555 7.3658 6.40552 7.12598C6.64539 6.8861 6.77935 6.55992 6.77954 6.2207C6.77954 5.88145 6.64527 5.55543 6.40552 5.31543C6.16553 5.07544 5.83963 4.94049 5.50024 4.94043ZM10.5002 1C11.1048 1.00006 11.685 1.24047 12.1125 1.66797C12.54 2.09553 12.7795 2.6757 12.7795 3.28027C12.7795 3.88487 12.5401 4.46506 12.1125 4.89258C11.685 5.32007 11.1048 5.55951 10.5002 5.55957C9.8957 5.55955 9.31548 5.31998 8.88794 4.89258C8.46045 4.46506 8.22004 3.88485 8.21997 3.28027C8.21997 2.6756 8.46039 2.09555 8.88794 1.66797C9.31551 1.2404 9.89558 1.00002 10.5002 1ZM10.5002 2C10.1608 2.00002 9.835 2.13497 9.59497 2.375C9.35496 2.61504 9.21997 2.94082 9.21997 3.28027C9.22004 3.61963 9.35501 3.94557 9.59497 4.18555C9.83498 4.42541 10.1609 4.55955 10.5002 4.55957C10.8396 4.55951 11.1655 4.42551 11.4055 4.18555C11.6455 3.94556 11.7795 3.61965 11.7795 3.28027C11.7795 2.94092 11.6454 2.61502 11.4055 2.375C11.1655 2.13504 10.8396 2.00006 10.5002 2Z" fill="currentColor"/>
</svg>
