<svg viewBox="0 0 38 38" fill="none" xmlns="http://www.w3.org/2000/svg">
<path d="M4.21997 25.85H10.55" stroke="currentColor" stroke-width="2" stroke-linecap="round" stroke-linejoin="round"/>
<path d="M18.99 25.85H33.76" stroke="currentColor" stroke-width="2" stroke-linecap="round" stroke-linejoin="round"/>
<path d="M4.21997 12.13H18.99" stroke="currentColor" stroke-width="2" stroke-linecap="round" stroke-linejoin="round"/>
<path d="M27.43 12.13H33.76" stroke="currentColor" stroke-width="2" stroke-linecap="round" stroke-linejoin="round"/>
<path d="M14.77 21.63C13.6508 21.63 12.5774 22.0746 11.786 22.866C10.9946 23.6574 10.55 24.7308 10.55 25.85C10.55 26.9692 10.9946 28.0426 11.786 28.834C12.5774 29.6254 13.6508 30.07 14.77 30.07C15.3242 30.07 15.8729 29.9609 16.3849 29.7488C16.8969 29.5367 17.3621 29.2259 17.754 28.834C18.1458 28.4421 18.4567 27.9769 18.6688 27.4649C18.8808 26.9529 18.99 26.4042 18.99 25.85C18.99 25.2958 18.8808 24.7471 18.6688 24.2351C18.4567 23.7231 18.1458 23.2579 17.754 22.866C17.3621 22.4742 16.8969 22.1633 16.3849 21.9512C15.8729 21.7392 15.3242 21.63 14.77 21.63Z" stroke="currentColor" stroke-width="2" stroke-linecap="round" stroke-linejoin="round"/>
<path d="M23.21 7.91C22.0908 7.91 21.0174 8.35461 20.226 9.14601C19.4346 9.93742 18.99 11.0108 18.99 12.13C18.99 13.2492 19.4346 14.3226 20.226 15.114C21.0174 15.9054 22.0908 16.35 23.21 16.35C23.7642 16.35 24.3129 16.2409 24.8249 16.0288C25.3369 15.8167 25.8021 15.5059 26.194 15.114C26.5858 14.7221 26.8967 14.2569 27.1088 13.7449C27.3208 13.2329 27.43 12.6842 27.43 12.13C27.43 11.5758 27.3208 11.0271 27.1088 10.5151C26.8967 10.0031 26.5858 9.53788 26.194 9.14601C25.8021 8.75415 25.3369 8.44331 24.8249 8.23123C24.3129 8.01916 23.7642 7.91 23.21 7.91Z" stroke="currentColor" stroke-width="2" stroke-linecap="round" stroke-linejoin="round"/>
</svg>
