<svg xmlns="http://www.w3.org/2000/svg" fill="none" viewBox="0 0 16 16">
  <path fill="currentColor" d="M12.5 10a.5.5 0 0 1 .5.5v2.793l1.146-1.146a.5.5 0 1 1 .707.707l-2 2a.5.5 0 0 1-.707 0l-2-2a.5.5 0 1 1 .707-.707L12 13.293V10.5a.5.5 0 0 1 .5-.5Zm.495-7.995a1.5 1.5 0 0 1 1.5 1.5v1.5A1.5 1.5 0 0 1 13 6.504V8a.5.5 0 0 1-1 0V6.505H4V11.5l.008.153A1.5 1.5 0 0 0 5.5 13h3a.5.5 0 0 1 0 1h-3a2.5 2.5 0 0 1-2.487-2.244L3 11.5V6.505h-.005a1.5 1.5 0 0 1-1.5-1.5v-1.5a1.5 1.5 0 0 1 1.5-1.5h10Zm-10 1a.5.5 0 0 0-.5.5v1.5a.5.5 0 0 0 .5.5h.455c.017-.002.033-.005.05-.005s.033.003.05.005h8.9c.017-.002.033-.005.05-.005s.033.003.05.005h.445a.5.5 0 0 0 .5-.5v-1.5a.5.5 0 0 0-.5-.5h-10Z"/>
</svg>