<svg xmlns="http://www.w3.org/2000/svg" fill="none" viewBox="0 0 16 16">
  <path fill="currentColor" fill-rule="evenodd" d="M2.06 3.34c0-.22.055-.292.076-.314.022-.021.094-.076.314-.076h11.12c.22 0 .293.055.314.076.021.022.076.094.076.314v1.33c0 .22-.055.292-.076.314-.021.021-.094.076-.314.076H2.45c-.22 0-.292-.055-.314-.076-.021-.022-.076-.094-.076-.314V3.34Zm.39-1.39c-.374 0-.746.094-1.021.369-.275.275-.369.647-.369 1.021v1.33c0 .374.094.746.369 1.021.26.26.608.358.961.368v5.731a2.28 2.28 0 0 0 2.28 2.28h4.45a.5.5 0 0 0 0-1H4.67a1.28 1.28 0 0 1-1.28-1.28V6.06h9.24v1.73a.5.5 0 0 0 1 0V6.06c.353-.01.7-.108.961-.369.275-.275.37-.647.37-1.021V3.34c0-.374-.095-.746-.37-1.021-.275-.275-.647-.369-1.02-.369H2.45Zm8.096 9.937a.5.5 0 0 1 .707-.001l1.377 1.37V10.01a.5.5 0 0 1 1 0v3.243l1.366-1.367a.5.5 0 1 1 .708.708l-2.22 2.22a.5.5 0 0 1-.707 0l-2.23-2.22a.5.5 0 0 1-.001-.707Z" clip-rule="evenodd"/>
</svg>