<svg xmlns="http://www.w3.org/2000/svg" fill="none" viewBox="0 0 20 20">
  <path fill="currentColor" fill-rule="evenodd" d="M3.6 9.764c0 3.583 2.553 6.014 5.402 6.516l-.19 1.083C5.491 16.778 2.5 13.936 2.5 9.764c0-1.767.79-3.16 1.72-4.224.704-.806 1.516-1.452 2.147-1.938H4.366v-1.1h3.433a.55.55 0 0 1 .55.55v3.493h-1.1V4.312l-.047.036c-.654.502-1.458 1.119-2.154 1.916-.823.942-1.448 2.087-1.448 3.5Zm12.804.474c0-3.546-2.5-5.962-5.312-6.5l.207-1.08c3.276.626 6.205 3.452 6.205 7.58 0 1.767-.79 3.16-1.72 4.223-.704.807-1.516 1.453-2.148 1.939h2.002v1.1h-3.433a.55.55 0 0 1-.55-.55v-3.493h1.1v2.233l.047-.037c.654-.501 1.458-1.118 2.154-1.915.822-.942 1.448-2.087 1.448-3.5Z" clip-rule="evenodd"/>
</svg>