<svg xmlns="http://www.w3.org/2000/svg" fill="none" viewBox="0 0 16 16">  <path fill="currentColor" d="M14.5 9C14.776 9 15 9.224 15 9.5V12.5C15 13.881 13.881 15 12.5 15H3.5C2.119 15 1 13.881 1 12.5V9.5C1 9.224 1.224 9 1.5 9C1.776 9 2 9.224 2 9.5V12.5C2 13.328 2.672 14 3.5 14H12.5C13.328 14 14 13.328 14 12.5V9.5C14 9.224 14.224 9 14.5 9ZM8 1L8.101 1.01C8.135 1.017 8.169 1.028 8.2 1.042C8.209 1.046 8.216 1.05 8.225 1.055C8.247 1.066 8.269 1.078 8.289 1.093C8.297 1.098 8.304 1.105 8.312 1.111C8.329 1.126 8.347 1.14 8.362 1.157C8.366 1.161 8.371 1.164 8.374 1.168L12.374 5.668C12.557 5.874 12.538 6.191 12.332 6.374C12.126 6.557 11.809 6.538 11.626 6.332L8.5 2.815L8.501 10.5C8.501 10.776 8.277 11 8.001 11C7.725 11 7.501 10.776 7.501 10.5L7.5 2.814L4.374 6.332C4.191 6.538 3.874 6.557 3.668 6.374C3.462 6.191 3.443 5.874 3.626 5.668L7.626 1.168C7.629 1.164 7.633 1.161 7.637 1.157C7.65 1.143 7.664 1.13 7.679 1.118C7.69 1.109 7.7 1.1 7.712 1.092C7.731 1.078 7.751 1.067 7.771 1.057C7.781 1.052 7.789 1.046 7.799 1.042C7.86 1.015 7.928 1 8 1Z"/></svg>
