<svg xmlns="http://www.w3.org/2000/svg" fill="none" viewBox="0 0 16 16">
  <path fill="currentColor" d="M8.924 2C10.07 2 11 2.93 11 4.076V4.5h1.309c.437 0 .846.223 1.083.59l1.402 2.181c.136.209.206.451.206.698v2.455c0 1.147-.93 2.076-2.076 2.076h-.49a1.999 1.999 0 0 1-3.869 0H6.5c-.022 0-.043-.004-.064-.007a1.998 1.998 0 0 1-3.89-.064A2.074 2.074 0 0 1 1 10.424V4.076C1 2.93 1.93 2 3.076 2h5.848ZM4.5 11a1 1 0 1 0 0 2 1 1 0 0 0 0-2Zm6 0a1 1 0 1 0 0 2 1 1 0 0 0 0-2ZM3.076 3C2.482 3 2 3.482 2 4.076v6.348c0 .422.243.785.597.962a1.998 1.998 0 0 1 3.839.12c.02-.003.042-.006.064-.006h2.065A2 2 0 0 1 10 10.065V4.076C10 3.482 9.518 3 8.924 3H3.076ZM11 10.065a2 2 0 0 1 1.435 1.435h.489c.594 0 1.076-.482 1.076-1.076V8.5h-2.94c-.02 0-.04-.004-.06-.007v1.572Zm0-2.56c.02-.002.04-.005.06-.005h2.693L12.55 5.632a.289.289 0 0 0-.242-.132H11v2.006Z"/>
</svg>