<svg xmlns="http://www.w3.org/2000/svg" fill="none" viewBox="0 0 16 16">  <path fill="currentColor" d="M12 9.5C13.3806 9.5 14.5 10.619 14.5 12C14.5 12.509 14.3466 12.983 14.085 13.378L15.2422 14.535C15.4374 14.73 15.4374 15.047 15.2422 15.242C15.0469 15.437 14.7304 15.437 14.5352 15.242L13.3779 14.085C12.9827 14.347 12.5095 14.5 12 14.5C10.6194 14.5 9.5 13.381 9.5 12C9.5 10.619 10.6194 9.5 12 9.5ZM8 1.277C9.5762 1.277 11.0251 1.506 12.0977 1.892C12.6317 2.085 13.0999 2.326 13.4434 2.618C13.7847 2.909 14.0555 3.299 14.0557 3.777V7.599C14.0556 7.876 13.8318 8.099 13.5557 8.099C13.2796 8.099 13.0557 7.876 13.0557 7.599V5.214C12.7766 5.385 12.4519 5.534 12.0977 5.662C11.0251 6.048 9.5762 6.277 8 6.277C6.4238 6.277 4.975 6.048 3.9023 5.662C3.5481 5.534 3.2234 5.385 2.9443 5.214V8C2.9443 8.072 2.9825 8.203 3.1904 8.385C3.3973 8.565 3.7256 8.752 4.1758 8.92C5.0724 9.254 6.3478 9.479 7.791 9.499C8.067 9.503 8.2877 9.729 8.2842 10.005C8.2804 10.281 8.0535 10.502 7.7773 10.498C6.2522 10.477 4.8573 10.242 3.8262 9.857C3.5021 9.736 3.2037 9.596 2.9443 9.437V12.222C2.9443 12.294 2.9838 12.428 3.1982 12.613C3.4113 12.797 3.7489 12.985 4.21 13.154C5.1282 13.49 6.4315 13.712 7.9004 13.722C8.1763 13.723 8.399 13.949 8.3975 14.224C8.3957 14.501 8.1697 14.723 7.8936 14.722C6.3418 14.711 4.9189 14.479 3.8662 14.094C3.3419 13.902 2.8822 13.662 2.5449 13.371C2.2093 13.082 1.9443 12.695 1.9443 12.222V3.777C1.9445 3.299 2.2153 2.909 2.5566 2.618C2.9002 2.326 3.3683 2.085 3.9023 1.892C4.9749 1.506 6.4239 1.277 8 1.277ZM12 10.5C11.1716 10.5 10.5 11.171 10.5 12C10.5 12.829 11.1716 13.5 12 13.5C12.411 13.5 12.7828 13.334 13.0537 13.066C13.0558 13.064 13.0574 13.062 13.0596 13.059C13.0617 13.057 13.0643 13.056 13.0664 13.054C13.3341 12.783 13.5 12.411 13.5 12C13.5 11.171 12.8284 10.5 12 10.5ZM8 2.277C6.5083 2.277 5.1793 2.495 4.2412 2.833C3.7702 3.002 3.4238 3.194 3.2051 3.38C2.9849 3.567 2.9445 3.703 2.9443 3.777C2.9443 3.851 2.9847 3.987 3.2051 4.175C3.4238 4.361 3.7701 4.552 4.2412 4.722C5.1793 5.059 6.5082 5.277 8 5.277C9.4918 5.277 10.8207 5.059 11.7588 4.722C12.2299 4.552 12.5762 4.361 12.7949 4.175C13.0152 3.987 13.0557 3.851 13.0557 3.777C13.0555 3.704 13.0149 3.567 12.7949 3.38C12.5762 3.194 12.2298 3.002 11.7588 2.833C10.8207 2.495 9.4917 2.277 8 2.277Z"/></svg>
