<svg xmlns="http://www.w3.org/2000/svg" fill="none" viewBox="0 0 16 16">  <path fill="currentColor" d="M6.688 1.826C7.26 0.797 8.74 0.797 9.311 1.826L15.111 12.266C15.667 13.266 14.944 14.495 13.801 14.495H2.199C1.056 14.495 0.333 13.266 0.889 12.266L6.688 1.826ZM8.437 2.311C8.247 1.969 7.753 1.969 7.562 2.311L1.763 12.752C1.578 13.085 1.818 13.495 2.199 13.495H13.801C14.182 13.495 14.422 13.085 14.237 12.752L8.437 2.311ZM8.05 11C8.464 11 8.8 11.337 8.8 11.75C8.8 12.163 8.464 12.5 8.05 12.5C7.636 12.5 7.3 12.163 7.3 11.75C7.3 11.337 7.636 11 8.05 11ZM8.039 4.495C8.315 4.495 8.539 4.719 8.539 4.995V9.995C8.539 10.271 8.315 10.495 8.039 10.495C7.763 10.495 7.539 10.271 7.539 9.995V4.995C7.539 4.719 7.763 4.495 8.039 4.495Z"/></svg>
