<svg xmlns="http://www.w3.org/2000/svg" fill="none" viewBox="0 0 16 16">
  <path stroke="currentColor" stroke-linecap="square" d="M13.5 11.06V4.92c0-.323 0-.595-.018-.817a1.748 1.748 0 0 0-.169-.668 1.713 1.713 0 0 0-.748-.748 1.745 1.745 0 0 0-.668-.169c-.222-.018-.494-.018-.816-.018H4.919c-.322 0-.594 0-.816.018-.233.02-.456.06-.668.169a1.712 1.712 0 0 0-.748.748c-.108.212-.15.434-.169.668-.018.222-.018.494-.018.816v6.162c0 .322 0 .594.018.816.02.234.06.456.169.668.164.322.426.584.748.748.212.108.434.15.668.169.222.018.494.018.816.018h6.162c.322 0 .594 0 .816-.018.234-.02.456-.06.668-.169a1.713 1.713 0 0 0 .748-.748c.108-.212.15-.434.169-.668.018-.222.018-.494.018-.816v-.02Z"/>
  <path fill="currentColor" d="M5 5h2v2H5z"/>
</svg>