<svg xmlns="http://www.w3.org/2000/svg" fill="none" viewBox="0 0 16 16">
  <path fill="currentColor" d="M3.5 1a.5.5 0 0 1 .5.5v4.05a2.5 2.5 0 0 1 1.268 4.218c-.35.349-.791.582-1.268.68V14.5a.5.5 0 0 1-1 0v-4.052a2.5 2.5 0 0 1 0-4.897V1.5a.5.5 0 0 1 .5-.5Zm10 8a1.5 1.5 0 0 1 1.5 1.5v3a1.5 1.5 0 0 1-1.5 1.5h-5A1.5 1.5 0 0 1 7 13.5v-3A1.5 1.5 0 0 1 8.5 9h5Zm-5 1a.5.5 0 0 0-.5.5v3a.5.5 0 0 0 .5.5h5a.5.5 0 0 0 .5-.5v-3a.5.5 0 0 0-.5-.5h-5Zm-5-3.5a1.5 1.5 0 0 0 0 3l.148-.008A1.5 1.5 0 0 0 3.5 6.5Zm10-5.5A1.5 1.5 0 0 1 15 2.5v3A1.5 1.5 0 0 1 13.5 7h-5A1.5 1.5 0 0 1 7 5.5v-3A1.5 1.5 0 0 1 8.5 1h5Zm-5 1a.5.5 0 0 0-.5.5v3a.5.5 0 0 0 .5.5h5a.5.5 0 0 0 .5-.5v-3a.5.5 0 0 0-.5-.5h-5Z"/>
</svg>