<svg xmlns="http://www.w3.org/2000/svg" fill="none" viewBox="0 0 16 16">
  <path fill="currentColor" fill-rule="evenodd" d="M2.89 1.06a.5.5 0 0 1 .5.5V6.01a2.06 2.06 0 0 1 0 3.997v4.452a.5.5 0 0 1-1 0v-4.452a2.06 2.06 0 0 1 0-3.997V1.56a.5.5 0 0 1 .5-.5Zm-.75 6.2a1.06 1.06 0 1 1 1.5 1.5 1.06 1.06 0 0 1-1.5-1.5ZM7.4 2.89c0-.22.055-.293.076-.314.022-.022.094-.076.314-.076h5.78c.22 0 .293.054.314.076.021.021.076.094.076.314v2.67c0 .22-.055.292-.076.314-.021.021-.094.076-.314.076H7.79c-.22 0-.292-.055-.314-.076-.021-.022-.076-.095-.076-.314V2.89Zm.39-1.39c-.374 0-.746.093-1.021.369-.275.275-.369.647-.369 1.02v2.67c0 .374.094.746.369 1.022.275.275.647.369 1.021.369h5.78c.374 0 .746-.094 1.021-.37.275-.275.37-.647.37-1.02V2.89c0-.374-.095-.746-.37-1.021-.275-.276-.647-.37-1.02-.37H7.79Zm-.39 8.96c0-.22.055-.293.076-.314.022-.022.094-.076.314-.076h5.78c.22 0 .293.054.314.076.021.021.076.094.076.314v2.67c0 .22-.055.292-.076.313-.021.022-.094.077-.314.077H7.79c-.22 0-.292-.055-.314-.076-.021-.022-.076-.095-.076-.314v-2.67Zm.39-1.39c-.374 0-.746.093-1.021.369-.275.275-.369.647-.369 1.02v2.67c0 .374.094.747.369 1.022s.647.369 1.021.369h5.78c.374 0 .746-.094 1.021-.37.275-.274.37-.647.37-1.02v-2.67c0-.374-.095-.746-.37-1.021-.275-.276-.647-.37-1.02-.37H7.79Z" clip-rule="evenodd"/>
</svg>