<svg fill="none" xmlns="http://www.w3.org/2000/svg" viewBox="0 0 16 16"><path d="M13.5 11.0606V4.9194c0-.3224 0-.5942-.0182-.8168-.019-.233-.0605-.4559-.1684-.6678a1.7127 1.7127 0 0 0-.7482-.7482c-.2119-.108-.4347-.1494-.6678-.1684C11.6748 2.5 11.403 2.5 11.0806 2.5H4.9194c-.3224 0-.5942 0-.8168.0182-.233.019-.4559.0604-.6678.1684a1.7122 1.7122 0 0 0-.7482.7482c-.108.212-.1494.4347-.1684.6678C2.5 4.3252 2.5 4.597 2.5 4.9194V11.0806c0 .3224 0 .5942.0182.8168.019.2331.0604.4559.1684.6678.1642.3221.426.584.7482.7482.212.1079.4347.1494.6678.1684.2226.0182.4944.0182.8168.0182H11.0806c.3224 0 .5942 0 .8168-.0182.2331-.019.4559-.0605.6678-.1684a1.7131 1.7131 0 0 0 .7482-.7482c.1079-.2119.1494-.4347.1684-.6678.0182-.2226.0182-.4944.0182-.8168v-.02Z" stroke="currentColor" stroke-linecap="square"/><path fill="currentColor" d="M5 5h2v2H5z"/></svg>