<svg xmlns="http://www.w3.org/2000/svg" fill="none" viewBox="0 0 16 16">
  <path fill="#88C9F9" d="M8 16A8 8 0 1 0 8 0a8 8 0 0 0 0 16Z"/>
  <path fill="#5C913B" d="M11.43.78c-.455.253-.833.68-1.346.525-.834-.25-1.945-.805-2.667-.11-.722.693-.889 1.333 0 1.305.889-.028 1.5-1.084 1.944-.64.445.445.333.807-.722.945-1.055.139-2.195.306-2.806.306-.61 0-.75.361-.333.75.417.39-.25.417-.944.806-.695.389.166.555.75.889.583.333 1.027-.084 1.278-.64.25-.555 1.324-1.222 1.773-1.138.449.083.449.306.365.694-.083.388.334.278.361-.167.028-.444.528-.777.917-.805.388-.028.722.528.277.805-.444.278-.889.5-.333.64.555.139.944.86.306 1.166-.639.305-1.75.5-2.25.25s-1.64-.611-1.944-.417c-.306.194-.472.396-.834.531-.36.136-1.833.802-1.861 1.664C3.333 9 3.306 9.972 3.889 10c.583.028 2-.36 2.444-.722.445-.362 1.056-.278 1.25.138.194.417.056.667-.139 1.334-.194.666.128 1 .44 1.583.31.583.56.916.56 1.333 0 .417.445.834 1.112.139.666-.695 1.277-2.056 1.555-2.556s.5-1.61.833-1.833c.334-.222.862-.75.472-.667-.389.084-1.166-.027-1.36-.583-.195-.555-1.028-1.61-.64-1.722.389-.111.834.618 1 .962.167.344.39.76.723.871.333.111 1.055-.743 1.277-.871.223-.129.056-.656-.389-.6-.444.055-1.027 0-1.027-.278 0-.277.556-.64 1-.556.444.084.778.223 1.056.556.277.333.833.944 1.055 1.333.222.39.389.445.5-.25.074-.46.172-.715.262-.987A7.998 7.998 0 0 0 11.43.78Z"/>
</svg>